<?xml version="1.0" encoding="utf-8"?>
<!-- Generator: Adobe Illustrator 21.0.2, SVG Export Plug-In . SVG Version: 6.00 Build 0)  -->
<svg version="1.1" id="Layer_1" xmlns="http://www.w3.org/2000/svg" xmlns:xlink="http://www.w3.org/1999/xlink" x="0px" y="0px"
	 viewBox="0 0 770.1 770.1" style="enable-background:new 0 0 770.1 770.1;" xml:space="preserve">
<style type="text/css">
	.st0{fill:#F6C120;}
	.st1{fill:#372B07;}
</style>
<g>
	<g id="gear">
		<g id="Shape_3-2">
			<path class="st0" d="M689.8,268.5c-7.5,2.1-15.2,2.7-22.9,2c-33-3.1-57.6-30.5-54.8-61.3c2.2-24.5,21-43.6,45.2-48.9
				c-6-11-12.7-21.6-20.1-31.8c-5.1,4.9-11.1,8.8-17.7,11.6c-29.9,12.7-65.7,0.2-79.9-28c-10.8-21.2-6.1-47,11.6-63
				c-10.8-6.7-22.1-12.8-33.7-18.2c-1.8,6.2-4.7,12.1-8.6,17.3c-18.9,25.1-56.3,30.8-83.5,12.7c-21-13.8-29.8-37.7-24.2-59.4
				c-12.7-0.8-25.4-0.9-38.1-0.3c1.6,5.9,2.1,12.1,1.6,18.2c-2.7,30.7-31.7,53.2-64.7,50.1c-25.3-2.4-45.4-18.9-52.5-40.3
				c-11.2,5.1-22.1,10.9-32.6,17.3c4.4,4.3,8,9.3,10.8,14.8c14.2,28.2,1.4,61.3-28.6,74c-22.4,9.4-48.2,5.2-66.6-10.8
				c-6.9,9.7-13.2,19.8-18.9,30.3c6.2,1.8,12.1,4.5,17.4,8c27.2,18,34,53,15.2,78.1c-14.5,19.3-40,27.1-63.4,21.5
				c-0.8,11.9-0.8,23.8,0,35.6c6.6-1.5,13.3-1.9,20-1.3c33,3.1,57.6,30.5,54.9,61.3c-2.1,24.1-20.4,43-44,48.7
				c5.8,11,12.2,21.5,19.3,31.7c5.1-4.7,10.9-8.5,17.3-11.2c29.9-12.7,65.7-0.2,79.9,28c11.3,22.4,5.4,48-12.6,64
				c11,7.1,22.4,13.4,34.2,19.1c1.7-6.9,4.8-13.4,9.2-19.1c18.9-25.1,56.3-30.8,83.5-12.8c22,14.6,30.7,40.2,23.1,62.8
				c13.4,1,26.8,1.3,40.1,0.7c-2.5-7-3.4-14.5-2.8-21.9c2.7-30.8,31.7-53.2,64.7-50.1c26.9,2.5,48.3,21.2,53.7,44.7
				c12.1-5.4,23.7-11.6,35-18.5c-6-5-10.9-11.2-14.5-18.2c-14.2-28.2-1.4-61.3,28.6-74c24-10.1,51.7-4.5,70,14.1
				c7.4-10.3,14.1-21.2,19.9-32.5c-7.8-1.6-15.3-4.7-22-9.2c-27.2-18-34-53-15.2-78.1c15.2-20.3,42.5-27.9,66.8-20.5
				C690.8,293.4,690.7,280.9,689.8,268.5z M436.4,290.3c-2.3,26.2-27,45.4-55.2,42.7s-49.1-26-46.8-52.2s27-45.4,55.2-42.7
				S438.7,264.1,436.4,290.3L436.4,290.3z"/>
		</g>
	</g>
	<g id="frame">
		<g id="Shape_2-2">
			<path class="st1" d="M385.1,770.1c25,0,47.2-10.8,61-27.4h-122C338,759.3,360.1,770.1,385.1,770.1z M541.4,137.9
				c-27-23.7-59.2-40.6-93.9-49.6c-20.4-5.3-41.3-8-62.3-7.9c-59,0-114.5,20.4-156.3,57.5s-64.7,86.3-64.7,138.7
				c0,0.4,0.9,17.6,0.9,17.6c2.8,27.3,11.8,53.6,26.4,76.8l-1.3-3.5l3.4,7.4c48.8,83.2,75.7,153.3,75.7,197.4c0,1,2.7,24.2,2.7,24.2
				c7.6,27.9,26.5,31.9,37.1,31.9h151.9c10.6,0,29.5-4,36.9-30.6c0.2-1.3,2.9-24.5,2.9-24.5c0-76.5,77.8-200.8,78.6-202
				c14-23.3,22.8-49.4,25.8-76.5c0-0.4,0.9-17.6,0.9-17.6C606.1,224.1,583.1,174.9,541.4,137.9z M583.9,293.3
				c-2.7,24.3-10.6,47.8-23.1,68.7c-0.6,1-81.1,128.7-81.1,210.1c0-1-2.6,22.3-2.6,22.3c-4.2,15-12.5,15-16,15h-64.5l-0.4-38.1
				c-0.1-34.3-0.5-75-3.7-113l1.1-5.1c0.3-1.4,0.6-2.4,0.9-3.7c8.2-3.5,17.6-8.7,31-17c14.1-8.8,73.3-59.3,73.3-96.3
				c0-0.8,0-1.6-0.1-2.4c-0.8-11.5-7.6-20.5-19.6-26s-24.6-6-36.1-1c-28,12-46.3,54.2-58.7,96.9c-2.6-11.7-5.2-23.3-9-32.4
				c-19.1-44.3-40.5-52.7-55.2-52c-14.7,0.7-26.9,11.4-31.9,27.9c-1.6,5.5-2.5,11.2-2.4,17c0,24,13.6,52,47.4,71.4l5.5,3.2
				c13.9,8,23.1,12,31.7,13.8c3.7,39.2,4.3,82.6,4.5,118.9l0.5,38.1h-66.2c-3.5,0-11.7,0-16.2-16.2c0-0.8-2.4-22-2.4-22v-0.1
				c0-46.1-27.7-119.2-78.1-205l-2-3.5c-13.3-21.1-21.6-45-24.2-69.8c0-0.2-0.9-16.8-0.9-16.8c0-46.9,20.8-91.4,58.5-124.9
				s87.8-52,141.2-52c19,0,38,2.4,56.4,7.2c31.4,8.1,60.5,23.4,84.9,44.8c37.7,33.5,58.5,78,58.5,125.3L583.9,293.3L583.9,293.3z
				 M400.6,424.6c19-72.1,38.2-95.1,51.7-100.8c5.4-2.3,10.9-2.1,17.1,0.8c5.4,2.5,7.8,5.6,8.2,10.5v1.4c0,25.6-49.2,71.4-62.5,79.6
				C408.8,419.9,405,422,400.6,424.6L400.6,424.6z M368.1,431.9c-6.1-2.5-12.1-5.5-17.8-9l-5.5-3.2c-26.8-15.4-37.6-37.7-37.6-55.9
				c0-4,0.5-8,1.7-11.8c2.5-8.2,7.4-13.7,12.5-13.9c7.7-0.4,21.3,9.9,34.3,40C361.5,392.1,365.2,411.3,368.1,431.9L368.1,431.9z
				 M480.7,652c0-9.3-8.7-16.8-19.4-16.8H309c-10.7,0-19.4,7.5-19.4,16.8s8.7,16.9,19.4,16.9c-10.7,0-19.4,7.5-19.4,16.8
				s8.7,16.8,19.4,16.8c-10.7,0-19.4,7.5-19.4,16.8s8.7,16.9,19.4,16.9h152.3c10.7,0,19.4-7.5,19.4-16.9s-8.7-16.8-19.4-16.8
				c10.7,0,19.4-7.5,19.4-16.8s-8.7-16.8-19.4-16.8C472,668.8,480.7,661.3,480.7,652z M413.4,714.2h-83.8c-5.9,0-10.7-4.3-10.7-9.5
				s4.8-9.5,10.7-9.5h83.8c5.9,0,10.7,4.3,10.7,9.5S419.3,714.2,413.4,714.2L413.4,714.2z M442.6,676.1H327.7
				c-5.9,0-10.7-4.3-10.7-9.5s4.8-9.5,10.7-9.5h114.9c5.9,0,10.7,4.3,10.7,9.5S448.5,676.1,442.6,676.1z"/>
		</g>
	</g>
</g>
</svg>
