<svg id="Layer_1" data-name="Layer 1" xmlns="http://www.w3.org/2000/svg" viewBox="0 0 610.48 569.33"><defs><style>.cls-1{fill:#f6c120;}</style></defs><title>gear</title><g id="gear"><g id="Shape_3-2" data-name="Shape 3-2"><path class="cls-1" d="M609.65,267.68a63.62,63.62,0,0,1-22.91,2c-33-3.09-57.59-30.5-54.85-61.25,2.16-24.5,21-43.64,45.17-48.9a288.36,288.36,0,0,0-20.13-31.78,58.53,58.53,0,0,1-17.69,11.58c-29.94,12.7-65.73.16-79.87-28a52.77,52.77,0,0,1,11.56-63,317.13,317.13,0,0,0-33.66-18.14,53.08,53.08,0,0,1-8.64,17.26C409.75,72.5,372.37,78.2,345.14,60.17,324.19,46.29,315.36,22.4,321,.7A329,329,0,0,0,282.87.42a52.42,52.42,0,0,1,1.59,18.2c-2.72,30.75-31.7,53.16-64.72,50.09-25.22-2.37-45.42-18.89-52.44-40.25a305.48,305.48,0,0,0-32.58,17.33,57.17,57.17,0,0,1,10.75,14.82c14.16,28.16,1.36,61.25-28.58,74a63.78,63.78,0,0,1-66.56-10.78,273,273,0,0,0-18.88,30.31,63,63,0,0,1,17.44,8c27.22,18,34,53,15.15,78.09C49.51,259.56,24,267.31.59,261.71a267.15,267.15,0,0,0,0,35.62,63.86,63.86,0,0,1,20-1.27c33,3.09,57.59,30.5,54.87,61.25-2.14,24.06-20.42,43-44,48.66a287.32,287.32,0,0,0,19.34,31.67,58.63,58.63,0,0,1,17.31-11.22c29.94-12.7,65.73-.16,79.87,28,11.28,22.44,5.44,48-12.59,64a316.24,316.24,0,0,0,34.2,19.06,52.93,52.93,0,0,1,9.15-19.14c18.86-25.08,56.25-30.79,83.49-12.75,22,14.59,30.67,40.22,23.14,62.77a329.77,329.77,0,0,0,40.14.68,52.52,52.52,0,0,1-2.72-21.89c2.72-30.75,31.7-53.16,64.72-50.09,26.94,2.52,48.25,21.23,53.69,44.74a305.45,305.45,0,0,0,35-18.48,57.61,57.61,0,0,1-14.4-18.17c-14.16-28.17-1.36-61.25,28.58-74a63.64,63.64,0,0,1,70,14.09,272.62,272.62,0,0,0,19.94-32.48,63.22,63.22,0,0,1-22-9.16c-27.22-18-34-53-15.15-78.09,15.24-20.25,42.55-27.87,66.84-20.55A266.87,266.87,0,0,0,609.65,267.68ZM356.27,289.46c-2.33,26.23-27,45.35-55.21,42.72s-49.12-26-46.79-52.24,27-45.35,55.21-42.72,49.09,26,46.77,52.21Z"/></g></g></svg>