<svg id="Layer_1" data-name="Layer 1" xmlns="http://www.w3.org/2000/svg" viewBox="0 0 1920 94"><defs><style>.cls-1{fill:none;}.cls-2{fill:#1d1e22;}.cls-3{fill:#110c02;}</style></defs><title>grunge_border_v3</title><rect class="cls-1" x="-903" y="-9.27" width="4015" height="263.55"/><path class="cls-2" d="M1699.64,47.09a30.12,30.12,0,0,1-9.29,1.83c-.88-.52,6.05-.89,1.49-1.08C1693.13,47.3,1695.74,47,1699.64,47.09Z"/><path class="cls-2" d="M1670.87,39.63c-.8.29-1.6.59-1.49,1.09-8-1.14-8.89-.55-20.42-.29C1653,38.76,1664.19,39,1670.87,39.63Z"/><path class="cls-2" d="M1662.36,53c-2.32,1.14-12,.65-18.79.79C1647.56,52.83,1652.8,53.22,1662.36,53Z"/><path class="cls-2" d="M1645.77,39.72c1,2.13-10.32-.44-7.78,1.11-.12.88-5.19.1-4.73-.34-21.76.38-7-.83,1.55-.37,1.52,0,1.17-.44,1.52-.72C1641.11,39.12,1641,40,1645.77,39.72Z"/><path class="cls-2" d="M1612.82,39.84c-.17,1-6.51.68-11,.76C1603.34,39.86,1607.85,39.8,1612.82,39.84Z"/><path class="cls-2" d="M1598.66,39.53c.79,1.12-3.28,1.16-7.78,1.1C1591.78,39.89,1593.22,39.27,1598.66,39.53Z"/><path class="cls-2" d="M1587.72,40.29c.19,1.75-21.08-1.75-17.18,1.14-2.29-.47-4.27-1.59-1.72-2.15C1578.07,39.67,1578.14,40,1587.72,40.29Z"/><path class="cls-2" d="M1515.7,43.07c-.18.79-3.91.79-7.79.74-1.21-1.09,1.51-1.32,1.4-2.17C1512.11,42,1512,43,1515.7,43.07Z"/><path class="cls-2" d="M1489.44,49.28c-1.81.54-1.25,1.62-6.19,1.46C1483.74,49.91,1484.15,49.05,1489.44,49.28Z"/><path class="cls-2" d="M1469,49.35c.13,1.09-5.45.92-9.35,1.11C1459.57,49.37,1465.13,49.55,1469,49.35Z"/><path class="cls-2" d="M1418.64,47c-4.18,1-10.46-.68-17.28-.29C1405.56,45.74,1414.49,46.76,1418.64,47Z"/><path class="cls-2" d="M1209.62,43.44c-4.67,0-5.4-.92-9.49-1C1201.65,41.71,1209.71,42.53,1209.62,43.44Z"/><path class="cls-2" d="M1145.21,42.59l.08,1.08c-3.94-.42-31.91.3-11-.32C1137.64,43,1139.56,42.39,1145.21,42.59Z"/><path class="cls-2" d="M1138.06,29.65c-2,1-8.45.75-12.53.41C1126.63,29.24,1134.32,29.88,1138.06,29.65Z"/><path class="cls-2" d="M1100.37,29.42c-4.38.28-7.34,1.54-9.4.4C1094.27,29,1096.73,28.45,1100.37,29.42Z"/><path class="cls-2" d="M1087.71,28l.08,1.08c-2.36-.42-7-.29-6.37-1.42C1084.21,27.63,1084.75,28.12,1087.71,28Z"/><path class="cls-2" d="M1060.52,43.6c6.07.82-5.88.55-4.62,1.46-2.76-.08-3.62-.61-3.23-1.43C1056.52,43.15,1059.24,44.66,1060.52,43.6Z"/><path class="cls-2" d="M1054.9,30.3c-.27,1.5-5.58-.14-9.36.75l-.08-1.08C1050.25,29.7,1050.12,30.58,1054.9,30.3Z"/><path class="cls-2" d="M1047.32,34.29c4.71.73-11.3-.18-7.75,1.47C1031.84,35.08,1040.25,33.82,1047.32,34.29Z"/><path class="cls-2" d="M1029.67,28.59c0,.35-1.9.29-3.12.37-1.77.07-.84.36,0,.36-.46.49-3.92.31-6.24.38C1019.33,28.42,1024.89,28.59,1029.67,28.59Z"/><path class="cls-2" d="M1008.11,34.79c0,.48.06,1,.1,1.44-2.06-.49-6.85-.33-11-.32C997.24,34.74,1004.25,35.12,1008.11,34.79Z"/><path class="cls-2" d="M968.35,27c-5.16.5-10,1.08-15.59,1.49C954.85,27.32,960.53,26.93,968.35,27Z"/><path class="cls-2" d="M811.43,27.93c0,.48.06,1,.1,1.44.5-1-9.41-1.52-4.74-.34-2.27,1.2-3.88-.73-7.87-.33C801.39,28.06,805.94,27.89,811.43,27.93Z"/><path class="cls-2" d="M726.68,28.23c-1.46.74-6,.8-10.93.76C719.94,28.48,721.75,27.7,726.68,28.23Z"/><path class="cls-2" d="M699,36.61c-.93.32-1.83.65,0,.72-3.48.76-3-.76-9.41,0C689.74,36.44,694.82,36.63,699,36.61Z"/><path class="cls-2" d="M694,32.67c-2.13.71-13.29.48-15.7,0C680.46,32,691.62,32.24,694,32.67Z"/><path class="cls-2" d="M688.05,37.37c-4.71.4-10,0-17.27.06,2.8-.79,12.3-.1,15.65-.77C686.22,37.08,686.83,37.29,688.05,37.37Z"/><path class="cls-2" d="M610.21,23.6c-3.66,1-9.55-.54-14.1.41C596.11,22,605.12,23.64,610.21,23.6Z"/><path class="cls-2" d="M610.46,27.2c2,1.16-5.07.29-3.05,1.45-3.6.12-1.79-1-4.78-1.06C604,26.38,605.54,27.4,610.46,27.2Z"/><path class="cls-2" d="M605.35,21.46c-2-.49-7.42-.19-9.47-.68C599.19,19.88,605.2,20,605.35,21.46Z"/><path class="cls-2" d="M582.2,27.3c-4.46.95-20.17,1.39-23.51.45,1-.71,4.13-1,7.77-1.11-6.39,1,13.55,1.36,9.4-.4C580,26.13,577.18,27.64,582.2,27.3Z"/><path class="cls-2" d="M525.85,29.66c0,.36,0,.72.06,1.08-5.81.4-2.57-1.34-7.91-1.06C518.35,28.85,524.89,29.46,525.85,29.66Z"/><path class="cls-2" d="M497.36,26.16c-1.21,1.93-8.85.22-14.05,1.13C484.18,26.07,493.84,26.8,497.36,26.16Z"/><path class="cls-2" d="M492.11,18.26l.08,1.08c-1.2-.82-10.84.37-9.49-1Z"/><path class="cls-2" d="M394.3,11.05c-2.09.71-9.6.23-12.5.76C382.85,10.56,390.49,10.78,394.3,11.05Z"/><path class="cls-2" d="M50.5,10.47c-1.19,2.35-7.13-.4-12.51.76C36.93,9.82,46.56,10.78,50.5,10.47Z"/><path class="cls-3" d="M2429.65,71.5c-13.89-.63-32.44-1.14-42.41-.57-5.62-2.67-31.95.84-34.76-3.12-6.33-.11-2.29,2.09-9.29,1.83-5-.52-8.81-1.33-14.26-1.75-4.37,1.2-13.74.66-15.75-.66,2.08,0,1.41-.64,3.11-.73,6,1.15,21.9.75,28.24-.1-11.39,0-26-.8-36.08.13,1.84,0,4.43-.07,4.73.35-4.6-.08-4.76.83-9.38.75-1-.78,4.37-1.16-1.63-1.07-2.07.36-3,1-6.21,1.1-10.28-1-26.1-1.57-36.15-.59-14.4-2.95-44.48,1-47.34-3.79-12.63.86-25.52,1-37.72-.59-3,.05-1,1.2-4.64,1.1-12.67-2.14-31.79,1.08-47.08.17.9-1.44,15.74.29,10.9-1.48-22.28,1.49-40.7-1.36-58.18-1.23.52-.83,6.86-.37,6.2-1.46-4.88.11-15.51-.52-22,.08-.54-.48-2.29-.68-1.67-1.43-11.58.88-21.69-.65-34.62-1.32-2.1.83,4.13,1.34.1,1.44h-9.41c2-.49,2-1.35-1.67-1.44-13.39.65-30-.24-42.3,1.23,4.62-1.35-4.09-.32-4.73-.34-.24,0,.21-.7,0-.72-24-1.62-72.1,2-83.2-.06,2.71.83-6.82,2.33-12.49,1.12-1.2-1,3.07-.73,3-1.45-38,.78-79.68.08-124,.44,1.22.08,3.1,0,3.16.35-20.8-.4-29.65-1.39-47.13-.55-15.7-.55-45,0-53.38-.17,1.41.21,9,.72,4.78,1.06-17-2.28-31.47-2.17-55.06-2-1.89-1.71-18.84-1.7-18.84.07,5.1.19,7.89-.14,9.36-.75,2,.5,8.29,0,6.39,1.42-8,0-33,.48-20.49-1-24.24,1.39-31.82-1.25-53.38-.17-4.1-3.47-33.35-.5-31.54-2.41a60.93,60.93,0,0,1-20.47-.65c13.51-1,22.93-.32,31.32-1.19-5.2.13-9.66.08-11-.68a63.82,63.82,0,0,1-20.41.07c.36,1.6-6.34.24-7.83,0-1.86,1.18,5.1.26,3.23,1.43a210.26,210.26,0,0,1-33-1c2.91-.06,5.22-.26,6.23-.75-8.72.56-18.7-1.34-20.36.79,3.27.2,10.28-.48,11,.32a144.69,144.69,0,0,1-26.73-.62c2.07,0,11.37,0,6.26-.38-7.32-.32-9.44.5-14.08.77-16-2.56-27.37-1.6-44.12-2.36-2.07,1.31-11.52,1-18.75,1.15,0-.5-.79-.79-1.65-1.08-.52-.94,6.08-.3,4.62-1.46-6.39-.08-20.59.56-29.9-1-3.9.75-22.8,1.65-25.15-.63,11-.36,20.55-.8,26.67-.1,1.63-1.22,32.38.57,29.72-1.55a12.94,12.94,0,0,0,6.35,1.06c2.24-.58,7.06-1.1,10.84-2.2-.61,2.58,9.32-1.24,11,1,5.07.3,3.19-.94,6.22-1.1,4.24.33,6.17,1.22,11.07,1.4,35.53-2.88,76.14.22,111.41-.76-7.93-.32-17.9-.15-22.07-1.36,2.75-.11,7.89,1,9.41,0-2.77-.32-7.84-.1-9.46-.69,8.44-.64,14.2,1.25,17.3.66-9-.15.33-1.36-.09-1.44-3.1-.6-7.82.39-12.63-1-.31.68,1.81.79,1.67,1.43-3.22-.09-3.14-1-6.36-1.06-21.62,3.74-55.85.47-81.47,2.45-1.46-1.85-6.92-.86-6.27,0a36.17,36.17,0,0,1-11.13-2.12c-6.37,2.44-25.62-.15-34.44,1.56-9.75-2.14-31.59.42-42.37.15,1.23.07,1.84.29,1.61.72-5.54.17-8.89.58-12.57-.32,3.64-.89,3,.52,7.87.33-11.43-2.53-29.35-.46-45.61-1.28-2.4.53-6.06.78-9.33,1.12-3-1-11.72-.65-18.9-.65-1.12,1-3.74,1.76-10.88,1.48,8.2,2.46,23,1.76,33.06,1.32-5.41,1.39,3.3,1.61-3,2.53-4.61-2-29.58-.47-36.17-1,3,.14,6.77.11,6.35,1.05-4.73,0-13.37,1-17.26.06,7.88.23,6-1.29,11,0a46.34,46.34,0,0,0-12.72-2.48c-1.1,1.12,5.42.42,3.26,1.79a29.51,29.51,0,0,0-3.12.37c-2.2-1-17.17-.34-12.66-1.76-11.39.63-28.4.39-33.09-1.68-19,.91-34,2-53.29,1.27-.31-.54.47-1.33-1.67-1.43-1.19.8-5.41.92-7.74,1.47-.55-1.25-4.24,0-4.76-.7,2.21-.1,1.75-.8,3.07-1.09a39.74,39.74,0,0,1-7.86-.33c-1.11,1.12,5.43.42,3.26,1.79-3.91,0-4.83.59-7.8.75-6.14-1.31-15.55,1.07-26.71-.27.47-.49,2.2-.69,1.48-1.44-5.76.14-5.44,1.63-10.87,1.84.34-.52,2.54-.62,3.08-1.09-7.68,2.64-26.44-.2-31.42-.25,1.71.08,3.81.58,1.62.71-25.39-.61-47.08.25-70.64.25-.18-.4,2.25-.57,0-.72-10.64.34-64.82,4.56-54.94.19-1.21-.08-3.09,0-3.15-.35,1.84-.06,4.45,0,4.67-.38-4.88-.55-13.81.58-20.35.79a29.71,29.71,0,0,0-4.8-1.42c-11.5,2.56-19.59-1.34-31.41-.25-.54-.94,6.07-.3,4.6-1.45-15.94,3-43.26.57-65.81,1.67-.56-1,8.81.3,6.21-1.1-16.27,1.06-47-.09-67.44,1,4.73-1.11-5.82-.48-6.37-1.42,13.66-2.46,28.51-.32,46.94-2.33-.89-.52,1.7-1.87-1.7-1.79-4.91,3.44-24.5,1.5-37.5,2.73-.72-.56-5-.29-3.24-1.43-12.07,2.12-36.19,1.69-54.9.56-4.56,1.59-15.38-.19-23.49.8,3.37-.55,2.37-2.08,7.7-2.19,1.89.94-4.74,1.57,1.66,1.44,1.89-2.65,22.35-.94,26.56-1.89-4-.08,2.12-.63-.09-1.44-6.68,1-12.81,0-18.75,1.14-3.56-1.08-16.69-2.12-9.41,0-5.49-2.07-18-.36-23.71-2.07,17.1.23,23.26-1.43,36-1.56-7.47-1.22-11.65-.52-18.88-.65-.1-.5.69-.79,1.5-1.09-22.74-.12-37.87.3-55.08-2-.21.42.35,1-1.49,1.08-10.16-1.45-28.87-.75-39.29-.58,1.93,0,3.73.1,3.19.7-6.87,0-15,.39-15.76-1-3.61.15-1.39,1.58-6.18,1.46-4.9-.79-7.15-2.21-12.75-2.83,5,1.39-21.13,2.21-14.15-.31-9.81-.2-15.08.88-22-1a58.7,58.7,0,0,1-9.29,1.83c1.26,3.45-2,3.86-1.14,6.48,8.31-.8,14.41-1.25,17.34,1,1.68-1,14.29-1,17.26-.06,10.56-2.31,25.44.71,42.39.21-.78,1.74,5.26.41,8,1.77-5.66.16-10.49.5-15.65.77,2.18-1.12-.35-1.39-3.28-2.15-2.11,1.07-10.13.83-12.56,0-1.76,1.51,6.65.62,7.93,1.41-6,.55-13.35.81-18.72,1.51-3.14-2-14.74-1.84-22-1-3.17-.83-3.17-1-.13-1.8-14.41,1.62-32.28,1.19-42.39-.21-4,2.64-16.86-.77-22,.08A12.69,12.69,0,0,1,412,38.59c-4.83-.24-4.57.63-9.39.39.27-1.4-5.93-1.28-9.54-1.76-1.46.67,4.78,1.18.11,1.44-13.28-.35-18.31-.62-28.24.46-1.44-1.18-.19-2.2-9.57-2.13.17.63-.27,1.13-1.47,1.44,3.93.45,6.45-1.08,7.84,0-9.12.74-15.86-1.59-23.49.8-2.31-.3-6.09-.26-4.8-1.42,3,.13,1.33,1.39,6.35,1-2-1.66,6-1.71,10.88-1.84C340.33,37,334,33.14,330,35.76c-15.59-.82-26.17-2.26-42.6-3.45.33-.52,2.53-.62,3.05-1.09-8.31-.72-13.13,1.88-14.15-.31,7.66-.07,16.86.2,20.36-.79a19.24,19.24,0,0,1-6.34-.7c7,.82,1.37-1.4,14.08-.77-1.35-1.37,4.52-1.12,4.57-2.18-3.79-.56-10.47-.45-12.66-1.39C308.45,24,316,24.22,323,25.71c-2.27.21-8.14-.39-7.83.39,8.66-.23-5.43,1.3,3.22,1.07C323,25.67,328.57,25.61,334,25c-3.08,1.46,7.08-1,9.49,1,2.68-.36,3.08-1.21,6.18-1.46,12.32,2.25,36.12,1.87,48.83,2.34-2.36-.41-7-.28-6.38-1.41a30.67,30.67,0,0,0,3.11-.37c4.94,1.59,15.33-.24,17.39,1.74,8.07-.06,7.74-.39,12.57.32,1.36-.8-.94-1.68,7.75-1.46-.41.73-4.19.72-4.61,1.45,12.38.1,34.71-1.32,42.43.57,20.08-5.61,52.64,2,68.92-2,.05.48,2.77.32,3.18.71-4.09-.2-5.63.17-4.64,1.1,8-.14,7.7,0,18.89.65-2.47-2-14.62-1.66-19.06-3.17,3.32-.68,11.48-.29,17.24-.42-2.1-1-16.2-1-20.48-1a3.85,3.85,0,0,1-3.07,1.09c-2.18-.07-4.11-1-6.36-1.06-10.5-.31-25.71,1.55-31.42-.61,5.56.18,8.07-.33,9.34-1.11-26.2.89-42.41-.12-72.18.26,0-.36,1.23-.44,1.51-.73-10.16.85-21.48-.47-32.88,1.2.34-.52,2.55-.62,3.07-1.09-6.55.31-11.83.91-17.17,1.5,3.26-.88-5.31-1.17-6.41-2.13.33.78-1.21,1.15-4.65,1.09-3.5-.51,1.93-.88-1.63-1.08-8,.46-17.21.67-23.45,1.53-.13-.66,8-1.25,3-1.81-9.75,1.9-36.29-.61-45.59-.92,4.66.42-4.81,1.17-6.25.38-2,.91,6.27,1.1,1.65,1.43-2.2-1.41-12.48-.34-14.19-1-2.53-1.27,5.31-.24,4.64-1.1-6.42-.8-13.82-1.36-22.09-1.72C285.37,16,314.52,18.72,335,15.94c-1.38-.84-6.86.32-9.39.39-1.19-2.37-5.45-.18-9.49-1,3.77-2.92,16.86.14,23.5-.8-1.92,0-3.73-.09-3.19-.71,1.57,0,1.84-.3,3.12-.37,9.82.2,27.27,1.45,28.22-.46,7.69.14,13.83,2.57,20.53,1.73-8.17-.62-15.76-1.39-19.06-3.17.1-.5,11.28-.26,6.23-.74-11.34,1.2-15.63,1-26.61,1.17,1.2.57,7.68-.11,6.35,1.06-4.75-.09-12.17.44-12.61-.67,4.52-.59-2.48-1.88-3.19-1.07,4.27.31-1.24,1.33-3.05,1.45-.33-.53-3.82-.32-6.31-.34.08-.63-.42-1.12-1.66-1.43a97.58,97.58,0,0,0-10.93.76c-20.22-1.92-48.22,2.06-67.44,1,1,0,1.87-.06,1.55-.36-3.26,1.59-13,.39-12.45,1.48-1.8-.34-10.41-.9-11-.32,1,.62,7.45-.06,7.89.69-.29.41-1.7.57-3.08.73-4.18-1-4.85-.47-9.43,0-1.56-.36-3.15-.71-4.77-1.06-9.75.57-14,.46-23.5.8-.1-.49.68-.79,1.48-1.08a35.61,35.61,0,0,1-11-.32,66.6,66.6,0,0,0,10.86-1.84c-6.85.61-17.95.27-20.27,1.87,2.81.2,6.44-1.08,7.84,0a116.18,116.18,0,0,0-12.47,1.48c.17-.64-1.61-.83-4.73-.7,3.4-.92-1.95-2-4.9-2.5-.95,1.32,3.5,1.37,3.32,2.51-7.31-.28-1.61.57-4.68.74-8,.19-9-1.28-15.79-1.38,1.78-1.14,8.06-1.28,10.84-2.2-8.85-.2-9.58,1.41-17.16,1.5.12-.9,2.91-1.14-1.67-1.43-9.77,2.26-29.92,1.59-42.25,2,2.15.88,4.69-.67,6.3.34-.37.51-3.41.42-4.66.74-.92-.88-6.12-.75-4.85-2.14-8.74,1.31-18.37.25-29.76.82-1.49-.53-4-2.68-8-1.41,1.93,0,3.73.09,3.19.71-6.59.36-11.23.38-21.95.43-1.19-2.52-14.08-2.27-20.65-3.52-3.44.53,2,.87-1.5,1.08-16.18-1.71-26-1.5-47.25-2.35,10.23-.61-9.86-.45-3.23-1.43-6.88.8-19.33,1.4-23.49.8,2.52-.27,2.66,1.69.09,1.44-3.23-.63-.52-1.33-6.31-.7.84-1.3-.72-2-4.87-2.14-2.16.23-.14,1.38-3,1.45-4.89-.56-6.12-.29-9.46-.69a11.6,11.6,0,0,0,4.64-1.09c-5.2.26-2.58-.74-1.64-1.08A84.44,84.44,0,0,1-94.43,3.07c.15,1.76,4.15,2.65.27,4,5,.17,4.45,1.63,6.43,2.5-23.14.27-53.94-1-74-3.7,3-1.17,2.86-2.23-1.79-3.24-9,6.84-39.55-.91-59.52,2-2.06,2,1.47,2.2,1.87,4.32-12.36-.27-15,1.62-20.21,3-9.27.67-13.27.34-23.49.8-.21-.44-.52-.85-3.18-.71-4.25.35,4.22.65,1.69,1.79-10.68.28-13.08,3.71-23.34,3,3.23,2,.13,3.15-1.3,4-.06-.47-4.39-.44-4.71,0,2.53.1-.08.51-3.12.37,3.32-.59-8-2.7-9.49-1,5.62.68,15.55,1.26,11.2,3.2,5.54-.21,8.1.28,9.5,1a62.5,62.5,0,0,1-6.19,1.46c1.46.75,4.43,1.15,6.4,1.78-7,1.14-24.77,2.22-33-.24-6.25.5-13,3.65-18.76,1.15,2.16-.12,7.2-.75,9.3-1.83-6.24,0-14.15,2.29-18.81.43,12.81-2.4,33.32-3.83,51.6-3.07-11.59-2-33-.29-48.58,1.25-6.66-.82-21.42-.36-29.77.82-3.65-.23-4.27-1.18-7.94-1.41-11.84.15-38.52,3.64-37.71-.59-5.62-.54-.87,1.23-4.64,1.1-2.77-.32-5.51-.65-4.84-1.79,15.08-3.27,36.65-5.09,52.83-8.11-4.36-.92-10.83-1.34-11.2-3.2-34.87,0-47,8.72-82.63,8.58,5.39,3.35-9.23,4.88-1,7.92a33.65,33.65,0,0,0-6.26.38c1.9,2.87,4.69,4.87-2.67,6.85.06.6,4.37.19,4.76.7-5.28,0-4.15,1.45-6.14,2.18,1,.5,6,0,6.34.69,7,8,16.92,11.94,31.2,20.41,12.45,1.68,18.11,5,30.27,6.73-3.82,1.46,7.71,3,3.46,4.67,3.57-.12,5.9.06,6.32.69-3.58-.08-5.89.11-6.23.74,7.64-.34,3,1.65,3.27,1.79,4.6,2.77,17.63,5,20.95,8.21-16.71,1.31-33.27-3.33-47.2-1.36-5.65-1-14.68-1.16-15.92-3.18,5-.08,9.35-.28,9.31-1.47a328,328,0,0,0-37.84-2.74c-2.46-3.2-22.89-2.15-34.75-3.12,0-.72,4.25-.47,3-1.45-16.76.58-37.89-.07-55-1.24-6.48-4.17-41.69-3.18-42.89-7.42-7.55-.4-15.76-.66-19-2.09,2-1.8,7.61-2.8,5.9-5.42-4.18-1.94-17.3-1.76-23.75-3.16-.41,1.34-9.85,2.52-15.61,1.49,1-.72,4.73-.84,6.19-1.46-6.28-2.13-4.92-3.92-9.85-6.09-5.19.14-13.09.64-14.19-1,2.78-.22,6.59,1,7.86,0-5,0-4.75-1.32-9.53-1.41.13,2.41-6.23.12-9.41,0-4.47.82.87,1.77-2.94,2.89-19.62.32-34-6.55-47.3-3.07,2,.49,6.85.33,11,.32,10.4,3,24.24,5.24,38.17,7.43-.45.49-2.18.7-1.47,1.45,5.43-.22,8.3-1,14.06-1.13,2.18.7,4.45,1.38,11.07,1-6.32,1.68,4.9,1.55,4.89,2.87-5,.54-4.39.7-3,2.17-3.12,0-1.92,1-6.22.74-14.1-.81-30.37-2-48.79-2,6.9,2.39,22.3,2.77,33.25,4.2-2.08,3.22,3.79,4.17,13,6.43,5.11.43,1.12-1.17,6.23-.74,4.82,3.61,19.85,6.35,16.41,10.74-19.48-.19-19,4-39,3.74-.2,1.61-6.16,1.94-7.63,3.27.52.73,3.21.94,4.8,1.42-1,1-4.63,1.34-7.73,1.83-4.73,4.78,15.75,3.59,16.18,7.14-13.65,1-33.88.51-43.8,2.32,6.09.28,8.71,2.69,3.39,3.59,8.69,1.11,9.92,4,19.17,5,15.43-1.85,14.42-6,32.44-7.68,10.51,5.71,56.66,4.79,71,5.87-2-.14-3.25-.45-3.22-1.07a98.54,98.54,0,0,1,15.74.67c-1.2-1.45,7.75-.64,9.32-1.48-2.33-.3-5-.52-4.81-1.42,24.52.11,37.92-2.14,62.6-2.74.22-.42-.33-1,1.51-1.09,33.36.23,55.47-1.63,86.17-2.47.21-.42-.34-1,1.49-1.08,6.49.63,14.82.57,18.87.65-1.21-.07-1.82-.3-1.6-.71,24.3.49,56.25-1.56,61.46,3.74-2.28-.4-3.86-.38-4.69.38,4.56.53,12.67,1.67,8.07,3.21,8-.46,13.45,1.64,9.61,2.84.54.49,2.28.68,1.67,1.44,5,.28,3.27.3,6.25-.38,0,.49.8.79,1.64,1.08-2.45,0-5.44,0-4.64.74,10.59-.35,2.24,1.61,6.44,2.5,6-.21,3.7-2.25,12.43-1.85-3.58.81.63,1.4.17,2.52-1-.1-6.1-.88-6.28,0,4,0,2.61,1.33,4.83,1.78a33.65,33.65,0,0,0,6.26-.38c-5.63,1.33,8.11-.06,4.82,1.78-10.45-.92-19.22-.26-29.77.47-4.23-2.41-22.72-1.45-27-3.86a27.13,27.13,0,0,0,4.65-.74c-3.47-.27-4-1.25-6.39-1.78-17.07.53-19.64-5.28-38.06-5.63-.24,2-8.16,2-15.6,1.5.15,1.8-5,1.37-10.91,1.12,3.67,3.36-13.36,3.8-7.42,6.51-2.11-.46-5.86-.45-6.25.38,1.21.57,7.68-.11,6.35,1.06-.24.53-3.77.34-6.24.38,1.09,3.77,19.24,3.49,25.51,6-24.52,2.14-36.47-3.07-56.65-2,0-.48-.06-1-.09-1.44-19-1.22-18.33,4.74-34.26,4.09-8,2.23-18.75,3.87-32.65,4.8,1.43.45-9.78,1.11-10.84,2.2-26.1.11.12,6.8-4.09,9,5.08,1.36,11.93,2.3,14.42,4.27-5.8.06-4.51.67-1.49,1.08h-6.28c.55,2.26-5.08,2.37,1.81,3.59,15.38-1.12,29.58.39,36.33,3.47-2.45,0-1.16.93-4.65.74-1.25,1.64,7.89.82,8,2.13-10.82-.48-12.22-3.2-22.23-3.88,1.35,1-2.15.94-1.46,1.81,3,.07,3.44-.42,6.25-.38-3,.71,3.23,1.09,3.29,2.15,6.77-.07,5.82.57,12.62,1,.6-.61,9.13-1.24,11-.4-9.85-.1,2.64,1-4.6,1.46,13.5.53,17.45,1.49,25.22,1.35-5.18.51-9,1.33-9.23,2.91,4.2-.26,3.08.74,4.78,1.07,20,.65,28.32,4.27,52.13,4.86-6.13,2-20.51.85-36,1.57-2.49,1.1-6.79,1.8-6,3.62,16.9-.36,38.4,2.43,56.53.15,10.63,2.2,35.09-1.3,53.34-.55,7.17.3,24.26.1,28.1-2.26,22.22.12,45.52-1.1,73.69-1.34,1.9.93-4.73,1.56,1.66,1.43,8-1.9,26.45-.81,34.4-1.92-26.58-.19-50.33-.91-77-.81-.4-.51-2.62-.6-3.19-1.07,16.95.69,39.14-4.72,36-1.93,1.57-.47,8.37.92,14.18.67,3.64-3.23,16.3,0,26.64-.45-.54-1,6.07-.31,4.61-1.46-.55-1.09-6.13-1-6.42-2.14,9.45-2.53,19.9-.87,34.45-1.2.65.51,1.94.61.08,1.08,3.74-.27,14.91-1.1,14.18.67-7.74.73-2.76-.13-7.87-.33-3.09,1.32.35,2,4.87,2.5-4.7.72-4.28,2.59-10.79,2.92a19.08,19.08,0,0,1,6.34.7c-1.1.82-5.93.81-6.16,1.82a111.92,111.92,0,0,1,20.46.65c-.2-1.91,9.72-1.28,12.48-1.12-1.9,1-6.36,1.21-10.93.76,3,1.62-6.22.51-4.6,1.82,6.27.52,23.18-4,31.33-.83-14.1-.54-16.66,1.49-25,2.25-4.67,4.8,14.11,3.31,23.89,5,13.42-.53,33.66,1.46,44,.21-4.92-.42-15.62.26-17.38-1.74,3.19-1.8,9.33.86,10.93-.76-6.94-.45-9.82.39-12.63-1,2.07,0,1.38-.63,3.08-.73,6.37.41,13.63,1.42,12.73,2.47-.56-1.12,4.59.9,4.67-.38-2.34-.3-2.35-1.15-3.26-1.79-7.71.12-12.75-.4-14.25-1.75,11.37-1.92,20.81.1,29.68-2.26,1.39.79,11.37,1.43,14.17.67-2.81,0-3.68-.35-3.21-1.07,22.92,1.46,36.07,1.22,56.62,1.6-5.62,1.08-8.86.55-15.63,1.13,3.23.58,8.19.75,9.55,1.76-5.23.77-9.54,1.42-9.26,2.56-8.65.3-14.13,1.62-23.49.8,3.45,1.56,10.72.69,15.72.3,0,.36,1.29.43,1.62.72-7.41,2-4,3.52-1.14,6.48-32.19,2-59-2.23-91,0-11.59-.32-23.77-2.26-40.93-1.65.57-.87-2.93-.77-1.69-1.79a193,193,0,0,1-36.2-1.31c-1.3,2.47-13.32-.75-18.82.43-.64-.51-1.92-.6-.06-1.08-11.86,2.32-20.16-2.24-34.61-1,6.73.24-5.66,2,6.4,1.78,2.09-.83-4.13-1.34-.1-1.44-.28,2.19,12.68,1.69,17.51,3.54,8.63-2,17.55-.13,29.83-.11,1.25.7,4.15,2.88,8,1.77-6.37.2,1.14-1.27,1.46-1.8,9-.06,17.28,1,25.2,1.35-2.73,1.68-2.49,1.13-9.36.75.23,1.35,1.83,1,.14,2.17,7.26.43,7.57-.68,10.91-1.12-2.07,2.4,18.09.86,23.7,2.07-.35-.78,1.21-1.15,4.63-1.09-.58.52-1.85.61.08,1.08,30-.17,57.41-1.45,84.71-.66,9.07-1.23,35.79-2.36,34.63,1.32,32.88,1.82,66.36.14,102.11,1.08,11.76-1.82,26.71-1.51,37.62-.85-1.62-.1,3.26-.85,6.25-.38,11.17,1.71-7.82,2.63-17.1,2.58,8.13-.17.2,2.38-1.35,3.25-17.51,1-31.74.94-47,2-4.08-.13-4.8-1.06-9.49-1-6.53,1.44-13.92-.65-22-.28-4.61.21-7.84,1.78-12.43,1.85-5.11.07-9.83-1.42-14.23-1.39-2.63,0-7.14.66-9.36.75.24,0,1-.72,1.52-.73-4.7,0-6.91,1-10.91,1.12-.72,0-1.25-1-1.65-1.08-5.73-.59-12.56,1.33-18.73,1.51-4.6-1,5.19-1.66-1.69-1.79-.33,1.23-7,1-9.3,1.83-4.57-2-17.67.23-15.81-1.74-10.61.7-29.32,1.63-39.13,1.58,1.82.06,1.74.56,1.65,1.08-11.78,0-15.63,0-21.93.8,0-.36,1.23-.43,1.52-.73-17.7.28-32.84.57-44,.16a27.41,27.41,0,0,1-4.61,1.45c-4-.92-5-.51-7.82.39-3.21-.65-2-2.1-6.39-1.41,5.42,1-6.11,1.21-9.31,1.47-.08-.71-4.3-.44-3.25-1.43-.52-.83,4.51-.42,4.65-1.1-10.33.14-10.21,1.21-10.79,2.92,3.79.57,10.09.54,14.2,1,2.8-2.06,19.75-.88,23.53-.08-2.07,0-1.38.64-3.09.73-.27-.42.21-1-1.65-1.07-9,2.25-18.85,1-31.32.83,3.77,1.41-2.89,1.11-3,2.53,12.39-.05,24.87-.23,36.1-.13-5-.68,4.53-1.09,6.18-1.46,3.05.52,12,1.52,14.2,1-1.85-.05-1.75-.56-1.65-1.08,6.68,1.58,16.2.89,25.2,1.35-9.86-.16-5.26.7-12.48,1.12,6.91.46,10.79.91,15.67-.41l.08,1.08c14.66-1.25,37.73,1,56.48-.2.27.42-.19,1,1.65,1.08,16.35-1.39,40.54,1,48.63-.53.72,1.35-7,1.88-10.92,1.12,1.23,2.49,10.15.54,14.15.31-.24,0,.31.7.05.72,6.2-.41,8.89-2,15.55-2.21,8.49-.24,11,1.63,22,1C11,196.88,26,198.41,30,197.42c-16.93-.13,18.8-1.76,18.89.65-5.22-.1-5.88.82-9.36,1.11,8.61-.17,4.6.36,6.41,1.78,6.92-.42,7.84.58,12.61.68-.82-1.15-7.11-1-9.54-1.76a27.08,27.08,0,0,0,4.67-.38c3.68.43,6.21,2.23,9.48.69-.1.63.42,1.12,1.66,1.44-25.22.93-34.43,1.53-58.07.21-14.06,1.14-29.15-1.12-43.9.88-.2-.68-5.2-.23-4.76-1.06-19.45,1.11-40.63-2.55-56.51.2,4.45,0,10.74-.35,11,.68-4.89-.08-26.89,1.25-22.07-1.36a121.6,121.6,0,0,1-12.52.41c-2.32,1.52,8.12,0,7.91,1-7.09.19-22.86.94-28.32-1-28.62.17-50.29.75-69.14-1.2-.84,1.86-3.18-.83-6.34-.7-4,.47,1.57,1.76-1.44,1.8-1.57,0-1.85.3-3.13.37-6,.34-5.63-.86-9.48-1-1.85,1-9.61.7-15.65.78-1.37-2.71-12.63-.94-18.9-1-25.73-.29-59.77-1.41-80.14-1.15,16,1,21.33.07,34.65,1.67,18.61-1.51,42.33.53,62.79.14-.18.9,2.54,1.1,3.26,1.79-1.81.54-5.89.58-7.77,1.11,6.11.75,22.71-1.53,33,.61.82-1.19,5.9-.54,9.4-.39,4.93-2.47,28.56-2.42,37.54-1.94-.31.68-14.27.1-9.38.76,4.69,0,9.55-.07,9.49,1-2.75.22-9.25-.41-9.4.39,5,.51,15.23-.19,12.71,2.11,6.6.25-2.22-1.37,4.61-1.45.36.28,1.34.41,3.17.35,2.11,1.65-2.75,1.75-4.55,2.54,7.09.94,7.41-.55,7.78-1.1,4.94.94-4,1.38.15,2.16,6.74.57,13.9.73,17.31.66a7.21,7.21,0,0,1-3.19-.71c2.8.2,6.44-1.08,7.85,0-1.85.06-4.47,0-4.69.38,8.82,1,23,0,28.37,1.7,3.81-.49-2.9-1.07,1.47-1.44,9-.54,8.21,1.23,14.23,1.39.82-.53-2-1.85,1.44-1.8,5.56.15,15.09-.64,14.2,1-1.65.27-11.94.36-7.8.75,8.79-.73,15,0,18.74-1.51,6.34.41-1,1.94,4.85,2.14,2.16-.23.14-1.39,3-1.45,2.13.65,18.78,2.11,11,.68,6.65.31,7.94.25,17.29.3.23-.53-.65-1.32,1.47-1.44,26.35,1.23,49-.49,72.25.47.57-.62-2.39-.92-.07-1.08,8.85.54,16.07,1,22-.44.09.49-.68.79-1.51,1.09,6.4-.68,14.7.09,20.46.64-4.24,1.44-12.38.24-14,2.57,10.86-.24,15.44-3.24,28.08-2.62,2.1-.83-4.13-1.34-.11-1.44a25.69,25.69,0,0,0,9.41-.39c0,1.23,4.69,1.33,8,1.77,12.43-1.39,24.58,1,36-1.21,25,.9,61.59.45,81.56-1,1.46.88,8.79.36,8,1.77,8.88-1.35,14,.85,20.35-.79-1.93,0-3.73-.1-3.19-.71,3.74-.32,4.14-.24,11-.4.2.57-.13,1.25,3.22,1.07,4.9-2.34,17.61-.08,25.12.27.42-.71-2.17-.71-3.22-1.07,6.09-.21,17.45-.49,18.94,1.37-4,.4-5.59-1.53-7.87-.33,2.22.09,1.85.79,3.21,1.07,17-2.12,40.64-1.53,51.72-1.26,4.07.1,6-1.13,7.78-1.11,4.9.06,8.88,1.65,17.32,1-1.56.12,2.21,0,6.28,0,1.56,0,18-.83,22,.64.73.9-12.22.55-7.77,1.11,5.63-.15,7.52-.58,12.56,0-1.34-1.86,8.12-1.53,10.93-.76-5,.56-12,.65-14,1.85,9.69-.61,27.81-2.24,26.75,1,0-.36,2.72-.46,3.14,0-6.34.92-3.74,1.68-9.25,2.55,20-3.17,36.75,1.85,54.75-2.72.41.68-1.71.8-1.47,1.45,4.88,0,4.41-1.15,10.95-.76-.31.68,1.82.79,1.67,1.44,4.08-.15,8.6-.22,10.93-.76-6.95.18-10-.56-11.11-1.76,10.5.51,15.51-1.15,25.16.63-6.3-.33-4.65,1.09-11,.76,1.58.85.66,2.28,6.42,2.14.23-.53-.65-1.32,1.48-1.44-.94,1.63,19.61,2.06,28.4,2.06,1.59-1.35-4-1-3.3-2.15a54.14,54.14,0,0,0,9.44.32c-3.22.89-2.18.77-1.42,2.17,5.06.3,2.07-1.19,6.21-1.1-.11,1.37,8.3.71,9.53,1.77,6.8-1.23,8.85-.24,7.91.69,5.92-1,8.28-.67,12.43-1.84,2.65.71-.12.46.1,1.44,6.71-.4,6-.23,11,.32,2.39-.41,3.78-1,6.17-1.46,2.85.72,6.4.22,1.65,1.08,17.32.66,22.85-3.45,31.22-2.63.85-2.66,8.12-1.64,14.07-.77,2.09-.83-4.14-1.34-.09-1.44,4.38.79,8,.66,14.14.31,1.42,1.15-2.4,1.12-3,1.81,3.45-.61,8.51,0,9.39-.39a12.74,12.74,0,0,1-4.79-1.06c3.7,0,4.59-.64,9.4-.39l.08,1.08c13.15-2,31.8-.28,37.54-1.94,5-.33,3.32.92,6.35,1.06,0-.5-.79-.79-1.63-1.08,3.83-.84,22.47,1.86,12.56,0,7.43.12,9.73,1.53,14.17.67-3.66-.09-3.73-1-.08-1.08-2.21.53-1.12,1.14,3.22,1.07,1.46-.62,4.87-.8,7.78-1.11-4.16,1,7.27.63,9.44.32-1.23-.07-3.09,0-3.16-.35,3.12-.16,11.58-.93,14.12,0-.93.5-6,.08-6.23.74,5.34.62,7-.51,12.52-.76,2.55,2.14,15.53-1.67,17.32,1-12.66-1.34-20.54,3.3-28.23.46-.15,2-5.51.83-12.45,1.49,1.88,1.13-2.4.88-3,1.45,7.26.26,4.45-.41,6.22-.74,1.5.38,5.79.09,4.78,1.06-1.84.06-4.46,0-4.69.38,6.46-.31,9.78.12,11.06,1,8.17-.86,14,.13,31.37-.47,2.9-.64-2.22-1.1,3-1.45,20.51,1.57,39-1.67,54.87-.92,3.14-1.1-3-2.06,4.56-2.18,3.92.49,2.86,1.23,1.72,2.15,14.31-1.47,23.73.67,39.25.22,6.3-3.08,28-.18,37.5-2.65-7.24.53-16.62.58-20.45-.65,5.81-1.33,24.2-1.8,22,.64,8.51-1.31,16,1.42,18.78-.79,1.91,2.27,19.73,2.12,29.9,1.33-1.51.12,2.34.4,6.31.34,20.76-.34,46.36.11,65.81-1.68.2.57-.13,1.25,3.22,1.07.12-.92.17-1.86,4.59-1.82,1.06.78-4.36,1.16,1.64,1.08a14.85,14.85,0,0,1,7.82-.39c3.44-.53-2-.87,1.49-1.09a19,19,0,0,1,6.32.7c-.1.57-4,.29-3.07,1.09,5.71-.8,7.09-.49,14-1.13.21-1.23-5.29.05-6.36-1.42,33.47-4.66,74.24-3.53,109.58-4.35,1.78.92-9.68.61-4.64,1.1,15.1-1,18.34-2.14,29.79-.46,5.77,0,5.94-1.29,9.31-1.84,5.61.88,21.78-1.68,28.28.62.82-1.33,7.73.11,10.92-1.12.26,1.33,3,1,4.73.34.84,2.07,8.67.47,11.11,1.76,2.46-1.22,6.94-1,12.53-.4,3.44-.53-2-.87,1.49-1.09,7.75.82,19.11-1.09,23.63,1.36,4.24-1.69,25.21-1.22,29.85.25,1-2,18.76-1.7,18.79-.78,5.7-1,11.84-1.86,18.65-2.59-.78.53-2.26.91-3,1.45,28.93.29,51.81-1.84,87.88-.32-.13-.62,1.15-.93,3.08-1.09,10.84,2.69,35.66-2.32,36.24,2,8,0,.59-1.26,6.14-1.82,18,.32,30.87-.94,40.85.57,9.78-1,14.36-.66,26.59-1.53.54.82-4.51.41-4.64,1.09,15.07-.24,22.86-1.21,34.58.6-.7-1.7,8.23-1.24,9.24-2.55-8.57-.09-19.34-.11-23.68-2.08,6.76-.71,9.81,1.3,12.58.31-15.47-2.37-24.17.4-42.38.15-.09-.49.69-.79,1.51-1.08-6.17-.63-13.13.27-18.77.79-30-2.23-65.79,2-94.25-.75-9.15,1.66-26.07,1.57-40.68,1.94,2.4-1.71,18-.49,20.24-2.23-7.75,0-38.91,1.19-34.61-1.32,0,1,1,2.12-3,2.17-4.25.27-3.21-.7-6.32-.7-2.76,2-28.73,1-37.6.85,1.21.08,1.83.3,1.61.71-2.94-.67-13.26,1.37-18.83.07,3.58.09,5.89-.11,6.22-.74-6.53-1.28-5.28,1.45-12.48,1.12-.54-.83,4.5-.42,4.64-1.1-13.22.53-36.93-.2-48.63.53-1.87,1.17,5.1.26,3.23,1.43-2.29-.19-8.08.45-7.87-.33.33-.52,2.54-.61,3.07-1.09-24.14-.11-47.56.67-76.9.27-4-1.66-22.88.42-31.4.11-11.23-.41-29.65.51-45.46.88-25.19.59-51-.56-72.12,1.34-.19-.57.13-1.25-3.22-1.07-.23.54.65,1.33-1.47,1.45-7.24-.23-12.61-.92-15.83-2.1a35.81,35.81,0,0,1-6.17,1.82c2.77.09,7.77-1,9.41,0-3,.17-2.76,1-7.79.75-6.57-2.27-2.86-.78-12.66-1.4,2.7,0,4-.29,4.67-.73-7.1,1.16-18.24-.76-25.09.45,8.21.56,10.75.19,17.32,1-8.14.28-10,0-17.21.78-1.54-.66,4.62-1.22-.09-1.44-7.31,1.54-19.72-2.37-29.88-.61,3.17-.32,8.69.54,4.75.7s-4.89-.55-7.89-.69c-5.86,2.48-17.45.28-25,1.52-4-.48-3.79-1-4.82-1.42-2.55,1.21-17.07,1.62-20.3,1.51-.84-1.13,7.18-.3,7.77-1.11-15.74.3-20.94,1.55-28.1,2.26-3.6.12-1.79-1-4.78-1.07,2.66,1.56-9.2,1.94-17.11,2.22.45-1.27,0-1.86,1.43-2.17,1.7.41,7.23.11,9.4-.39-4.54-.69,4.57-1.32,4.55-2.18,3.27.19,3.36.55,1.65,1.08,11.56-.88,26.07,0,37.62-.85-.2.42-2.75.82.06,1.08-2.52-1.27,5.31-.24,4.65-1.1-4.55-.69,3.53-1.55,6.14-1.83-1.71.53-1.62.89,1.65,1.07,3.44-2.22,11.82.2,15.63-1.14,3.67.52-3,1.15,3.21,1.07,0-.48-.08-1-.1-1.44,5.65-.2,22-.39,26.64-.46,4,.16-4.5-1.77,3-1.45-1,1.64,17.33-.75,19,1.73,14.48-1.23,20.49.46,32.87-1.2.69.61,9.3,1.17,11,.32-2.53.28-6.86-.69-3.17-.71,23.18,1.55,54.07.45,78.55,1.16a7.23,7.23,0,0,1-3.17-.7h6.27c.1.5-.68.79-1.49,1.08,5.4-.92,13.64,1.3,17.31.66-4.51-.4,2.52-.43,3.14,0,1-1,.23-.82,4.61-1.46-2.35-.05-5.79.15-6.31-.34,13.33-1.53,33,.06,47.12.19,4.88-.68-5.38-1.2-.13-1.8,5,1.3,12-1.78,14.11,0-1.26.92-16.11.65-9.26,2.19,7.42-1,12.45-3.29,21.85-1.87-1.58-3.54,19.72-2,26.43-3.7,3.79.7,14.25,1.73,20.45.65-11.34-.36-21-1.13-25.33-3.15,1.84-.06,4.47,0,4.68-.38-8.88-.56-5.49,1.61-14,1.13-.1,1.36,9.21.5,9.54,1.77-12.54.23-23.91.46-33-.24,5.07.3,2.08-1.2,6.21-1.1,1.44.31,8.93,1,9.44.33,2.08-1.9,19.72-3.28,29.72-1.55,4.55-2.06,13.82,0,15.7-.05-4.27-.31,1.23-1.33,3-1.45,0,1.65,16.08,1.14,7.83-.39,6.48,0,7.81.87,7.94,1.41a137.43,137.43,0,0,0,14-2.57c-.13.9-2.91,1.14,1.68,1.44,3.76-.5.93-.73,3.06-1.09,1.24.08,1.86.3,1.62.71,5.52-2.6,19,1.15,22-.07-1.92,0-3.72-.1-3.19-.71,7.15.14,14.85.14,17.36,1.38,2.27-1.62,5.42.57,11,.32,2.06-2.4,28.64-2.74,26.63-.81,5.26-.92,8.45-2,15.65-.77,1.87-1.9-10.63-.41-12.65-1.4,4.42-.9,17.16,0,21.92-.8,4,1,6.87,1.67,6.48,2.86,4.18-.25,4.62-1.34,7.72-1.83-1.85,0-4.45.08-4.73-.34,5.59-1.35,17.78-.81,17.36,1.38-3.86-.34-5.08,1.64-3,1.45,2.12-1.54,12.45-1.25,15.52-2.58-7-.51-4.74,1.07-10.93.76-2.07-1.12,1.46-1.48-3.28-2.15a187.43,187.43,0,0,0,20.39-.43c0,.71-4.27.47-3,1.45,5.86.36,3-1.23,6.18-1.46,2.91.41,7.16.5,8,1.41,13-2,22.57-1,40.73-1.22,2.11-1.59-9.4,0-9.5-1,17.36-2,35.66-1.68,53.15-3.43-.33.51-2.54.62-3,1.09,9.38-1.66,16.36.14,18.73-1.51,23.06,1.66,73.6.17,94.32,2.18,12-.09,27.55-2.36,36.12.23,6.11-1.46,21.42,0,26.61-1.17-2.41-.08-.27-.59,1.53-.73,25,1.45,37.05-2,65.86-1-1-1.84-20,.6-17.42-2.1-15.57-.2-20.26-1.39-34.62-1.32,1.85-.06,4.46,0,4.69-.37-1.23-.08-3.11,0-3.17-.35,7.23.19,12-.17,14-1.14-11.24.34-25.93.71-36.14-.59,2.85-1.6,23.35.12,25.06-.81-9.73-.62-18.51-1.47-29.94-1.7,5-1.15-4.7-.12-3.24-1.43,6.92-1,10.82-.1,15.67-.41-1.88.12-5.49-1-1.65-1.08,5,.48,5.26.06,11,0,.28.48-6.3,1.11-1.47,1.44,6-.94,17.42-2.56,21.93-.8.29-.69-1.83-.79-1.67-1.43a59,59,0,0,0,9.39-.4l.08,1.08c9.48-.77,14-1.4,18.66-2.58,5.26.32,24.11,1,26.66-.46-8.2-.51-19.48,1.32-25.18-1-21.2.21-46.28-.44-59.64.21-8.56.42-20.78-.54-28.27-.26s-19,1.24-23.59-.63c4.81.74,10.6-.64,15.72.3,3.44-.53-2-.87,1.49-1.09,77.48,2,162.13-5.58,247.72-4.48-.83-3.26,23.45-2,31.31-1.19,3.88-2,14.11.14,15.6-1.5-3.88-.79-14.89.11-15.8-1.39.86-.64-2-2.11,1.42-2.17,19-.72,30.13,2.22,39.28.58-9.9.08-17.87-2.62-33.12-2.4,2.23-.06,2-3-.12-1.8,1.81,2.47-7.28.45-10.87,1.84-5.4-.06-6.91-1-8-2.13,4.61-1.58,17.64-1.28,23.37-2.6-.36-1.51-5.68-2.07-11.08-1.4-24.09-2.75-64.65.76-91,0-3.12,0-2.06-1-6.32-.7-13.89.42-36.53,2.44-50.24-.18-9.73.63-17.86.21-28.25.1-.51,1-3.7,1.31-9.36,1.12,2.57-.73-.18-.46-.1-1.44,4.09-.15,8.61-.22,11-.76-2-.49-8.29,0-6.37-1.42,10.54,0,14-1.62,23.41-1.88-3-.14-2.91-1-7.9-.69-6.57,2.08-23.13,1.94-26.36,4.77-3.56-.29-5.9-1.85-3.31-2.51-12.12-1.85-30.26,0-42.47-1.29-.13-1.33,5.73-1.33,7.7-2.19-11.37-.16,1.61-1,1.46-1.8-8.32,1.23-23,1-34.44,1.56-78.88-4.06-169.65.66-245-1.29-22.32,1-46,1.17-61.09,1.66-9,1.65-27.63,2.57-36,1.56-5,1-28.39,1-36,1.21,9.74,0-.54-.49-1.65-1.08,13.18-.13,22.39.39,25-1.53a28.32,28.32,0,0,1,4.76.7c-1.21.08-3.09,0-3.12.37,10.35.48-2.35-2.33,6.11-2.54,1.28,1.91,10.93-.4,9.57,2.13-4.92.2-6.48-.83-7.82.38,14.08.12,27.19-.44,34.48-.84-5.47-1.26-16.36.47-23.54.08-1.65-.47-1.63-1.32-3.27-1.79-8.32-.85-15.9.37-20.49-1.36,21.47-1.28,17.1,1.13,31.45,1-.87,0-1.79-.29,0-.36,10-.34,14.61.23,23.51-.44,3.59.51,14.46,2.77,14.13,0-6.11.34-13.67.47-15.76-1-13.53-.64-21.1,2.18-29.76.83,6.74-.15,11.69-.71,14-1.85-6.78-.21-5,1.49-12.48,1.13.33-.51,2.54-.62,3-1.09-7.29.7-20.77,1.36-23.55-.28,13-.69,24.74-.9,34.44-1.56-.1.51.43,1.38,1.6.72v-.72c-14.17-1.51-20.21,1.5-29.89-1,7.06.2,13.33-1,18.83-.07,2.58-2,18-2.36,26.56-1.89-21.82-2.5-38.51,1.91-57.91,2.36-1.44-1.29,10.93-1.32,4.53-2.54-21.45,2.17-51-1-70.69-.83,18.59-1.34,34.9-2,50.15-1.26,4.9.09-4.07-1,1.49-1.09,12.76,1.27,38.46,0,58-.93-.58.52-1.83.61.08,1.08,9.36-2.65,27.4-.68,37.57-1.57-1.21-.07-3.09,0-3.15-.35,23.35.75,54.75.67,76.83-1.35,0,.48.06,1,.09,1.44,24.14-1.46,60-3.14,87.82-1.39-.33-.79,1.21-1.15,4.64-1.1,68.27.73,146.65-3.26,210.21-2.19-2.48,0-5.44.07-4.77-.7,29.4,1.92,54.82,1,81.69.79,3.39.53,4.9,1.52,8,2.13-.09-1.56-2.35-.82-3.31-2.51,12.24,1.55,29.24,1.38,42.42.56l.08,1.08c9.75-1.43,22.69-2,31.35-.83-1.84,0-1.75-.56-1.65-1.07,8.12-.33,14.93-.53,15.76.66,4.21-.35,9.78-.16,12.61,1,6-.34-.31-1.76,3-2.17,59.66,1.44,141.34.68,207.18-.38-53.74-.28-107.61-.87-163.23.58.22-1-10.23.47-7.91-1-30.31,1.34-70.06-1.5-98.88.35-.28-.42.21-1-1.63-1.08,1.37,1.37-3.26,1.41-6.16,1.83-3.35-1.58-14.62.07-22.1-1.72-2.06,1.59-21.29,0-25.12-.27-1.56.48-1.4,1.35-4.62,1.46-1-1.32-7.69.17-11-1-4.51,1.63-12.86.67-20.33,1.15-1.46-2.17-10.87-1-18.9-1-3.44.53,2,.87-1.49,1.09-40.08-.8-78.7.24-122.52-1,1.23-.08,3.1,0,3.12-.36-4.84-.26-2.94,1-7.79.74.08-1-2.67-.71-.09-1.44-7.43.75-17.26,0-25.14-.27-1.73,1.14,2.5.87,3.22,1.43-3.78-.13-3.35.67-7.82.39,0-.72,4.25-.47,3-1.45-7.34-.45-5.19,1.21-12.51.76.82-1.71-7.94-.36-12.66-1.4-3,1.34-3.68,1.36-3,2.17-4.29-.31-7.43-.55-9.39.39l-.08-1.08c-3,.33-15.44,1.75-17.27.06,6.86.41,13.44-1.53,22-.08-.85-2.92-30.93.68-36.24-2,34.78-.57,61.33-.06,97.32,0,.59-.62-2.39-.91-.08-1.08,2.78.2,9.2-.47,9.45.33-1.77.9-6.59-.85-6.23.74,7.88.14,22.63-.17,26.66-.45-3.12,0-10.17-1-4.83-1.78,27.85,1.61,61.55.3,86.36.41,36,.17,72.22.93,111.55,1.4v.72c14.56-1.73,27.55.7,39.17-1.22,4.36.31,8.68.63,9.55,1.77,2.75-.22,9.25.4,9.39-.4-6.89.16-10.65-.4-11.11-1.76,8.75-.18,31.93,0,42.43.57,14.57-1.4,37.26-.29,50.12-1.62-9.13-1-29.86,1.46-31.54-2,10,.81,17.44-1.67,28.22-.46-.46-1.24,3.08-1.24,9.36-.75,7.14-2.91,31.17,0,43.84-2a113.47,113.47,0,0,0,14.24,1.75c.89-1.16-5.68-.47-1.67-1.43-2.77-.2-9.18.47-9.43-.33,33.86-.77,58.28-1.74,87.75-2.11-.42-3.38,16.9-.71,21.87-1.52-7.15-1.64,13-.35,18.82-.42,14.24-.17,29.8-1.28,37.55-1.93-7.24-1.69-15.76.73-25.13-.27.46-.84,1.49-1.55,4.59-1.81,1.29.6,10.53,0,9.34-1.11-8.65.5-13.07,0-20.45-.65,9.09-1.09,21-3.33,31.32-1.19,6.69-1.62,18-.92,31.29-1.55-2.85-2,11.92-1.42,21.87-1.52,7.64-1.66.19-2.45,12.36-2.92-4.06-.7-7.19.4-9.44-.33,3-1.7,5.75-3.45,17-3.3-.33.51-2.53.61-3,1.09,8.13-.23,17.33-1.21,18.71-1.87,7.22.88,5.71-.16,11-.4,8.33-.38,21.22.89,25-1.17-5.85-.8-13.59.61-15.79-1.39,5.91-1,10.39,1,11-.4-4.56-1-19.89.56-20.5-1.37h9.43c.09-1.09-8.24-1-3.29-2.15-2.27.21-8.14-.39-7.83.39,3.44-.08,5,.28,4.79,1.06-4,0-12.54-.16-18.85-.29,11-2.22,37.07-2.22,50.1-2a9.49,9.49,0,0,1,4.59-1.82c-7.28,0-14.52,0-6.23.74a21.26,21.26,0,0,1-9.5-1.41c11.25-1.75,8.85.4,18.83-.07C2427.27,73,2425,72.43,2429.65,71.5ZM1623.7,200.74c-1.16,1.27-5.47.44-7.86,0C1616.19,199.92,1622.73,200.54,1623.7,200.74Zm-246.27,3c-2.13.16-8.8.68-14,1.13.82-.29,1.61-.59,1.51-1.09,4.51.06,8-.12,9.38-.75,1.73.12,1.09.75,3.16.75ZM774,216.72c0-.62-1.23-.93-3.19-1.07.16-.79,3.88-.79,7.79-.75-2.68.75,1.21.7-1.48,1.45,3,.15,9.44-.52,7.91.69C782.91,216.56,778.13,216.71,774,216.72ZM-161.69,168.2c-.33.93-2.75-.49-6.29,0l-.08-1.08a39.15,39.15,0,0,1,6.31.34c-1,.35-1.91.68,0,.75ZM-315.51,30.14c-7.42-.65-16.95,1.42-18.85-.29C-330.33,29.27-316.71,28.26-315.51,30.14Zm1505,17.33a238.81,238.81,0,0,1-25.1.09A148.16,148.16,0,0,1,1189.49,47.47ZM2412.54,73.72c0,.72-4.27.47-3.05,1.45-4.94.19-5.58-.63-11-.32.22-.42,2.84-.31,4.67-.38.22-.42-.4-.64-1.61-.72C2402.48,73,2411.19,73.39,2412.54,73.72ZM2345.88,86.2c-1.47.74-6,.8-10.93.76.69-1,5.9-1,9.31-1.47C2344,85.9,2344.66,86.12,2345.88,86.2ZM2265,97.29c-1.65.8-15,1.85-14.13,0C2257.31,97.67,2257.22,97.28,2265,97.29ZM2083.66,61.93c6.09.55-12.66,1.57-11,0C2075.15,62.05,2081.45,62.34,2083.66,61.93Zm-40.93-1.66c1.42.74-7.93.74-3.07,1.09-1.15.48-15.28,1-14.15-.31,8.09.27,11.9-.42,17.23-.78ZM1735.27,179.46c0,1.1-10.19.88-12.53.41C1725,178.54,1732.88,179.39,1735.27,179.46Zm-68.75-64.92c.68,1.52-6.79.34-9.39.39,0-1,7.34-.88,9.4-.39ZM1483,116.27c-1.53-1.41,8.26-.29,9.34-1.11-1.11-.48-4.18.19-7.86-.33-15.79,3.73-46,1.29-69,1.68-18.84.32-34.89,2-48.54,1.61-1-.36-3.65-.36-3.23-1.07-5.36,1-11.79-.18-18.84.07-2.21-1.17,1.75-.91-6.31-.7,2.89-.7.1-.9-.13-1.8,4.2-.26,3.08.73,4.78,1.06,2.24-.57,5.16-1,6.16-1.82,3.13.23,3.67,1.08,6.39,1.42,3.18-.12,3-1,6.19-1.1-3.22-1.18-14.71-.07-19-1.73,7.73-.24,9.58.9,17.31.65-3.77-.57-9.54-.66-14.19-1-13.41,1.33-11.43,4.75-26.34,5.14,1,.87,6,.77,9.49,1-11.55,1.8-23.23-.29-31.29,1.55-2.11-.35-5.86-.32-6.35-1.05-4.41.25-14,1.74-15.66.41-3,0-1,1.2-4.65,1.1-10.56-2.3-31.6,1.08-42.42-.57-7.65,1.65-26.39,1.37-32.9.84-8.19,2.77-37.21,1.74-48.65.17-12.08.2-10.78,1.13-21.91,1.16,3.37.09,9.81,1.3,11,.68-.17,1.33-7.65,1.15-18.75,1.15a15.56,15.56,0,0,1,3.12-.37c-15.9-.56-47.7,3.6-66-.85,6.49,0,12.11-.14,15.64-.77-3.62.59-21.47-1-23.46,1.16-4.92.19-6.44-.42-7.92-1,.49-.84.89-1.69,6.18-1.47.56-.86-7.13.23-4.77-1.06,10.16-.09,16.2.79,26.73.62-3.58-.74-10.22-1-20.49-1,22.75-2,37.45-2.33,62.68-1.66-.25-1.65-9.58-1.15-11.14-2.48,16.69.71,27.84-1.54,39.17-.86a2.92,2.92,0,0,0,.06.72c.78.77-2.18.7-4.66.73,2.85,1.07,8.34-.23,6.17-1.46,5.17,0,7.78-.64,14.1-.41-.17.79-3.9.79-7.79.74,4.78,1.52,15.72-.41,23.46-1.16,5.54-.58,1,1.22,4.78,1.06,6.11-.74,39.84-1.06,47.11.19,4-.48,4.88-.76,3-1.81,5.63-.24,8.85.1,9.49,1,6-1.82,15.67-.39,23.55.28,5.56-.06-3.41-1.18,1.51-1.08,4,0,1.93.26,1.61.71,5.88,0,4.64-1.56,12.48-1.12-1.25.9-1.92,1.93-1.34,3.24,3.44-.06.56-1.53,1.41-2.17,6.71-.37,6.12,1,11.06,1-2.39-1.56,7.83-4.06,12.45-1.49-5.4.31-6.65-.38-9.47-.68.23.89,3,1.1.13,1.8,7.5-1,8.11-.17,15.72.3.57-.84,4.33-1.93-.22-3.24,5,.53,11.07.79,15.79,1.39-.11.92-5.21.73-9.37.75-2.75.1,2.44,1.33,3.26,1.79,3.53-.21-1.94-.55,1.51-1.09,3.68.1,5.93.55,11,.32,2.67.71-.1.46.1,1.44,9.85-1.1,5.1-3.56,15.48-3.29-.72-.44-2.06-.73-4.76-.7,17.19-3.09,42.82,1.12,56.43-1.29,5,.77,2.09,1.13,7.87.34,3.15,1.85-3.51,2.47-9.2,3.27-.72-.75,1-1,1.47-1.45-7.6-.25-19.71-1.79-29.83.11,14-.14,23,1.27,34.63,1.32-1.66,1.14-.66,1,1.69,1.79,5.35-.37-4.33-2.06,1.4-2.52,2.41,1,13.11-.72,20.45.65,2.2-.13.09-.63-1.61-.71,2.5-.92,5.75,1.05,11,.68a29.26,29.26,0,0,0-4.75-.7c1-1.08,3.37.33,6.28,0-.08-.35-2-.27-3.17-.35.5-1,8-.35,9.34-1.11,2.49.71,8.2,1.76,11,.32,20.63,1.56,43.19,1.59,64.47,1.57a6.52,6.52,0,0,0,.06,1.08c15-1.41,28.84-.65,43.89-.88-11,2.71-30.14.77-47,1.25C1500.3,115.36,1492.77,116.83,1483,116.27Zm120.71-2.59c-10.4,2.74-31.47.44-47,1.25,10-2.24,34.57-1.08,47-1.25ZM1514.94,55c-5,1.55-11.17.63-20.32,1.15C1498.6,55.22,1508.4,54.13,1514.94,55Zm-166.86,62.88c.54,1-2.08,1.19-6.19,1.1,0-.36-.06-.72-.08-1.08Zm-16-74.11c-3.4,1-11.2,0-15.7.06,2.8-.93,12.29-.3,15.72-.11Zm-1.59,69.49c-4.56,0-3.85-2-1.74-2.51,6,.25,1.25,1.39,1.76,2.46Zm-4.73-.34c-.22.42-2.85.32-4.69.38,1.23-1-2.27-.92-1.7-1.79,4.2-.07,4.1.93,6.41,1.36ZM1320,50.24c-1.2.81-10.43,1.22-9.44-.33C1315.31,49.64,1316.27,50.26,1320,50.24Zm-48.9-3.79c-3.6-.16-8.08-.68-11,0-3.91-.35,11.9-2.21,11,0Zm2.16,78.48c-.75,1.23-7.53.58-11,.4,1.34-1.33,6.29-.28,11-.39Zm-8.67-81.7c.28,1.48-12.28.11-14.06,1.13-5.51-.08,2.73-1.61-1.66-1.43,3.8-.23,10.31.18,15.69.31Zm-18.15,149.48c-.41.74-4.2.72-4.61,1.46-2.46-.15-1.42-1.13-6.32-.7.11-1,6.49-.67,10.9-.75Zm-15.75-.66c-6.83.16-12.62.89-20.37.44,2.32-1.49,15-.49,20.34-.43Zm-4.09,9c-4.07-.76-8.89.36-11-.32-1.09-1.3,13.4-1,11,.34Zm-2.11-7.91c-.81.86-6,1.52-9.36.76,2.29-.51,6.65-1.34,9.33-.74Zm-25.14-.27a36.07,36.07,0,0,1-12.51.76c-.32-.78,5.56-.18,7.82-.39.22-.78-5.58-.15-7.87-.33,4.21-1.08,7.07-.27,12.54,0Zm-51.64,2.34c-1.37,1.78-12.68,0-15.64.78,3.45-1.4,8.93-.18,15.61-.76Zm-6.39-1.42c-1.7.73-12.1.46-14.11.05-.68-.86,7.16.17,4.63-1.1a93.23,93.23,0,0,0,9.46,1.07Zm-9.39-69.45c-12.63,1.57-18.92,1.62-32.81,2.28.59-.7,7.18-.06,4.62-1.46,11.37.19,18.13-.66,28.17-.8Zm-1.49,70.94c-3.15.5-16.56,2.17-20.4.07,5.54.91,13.88,0,20.38,0Zm-8-2.85c-.58.91-5.26,1.67-7.78,1.11,1.34-.63,2.78-1.25,7.72-1.1Zm-7.75,1.47c-5.38.59-15.33.23-23.52.44,3-1.86,15.76.32,15.57-1.86a39,39,0,0,1,6.3.34c-2.65.37-5.46,1.36,1.59,1.09ZM1070.12,46.45c1.69,1.21-4.84.58-7.79.75C1061.13,46,1067.74,45.89,1070.12,46.45Zm5.24,147.24c-12.06.72-28.24.26-47,1.25,1.33,1.54,7.57-.36,11,.68-.47,1.2-9,.6-14.08.77-3.22-1.3,2.15-1.79-.22-3.24C1044.32,193.27,1057.53,192.22,1075.36,193.69Zm-36.39-74c-.12,1.74-9.44,1.44-17.17,1.5,1-1.86,11.2-1.59,17.2-1.54Zm-20.22,3c0,1.8-24.66.13-6.25.38a32.74,32.74,0,0,1,6.25-.42Zm-13.88,73.14c1.35,1.37-7.38.49-10.93.76,2.23-1.08,4.12-.46,10.93-.8Zm-12.62-1c-.49,1-4,1.23-7.75,1.47,1.2-.33,1.62-.82,1.47-1.44Zm-37.4,4.09c-.41.33-5.76,1.23-6.26.38-1.52,0-1.19.44-1.52.73-4.58-.3-1.8-.53-1.67-1.44,4.78-.35,4.66.54,9.45.26Zm-15.72-.3c-1,.32-1.86.65,0,.72.31.78-5.56.18-7.83.39,1.45-.68,2.89-1.34,7.83-1.19Zm-37.44,3.37c-1.3,1.25-6.32-.07-11,.76-1.36-1.43,7.38-.56,10.94-.83Zm-3.88,12.25c-6.12-.38-12.2-.77-11.18-2.84,3.24,1,10.07,1.2,11.17,2.77ZM894,203.76c-2.26.58-10.49,1.21-1.47,1.44-2.06,1.56-10,.2-15.66.41,5.18-1.29,8.18-1.22,17.12-1.91ZM875.4,45.35c-2.7.74,1.21.7-1.48,1.44a201.93,201.93,0,0,0-22-.64C855.18,44.87,867.4,45.58,875.4,45.35Zm8.09,166.31c2,1.54-12.71,1.59-11,0,5.68.34,7.51-.81,11,0ZM879.78,203c0,1.1-10.21.88-12.53.41C871.13,202.76,873.29,203.44,879.78,203Zm-31-157.23c1.53,1.32-8.22.68-9.39.39,1.24-.66,6.78-1,9.35-.36ZM855,206.69c.41,1.07-5.51,1.29-7.79.75,1.25-.52,3.84-.76,7.75-.72Zm-31.18,3c-10.49-.19-18.87,1.35-26.63.81-1.21-1.1,2.63-1.07,1.42-2.17,2.43.65,10.75-.1,9.51,1.41,2.12-1.28,10.11-.09,15.66,0Zm-3.17-.35c-2.7-.59-1.39-2.11,4.57-1.82-4.6,2.17,7-.22,8,1.77-6.48-.29-5.47,0-12.61.07Zm-16.81,6.9c-4.14,1.07-6.07.33-11,0,4.14-1,6.06-.24,11,0ZM694.63,41.67c.47.58-1.46.62-1.49,1.08-5.06.1-6.69-.61-12.58-.31C681.18,41.3,691.29,41.1,694.63,41.67Zm-4.36,167.79c-3.64,1.26-9.91-.14-12.45,1.49-8.06-.22-11.14-1-17.27.06,0-.6-.08-1.2-.13-1.8,8.64.44,19.82-.47,29.86.25ZM668,42.12c-5.7-.56-7.6.09-12.58-.32C655.89,40.62,668.78,40.8,668,42.12Zm-9,168.17c-5,1.82-17.63,1.72-23.51.44-5.9,1.71-11.64,3-23.44,1.52,4-1,15,.24,17.09-2.58,13.06.54,23.62-.07,29.79.63Zm-3.46-4.67c.05,1-8.8.88-11,.4.91-1,4.23-1.43,9.34-1.47-.15.51-.24,1,1.59,1.08ZM641.32,205c-1,1.32-6.27-.05-12.54.4.15-.65-2-.75-1.66-1.44A142.26,142.26,0,0,1,641.32,205ZM615.63,34a43.1,43.1,0,0,1-11,.4C606.15,33,610,34.35,615.63,34ZM626.3,215.09c-.16.8-6.66.18-9.41.39,3.33-.8-.45-.77-4.75-.7C613.94,213.32,621.79,215,626.3,215.09Zm-8.22-5.37c0,.36.06.72.07,1.08h-7.84C609.67,209.74,615.38,210.06,618.08,209.72ZM601.45,33.36c-1.4.63-4.85.81-9.38.76C592.88,33.25,598,32.59,601.45,33.36Zm-4.34,5.42c-.12.68-5.88-.27-7.86-.34,1.63-1.44,6.17-.26,7.86.33Zm-12.47,1.48c-.12.92-5.21.73-9.36.76C574.76,39.86,582.06,39.68,584.64,40.26Zm-15.76-1c1.79.06.89.36,0,.36-.4,1,6.11.26,4.8,1.42-3.78-.13-3.36.67-7.83.39a7.14,7.14,0,0,0-3.18-.71c.13-.95,6.12-.56,6.21-1.49ZM571.42,216c-.29-.42-2.88-.29-4.74-.34-1.54-.67,4.62-1.22-.1-1.44,1.51-.57,6.42,1.14,8,1.77-5.56.14-3.79,1-9.41.4C565.61,215.9,569.08,216.07,571.42,216ZM555.79,31.36c.45,1.18-8.53,1.65-7.84,0A22.44,22.44,0,0,1,555.79,31.36Zm-1.06,7.56c.82,1.13-4.14,1-4.57,1.82-2.13-.23-3-.76-3.24-1.43A39.23,39.23,0,0,1,554.73,38.92Zm-10.17,174.3c-.82.29-1.6.59-1.51,1.09-1.8-.12-4-.62-1.62-.71-1-.36-3.62-.36-3.21-1.07,1.42.22,2.84.43,3.14,0,1.71.07,1.12.69,3.19.69Zm-10.9,1.48c-1.07-1.39-1.41-1.48,1.4-2.53C537.48,212.9,540.17,214.63,533.66,214.7Zm-20-179.59c-.22.42.4.64,1.62.71-3.48.76-3-.76-9.41,0,.53-.61-1.27-.67-3.19-.71,3.08-.87,5.87,1.08,11,0Zm-7.5,167.45c-11.78,1.77-40.55,1.2-51.67,2,4.51-2.29,35.51-1.63,51.66-2ZM489,205.14l.08,1.08c-3.87.06-7.56.08-9.43-.33C479.8,205,484.88,205.16,489,205.14Zm-10.91,1.12c0,.36.05.71.08,1.08-3-.14-6.77-.11-6.36-1.06Zm-7.4,5.74c-.28.41-1.57.2-1.57,0-5.33,1.67-1.28-1-6.33-.7.45-.49,3.91-.31,6.26-.38C468.94,211.48,468.84,212,470.69,212Zm-30.34-7.45c-.23,1.25-8.62.69-12.48,1.13,2-1.62,7.54-.37,12.49-1.09Zm-72-181.92c-2.15.56-8,1.05-11,.4.71-.78,7.81-.14,11-.36ZM224.93,199.24c-13-2.44-4.34-4,13.89-3.65-1.37-.53-5.08-.5-7.89-.69-.84-1.14,7.17-.3,7.77-1.11,2.13.11,1.37.9,1.66,1.43,15.23-.42,16.35-.6,32.92-.84,2.18,1.36,8,0,11.09,1.4,4.25-.34-4.83-.79-.1-1.44,11,.25,10,1.24,22,.64.19-1-10.24.47-7.92-1a97.61,97.61,0,0,0,18.8-.43c.55.84-.17,1.38-1.44,1.8,4.14.09,5.12-.52,4.61-1.46,7.94-.41,9.69.63,12.65,1.39-8.16,2.71-36.56,0-47,2-18.75-.85-35.59-.54-55-.89.28.66,5.33.2,6.32.7-.16,1.12-9.54.73-9.43-.33C223.52,197.45,223.23,197.75,224.93,199.24Zm86.4-185c-1.07.8-7.3,1.23-9.38.75,1.4-.65,4.87-.82,9.38-.77Zm-4.89-2.5c1.33,1.38-7.42,1.42-6.27,0Zm1.8,26.64c-2.89.66-17.13.9-14.2-1,5,.91,8.78.75,14.2,1ZM300.39,15c-8.68,1.69-23-.1-31.37.47,2.66-.47,4.18-1.2,4.57-2.17,7.93,0,13.87,1.36,20.44.65C295.43,14.45,295.38,15.32,300.39,15Zm2.45,175.69c-1.11.82-8.79.17-12.53.41,2.69-1.79,6.07-.52,12.53-.42ZM288.77,29.07c-1.19.33-1.62.82-1.46,1.45-4.83.29-3.09-1-7.91-.69C279.52,28.9,284.62,29.09,288.77,29.07Zm-4.47,3.25a6.52,6.52,0,0,0,.06,1.08c-7.61.87-11.69-.22-20.44-.65C270.23,31.85,276.71,33.07,284.3,32.32Zm-20.36.79c-13.14,1.13-23.71-1-39.24.14,1.51-.89.47-.77,1.43-2.16,7.36,1.13,22.5,1.8,25.12.27,2.78.08,3.62.61,3.25,1.43,4.55-.33,1.72-.55,1.47-1.45,4.54.15,3.8,1.54,8,1.78Zm5.74,154.44c.26,1.62-4.75-.14-9.4.39,2.14-.89,5.37-.65,9.39-.38Zm-16.37-10c-17.49,1.64-45.17.67-62.76.58-3.92.38,1.37,1.59,4.8,1.42-1.52,1-6.66-.08-9.41,0-.23-.65,1.86-.77,1.47-1.45-.73-.8-7.74-.12-11-.32,21.14-3.56,43-1,75.25-1.34-.1.56-.19,1,1.64,1.09Zm-1.74,20.89c-1.53.61-6.63.42-9.36.75.17-.64-2-.75-1.66-1.43,6.22-.4,4.78,1,11,.66Zm-30.12-167c-.06,1.4-6.73,1.34-12.45,1.48-.24-.64,1.86-.77,1.47-1.44,3.53.85,6.1-.12,11,0Zm-4.66,163.12c-.45.85-2.39,1.36-1.41,2.53-8.7-.24-12.49-1-22.08-1.72,5.13-1.57,13.94-.17,23.48-.79Zm-48.21,6.65h7.84c-25.47,1.21-60,1.85-91,.33-1.7.1-1,.72-3.09.73-3.66-.11-6.51-.41-9.46-.69.28-1.12,7.77-.63,12.52-.76.09-.51.18-1-1.65-1.08,15.33-.79,42.78.08,65.79-2,5.12.37,9.94.82,12.67,1.75,4.57-.32-1-1.15-.12-1.8,4-.29,7.31,1.38,9.43.33,4.6.3,1.81.53,1.67,1.43,7.9-.57,13.68-1,18.8-.79,1.53-1.21-4.92-.54-7.91-.69,4.84-1.28,16-.83,20.41-.07,1.26,1.37-7.19,2.39,1.74,2.51-6.83,1.28-24.95-1.12-28.22.46,11.94.83,33-.51,39.35,1.66-16.65,1.63-30.77-.41-48.65.17-.07-.5-.1-1-.13-1.46Zm43-13.83c0,1-3.47,1.74-6.19,1.1-.57-.92,3.2-.91,6.19-1.08ZM196,189.62c.3-.29,1.56-.36,1.52-.72-20,0-22.1.54-39.15,1.22-6.54-3.7,29.94-2.94,39-3.38C204.05,187.67,205.37,189.13,196,189.62Zm-9,5.44c-1,.84-5.15,1-6.14,1.82-2.18-1.07-13.46,0-14.23-1.39,6.91,1,12.25-1.2,20.37-.44Zm-60.67-15.27c-.08-.35-2-.27-3.17-.35.32-.52,4.67-.14,4.66-.74-1.72-.81-9.89-.11-14.15-.31,6.53-1.7,22.58-1.24,28.09-2.26,2.46.76,1.23,2,.15,2.16,1.49,1.21,3.51,0,6.34.7,4.36-.48-5-.73-3.27-1.79,12.1-.07,14.8.39,20.36-.79,5,.52-.22.59,9.44.33,1,2.5-10,.55-14,1.49,5.35,1.5,20.33-1.42,20.46,1-19.59-.32-44.09,2.42-65.92-.12,3.24-.74,5.13.89,11,.67ZM166.44,193c5.51.08-3.86,1.36,1.66,1.44-1.47,1.11-5.3-.14-6.3-.33C161.25,193.23,166.3,193.64,166.44,193Zm-6.19,1.47c-11.53.91-37.95.42-31.47-1.33,7.94,1.45,18.59-.14,31.46,1.29Zm-28.62-28.71c2.48.12-1.32.64,1.62.72-3,1.63-13.33.12-18.83.06,1.8-1.92,14.13.32,17.2-.82Zm-15.7.06h-7.84c1-.32,1.85-.65,0-.72.31-.52,4.67-.14,4.66-.74,2.71.07,3.57.64,3.17,1.42Zm8.24,28.78c-10.32,1-33.45.06-51.74.91,10.72-2.84,28.83-.88,45.41-1.6-1.51,1,3.52.57,6.32.64ZM68.69,163.42c-3.64-.65-13.32.61-15.78-1-3.37.31-5.29,1-10.93.76-.93-.74-4.56-1.15-1.7-1.79,3.62-.12,1.83,1,4.79,1.06,3.64-.12,3.59-1-.08-1.08,16-.71,23.71-.83,37.67-.13-3.48.34-7.15,1.56-10.93.76,0,2.23,7.36.93,11,.32.43.44,6.07,1.42,3.23,1.43.29,1.14-7.79,0-12.51.77,4.34,1,18-.27,20.43.29-1.08-.87-3.3-1.84,3-1.81-.77,2.5,7.15,2.94,15.92,3.18-1.2.32-1.64.82-1.47,1.45-17.07-1.19-52.19,1.38-75.31.63-.24-.64,1.88-.76,1.47-1.45-5,.19-5.44,1.39-10.88,1.48,0-.48-.06-1-.1-1.44-2.81,0-3.28.45-6.24.38-3.54.22,1.94.56-1.5,1.09H10.91c.23-.42-.4-.64-1.61-.71,2.93-.77,4.14-1.91,10.86-1.84-1.24-.31-1.74-.8-1.66-1.43,3.72.7,8.79-.7,12.58.32,2.08-.24,2.87-.78,3-1.45C47.09,163.57,54.58,163.75,68.69,163.42Zm-3.93,34.94c-1.41-1.15,2.41-1.12,3-1.81,8.89.4,11,.13,20.44.29-9-1.7,19.63-1.24,22-.08-14.82,1.57-35.2-.24-45.45,1.61Zm6.39,1.41c-.36.84-6.89.23-7.84,0,1.14-1.23,5.44-.39,7.83,0Zm-9.63-3.2c1.17,1.33-2.39,1.6-7.75,1.47-1.21-1,3.07-.74,3-1.45-12.59-1-25.34.13-30-2.41,11,.53,15.16-.35,23.48-1.17,2.11.35,3.14,1,6.34,1.06-2.3.85-3.79.56-7.82.39,1.48,1.37,5.76,2.06,12.74,2.12Zm-50.2.54c-1.18.83-9.69.38-7.89-.69A32.58,32.58,0,0,1,9.67,196c-.11.56-.2,1.06,1.64,1.12ZM-36,9c-3.77,1.48-8-.29-14.15-.31-.77-1,8.58.25,7.8-.75C-38.17,7.8-41,9.31-36,9Zm-49.93,4.5c-9,.56-17.81-.81-26.63.82-5.54.1-3.22-1.68-9.5-1.4-1.55-.67,4.61-1.22-.1-1.44,7.87-1,13.11-.94,21.89-1.16,2.06.47,2.11,1.32.13,1.8,5,.38,11,.56,14.26,1.36Zm-16.39,175.4c-.14.79-6.64.18-9.39.39,0-1,7.4-.9,9.44-.41Zm-5.81,6.86c-.63.81-7.73.17-11,.4.6-2.07,5.07-.16,11-.42ZM-168,191.63c4.66.61-3.46,1.32-7.78,1.11C-177.43,191-168.12,192.19-168,191.63Zm-59.36-158.2c-5,.52-12.19.49-9.3,1.83-11.75.46-16.32-3.94-6.64-5.38,6.3.95,15.75,1.12,15.93,3.55Zm-49.91,120.79c.79,1.13-3.27,1.16-7.79,1.11.17-.65-2-.75-1.66-1.43a54.14,54.14,0,0,1,9.44.32Zm-111.53-117c1.38,1.73-5.94,1.51-9.26,2.19-.55,2.85,5.62,3.6-1.21,5.41-5.91.18-7.41-.68-11-1-1.69-3.09-.91-3.1,2.75-5.77,4.18-.37,12.3.14,10.9-1.48,2,.34,5.73.31,7.81.67Zm-6.2,71.33c-.62.8-8.32.31-9.42,0,1-.49,3.3-.68,6.22-.74C-398.7,108.46-396.9,108.51-395,108.55Zm-23.38-66.88c-2.79,0-3.33-.43-6.28-.34-1.38-1,2.15-.94,1.44-1.8,2.06.61,5.4.91,4.88,2.13Zm1.7,117.73c1.18,1.35-11.83.92-9.43-.33,3.18-.78,6.24.07,9.47.32Zm-64.73-5.53h-3.14c.2-1.18-3.81-1.72,3-1.81-.81,1.16,3.06,1.11.17,1.8Z"/><path class="cls-2" d="M1156.22,42.9c7.36.79,16.62,0,25.09-.45-1.25,1.68,4-.51,4.75.7-3.51,1.39-24.15-.29-29.72,1.54.52.49,4,.29,6.31.34,1.94.87-13.36.18-12.61-1C1156.16,44,1159.13,44.18,1156.22,42.9Z"/><path class="cls-2" d="M1682.37,47.15c-13.08,1.61-35.6-.67-47,2-1.29-.91-7.84-.58-8-1.77,15.58.89,21.38-1.18,33,.24C1665.14,46.27,1676.75,47.13,1682.37,47.15Z"/><path class="cls-2" d="M1621.26,48.81c2.53.9-7.43-.68-12.57-.32,1.89-1,8.43-1,14-1.13C1620.78,47.87,1615.13,48.41,1621.26,48.81Z"/><path class="cls-2" d="M1572.22,43.22c-1.77.08-.86.37,0,.36-3.56.86-14.79,0-18.79.79-.13-.2,21.29-3,21.92-.8C1573.58,43.64,1572.59,43.5,1572.22,43.22Z"/><path class="cls-2" d="M1550.2,42.59c2-.93-8.66-1.46-12.71-2.12.51,1.08-16.36.63-28.19.82,5.61-1.13,35.34-2.14,39.25.22,8.62.23,9.41,0,17.29.3-10.77,1.39-34.74,1.33-45.43,1.24C1523,41.92,1542.33,42.78,1550.2,42.59Z"/><path class="cls-2" d="M1503.15,43.11q-3.15-.69-6.35-1.06c.45-.49,3.91-.31,6.26-.38-2.22.53-1.12,1.14,3.21,1.07-3.76.46-3.47,1.83-9.3,1.83C1494.87,43.16,1501.21,43.62,1503.15,43.11Z"/><path class="cls-2" d="M1484.51,46.06c-3.63,1-8.92-.33-12.53.41C1473.19,45.17,1481.19,46.05,1484.51,46.06Z"/><path class="cls-2" d="M1197.77,30.51c-2.87.42-14.25-.27-20.42-.29C1181.8,29.44,1192.39,30.31,1197.77,30.51Z"/><path class="cls-2" d="M1113,31.18c-4.33,1.19-9.77.33-15.7.06C1099.22,30.58,1107,31.6,1113,31.18Z"/><path class="cls-2" d="M938.65,28.92h3.14c-.28.3.63.34,1.6.36-4.22.48-7,1.28-12.47,1.48C930.44,29.57,937.62,30.45,938.65,28.92Z"/><path class="cls-2" d="M879.1,30.57c2.87-.93,15.32.71,7.8-.74a227.22,227.22,0,0,0,37.71.58c-10.56,0-11.41-.89-17.36-1.38C917.87,28,924,30.54,930.8,28.94c-2.47-.08-1.15-.78-.08-1.08-4.16,0-9.23.24-9.48-.68,1.71-.68,13,.81,14.08-.77-39.49.62-70.67.36-109.86.39,2.47.51,7.36.46,9.49,1-1.23.09-3.1,0-3.12.37,1.21.08,3.09,0,3.17.35-5.79-.32-14.67.49-10.91,1.12,2.55-1.2,9.59-.39,14.13-.05,3.9-.69-3.42-1.86,3-2.17,10.06,1.24,26.41-1.17,31.46,1-5.53,1-22.54-1.14-26.58,1.54,8.94,0,19.79-.9,26.73.62,1.51-.37,3-.74,4.64-1.09C883.28,30.11,876.2,30.16,879.1,30.57ZM905.68,29c.52,1.15-6.78,1.33-9.36.75C897.73,29.15,901.17,29,905.68,29Z"/><path class="cls-2" d="M930.26,44.07c-.15.8-6.65.18-9.4.39.95-.32,1.85-.65-.05-.72C921.66,43,926.77,44.24,930.26,44.07Z"/><path class="cls-2" d="M827.78,37.59c-4.85.59-13.5,1.78-20.35.79C812.43,37.72,821.65,38,827.78,37.59Z"/><path class="cls-2" d="M816.64,35.47c2.15.11,1.37.9,1.67,1.44-4.16-.12-13.79,1.43-12.61-.68C810.75,36.47,816.81,37.61,816.64,35.47Z"/><path class="cls-2" d="M756.45,27.41c-.23.42.38.64,1.62.71-5.44,1.09-11.94.4-17.29-.3C744.47,27.06,750.48,28.06,756.45,27.41Z"/><path class="cls-2" d="M732,37.21c2.8-.05,3.33.43,6.3.33-3.51,1.32-5.88.77-12.49,1.13C721.87,38.22,734.06,38.42,732,37.21Z"/><path class="cls-2" d="M689.51,35.56c-6.26,1.16-19.19,0-26.59,1.54C667.44,35.06,680.57,35.89,689.51,35.56Z"/><path class="cls-2" d="M672.09,33.47c.54-.62-1.27-.68-3.17-.71.37-.84,4.13-.84,6.23-.38.5.77-6.53,2.6-6.19,1.1Z"/><path class="cls-2" d="M601,27.24c-1.75,1.5-7.79,0-12.56,0C590,26.47,595.73,27.73,601,27.24Z"/></svg>