<svg id="Layer_1" data-name="Layer 1" xmlns="http://www.w3.org/2000/svg" viewBox="0 0 1920 50"><defs><style>.cls-1{fill:none;}.cls-2{fill:#110c02;fill-rule:evenodd;}</style></defs><title>grunge_border</title><rect class="cls-1" x="-1618" y="-15.85" width="4015" height="175.7"/><path class="cls-2" d="M26.39,26.43c2.55-.48-.17-.31-.09-1,2.35.28,7,.19,6.36.95Z"/><path class="cls-2" d="M50.1,28.05c.63.41-1.17.46-3.09.49-.23.28.4.42,1.62.48C43.36,29.87,43,27.88,50.1,28.05Z"/><path class="cls-2" d="M47.31,16.06c8.81-.67,11.36.5,20.37-.29C68.13,17,49.66,16.6,47.31,16.06Z"/><path class="cls-2" d="M59.56,28.51c1.07-.71,5.82-.87,9.29-1.23-.93.23-3.56.89,1.65.72.88.34-6.05.6-1.5.72C63.76,29.68,65.45,27.66,59.56,28.51Z"/><path class="cls-2" d="M59.27,25.63c3.19-1.19,16.53-.09,22-.05C72.22,26.36,68.13,25,59.27,25.63Z"/><path class="cls-2" d="M111.7,16.39c-1.84,0-1.37-.44-1.63-.72,5,.17,10.36-.8,7.75-1,7.52-.59,14.59.16,23.52-.29-1.22.22-1.63.55-1.48,1C127,14.41,122.58,16,111.7,16.39Z"/><path class="cls-2" d="M125.28,26.44c3.81-.5,16.63-.74,11,.45C134.21,26,129.3,27,125.28,26.44Z"/><path class="cls-2" d="M138,13c-2.48-.73,10.17-.76,7.84,0Z"/><path class="cls-2" d="M142.5,25.92c-2.54-.39,12.32-.21,15.65-.52C156.27,26.5,149.25,25.94,142.5,25.92Z"/><path class="cls-2" d="M144.14,26.63A194.78,194.78,0,0,1,172.53,28C165.63,28.58,155.12,26.87,144.14,26.63Z"/><path class="cls-2" d="M144.54,15.11c1.2-1.38,9.16.84,9.36-.5,2.15.07,1.37.6,1.67,1C149.81,15.29,148.49,15.24,144.54,15.11Z"/><path class="cls-2" d="M151.69,23.73c-.32-.52,5.56-.12,7.82-.26-1,.74-1,.46.12,1.2C156,24.52,155.35,23.89,151.69,23.73Z"/><path class="cls-2" d="M160.93,22c1.55-.6,6.18-1.2,7.82-.5A35.24,35.24,0,0,1,160.93,22Z"/><path class="cls-2" d="M176.8,23.67c4.34-.55,15-1.28,18.79-.52-2.76.5-5.8.08-3.05,1C189.9,23.56,183.33,23.62,176.8,23.67Z"/><path class="cls-2" d="M220.79,24c-2.78-1.27,28.71-1.17,23.6.42-1.85,0-1.38-.43-1.65-.71C236.56,24.26,227.28,23.32,220.79,24Z"/><path class="cls-2" d="M305.34,21.93c.63-.54,7.73-.12,11-.27C314.66,22.27,310,22.19,305.34,21.93Z"/><path class="cls-2" d="M418.24,20.7c1.28-.52,3.78-.86,9.34-.75C426.74,20.54,421.72,20.5,418.24,20.7Z"/><path class="cls-2" d="M513.9,19.75c2-.88,13.42.09,20.41,0,.56.63-8.83-.2-6.22.73C524,19.58,521.32,20,513.9,19.75Z"/><path class="cls-2" d="M764.1,10.28c.36-.5,6.88-.08,7.8-.5a43.33,43.33,0,0,0-4.76-.47c2.71-.72,8.38.12,6.37.95C768.07,10.07,766.94,10.72,764.1,10.28Z"/><path class="cls-2" d="M1073.41,11c.54-.62,7.12-.53,14.05-.75-.54.41,1.26.45,3.18.47C1086.92,11.13,1079.29,10.47,1073.41,11Z"/><path class="cls-2" d="M1235.06,10.6c1-.48,4.13-.65,7.78-.74C1244.92,10.8,1239.21,10.59,1235.06,10.6Z"/><path class="cls-2" d="M1382.36,8.09c.88-.23,4.33-.37,1.52-.48,6.8-.69,17.41-.45,25.11-.06C1399.72,7.83,1393.92,7.82,1382.36,8.09Z"/><path class="cls-2" d="M1385.82,11.2c3.08-.64,9-.87,12.42-1.47C1396.87,11.11,1393.11,11.07,1385.82,11.2Z"/><path class="cls-2" d="M1410.75,9.46c-.28-.28-2.87-.19-4.73-.23,1.72-.69,9-.56,10.86-1.23,2.68.15,1,.55-1.51.48,1.46.85.26.59,1.7,1.44-5.71.1-9.73.45-14.05.76-2.34-.2-3.44-.6-3.24-1.2C1404.26,8.68,1407.61,10.06,1410.75,9.46Z"/><path class="cls-2" d="M1418.38,7.29c2-.92,7.28-.31,10.93-.51,5.88-.33-1.71-1.36,6.28,0C1429.13,7.36,1425.58,7,1418.38,7.29Z"/><path class="cls-2" d="M1467,7.17c-1.46-.31,12-.42,17.21-.52A168.22,168.22,0,0,1,1467,7.17Z"/><path class="cls-2" d="M1498.59,8.78c3,.44,3.95,0,7.86,0C1508.07,9.72,1497.14,9.75,1498.59,8.78Z"/><path class="cls-2" d="M1514.7,12.82c2.68-.42,4.11,0,9.39-.26C1525.62,13.44,1515.86,13,1514.7,12.82Z"/><path class="cls-2" d="M1551.81,38.18l-.08-.72c3.85-.58,9.25,0,14.13,0C1560.81,37.62,1558.17,38.17,1551.81,38.18Z"/><path class="cls-2" d="M1612.14,29.39c.33-.42,2.64-.55,6.23-.5-.24.28.38.43,1.61.48C1619.65,29.94,1613.11,29.53,1612.14,29.39Z"/><path class="cls-2" d="M1616.72,28.18c2.64-.38,5.74.07,11-.27,1,.86-4.56.74-9.34.74C1618.57,28.38,1617.95,28.23,1616.72,28.18Z"/><path class="cls-2" d="M1634.86,21.18c4.92-.49,7.36-.46,14-1a10.28,10.28,0,0,0,3.19.47c.66.57-7.17-.12-4.65.73C1642.67,21.08,1641.95,21.33,1634.86,21.18Z"/><path class="cls-2" d="M1692.41,47c-.7-1.31,10.47,0,15.61-.76.63-1.09-7.4-.64-11-.45,1.76-1.84,16.31.85,15.58-1.24,3.77.13,7.19.33,12.57.21,1.58.87-6.14.35-9.36.5,5.92.92-5.2.84,1.76,1.92C1709.15,46.69,1702.52,46.66,1692.41,47Z"/><path class="cls-2" d="M1837.22,35.34c4.34-.66,1.18-.6-.15-1.44,2.82,0,3.28-.3,6.26-.25C1840.65,34.11,1844.93,35.62,1837.22,35.34Z"/><path class="cls-2" d="M1849.94,21.63c2.77-.5,9.25-.72,7.91.46C1853,22.28,1854.77,21.44,1849.94,21.63Z"/><path class="cls-2" d="M1896.53,16.47c-.91-.86,14-.58,15.67-.28,3.78-.15,3.39-.91,4.55-1.45,4.16.48,5.44,1.42,8.07,2.14-2.81.42-18,.19-14.17-.44C1905.59,16.5,1901.31,16.75,1896.53,16.47Z"/><path class="cls-2" d="M-935.65,106c13.89.42,32.44.76,42.41.38,5.62,1.78,31.95-.56,34.76,2.08,6.33.07,2.29-1.4,9.29-1.22,5,.35,8.81.89,14.26,1.17,4.37-.8,13.74-.44,15.75.44-2.08,0-1.41.42-3.11.49-6-.76-21.9-.5-28.24.07,11.39,0,26,.53,36.08-.08-1.84,0-4.43,0-4.73-.23,4.6.05,4.76-.55,9.38-.5,1,.52-4.37.77,1.63.71a43.26,43.26,0,0,1,6.21-.73,324.84,324.84,0,0,0,36.15.39c14.4,2,44.48-.68,47.34,2.53a284.86,284.86,0,0,1,37.72.39c3,0,1-.8,4.64-.73,12.67,1.42,31.79-.72,47.08-.11-.9,1-15.74-.19-10.9,1,22.28-1,40.7.91,58.18.82-.52.56-6.86.25-6.2,1,4.88-.07,15.51.34,22-.05.54.32,2.29.45,1.67,1,11.58-.59,21.69.44,34.62.88,2.1-.55-4.13-.89-.1-1l9.41,0c-2,.33-2,.9,1.67,1,13.39-.44,30,.16,42.3-.82-4.62.9,4.09.21,4.73.23.24,0-.21.47,0,.48,24,1.08,72.1-1.34,83.2,0-2.71-.55,6.82-1.55,12.49-.75,1.2.65-3.07.49-3.05,1,38-.52,79.68-.06,124-.29-1.22-.05-3.1,0-3.16-.23,20.8.27,29.65.92,47.13.37,15.7.37,45,0,53.38.11-1.41-.14-9-.48-4.78-.71,16.95,1.52,31.47,1.45,55.06,1.31,1.89,1.14,18.84,1.13,18.84,0-5.1-.12-7.89.09-9.36.5-2-.33-8.29,0-6.39-.95,8,0,33-.32,20.49.67,24.24-.92,31.82.83,53.38.11,4.1,2.31,33.35.33,31.54,1.61a90.73,90.73,0,0,1,20.47.43c-13.51.65-22.93.22-31.32.79,5.2-.09,9.66-.06,11,.45a95.5,95.5,0,0,1,20.41,0c-.36-1.07,6.34-.16,7.83,0,1.86-.78-5.1-.17-3.23-1a315.46,315.46,0,0,1,33,.64,28.62,28.62,0,0,0-6.23.5c8.72-.37,18.7.89,20.36-.53-3.27-.13-10.28.32-11-.21a217.14,217.14,0,0,1,26.73.42c-2.07,0-11.37,0-6.26.26,7.32.22,9.44-.33,14.08-.51,16,1.71,27.37,1.07,44.12,1.57,2.07-.87,11.52-.66,18.75-.76,0,.33.79.53,1.65.72.52.63-6.08.2-4.62,1,6.39.05,20.59-.37,29.9.65,3.9-.5,22.8-1.1,25.15.42-10.95.24-20.55.54-26.67.06-1.63.81-32.38-.38-29.72,1a18.6,18.6,0,0,0-6.35-.7c-2.24.38-7.06.74-10.84,1.46.61-1.72-9.32.83-11-.69-5.07-.2-3.19.63-6.22.73-4.24-.22-6.17-.81-11.07-.93-35.53,1.92-76.14-.14-111.41.51,7.93.21,17.9.1,22.07.91-2.75.07-7.89-.66-9.41,0,2.77.21,7.84.07,9.46.46-8.44.43-14.2-.83-17.3-.44,9,.1-.33.9.09,1,3.1.4,7.82-.26,12.63.69.31-.45-1.81-.52-1.67-1,3.22.06,3.14.64,6.36.71,21.62-2.5,55.85-.31,81.47-1.64,1.46,1.23,6.92.57,6.27,0a52.19,52.19,0,0,1,11.13,1.42c6.37-1.63,25.62.1,34.44-1,9.75,1.43,31.59-.28,42.37-.1-1.23,0-1.84-.2-1.61-.48,5.54-.12,8.89-.39,12.57.21-3.64.59-3-.35-7.87-.22,11.43,1.69,29.35.31,45.61.85,2.4-.36,6.06-.52,9.33-.74,3,.67,11.72.43,18.9.44,1.12-.7,3.74-1.18,10.88-1-8.2-1.64-23-1.17-33.06-.88,5.41-.92-3.3-1.07,3-1.69,4.61,1.32,29.58.32,36.17.63-3-.09-6.77-.07-6.35-.7,4.73,0,13.37-.68,17.26,0-7.88-.15-6,.86-11,0a67.18,67.18,0,0,0,12.72,1.65c1.1-.74-5.42-.28-3.26-1.19,1.59,0,1.86-.2,3.12-.25,2.2.66,17.17.22,12.66,1.17,11.39-.42,28.4-.26,33.09,1.12,19-.6,34-1.33,53.29-.85.31.36-.47.88,1.67,1,1.19-.53,5.41-.61,7.74-1,.55.83,4.24,0,4.76.47-2.21.07-1.75.53-3.07.73a60.05,60.05,0,0,1,7.86.22c1.11-.74-5.43-.28-3.26-1.19,3.91,0,4.83-.39,7.8-.5,6.14.88,15.55-.71,26.71.18-.47.32-2.2.46-1.48,1,5.76-.09,5.44-1.08,10.87-1.23-.34.35-2.54.41-3.08.73,7.68-1.76,26.44.13,31.42.17-1.71-.05-3.81-.38-1.62-.48,25.39.4,47.08-.17,70.64-.17.18.27-2.25.38,0,.48,10.64-.23,64.82-3,54.94-.13,1.21.05,3.09,0,3.15.23-1.84,0-4.45,0-4.67.25,4.88.37,13.81-.38,20.35-.53a41.61,41.61,0,0,0,4.8.95c11.5-1.71,19.59.89,31.41.17.54.63-6.07.2-4.6,1,15.94-2,43.26-.38,65.81-1.12.56.64-8.81-.2-6.21.74,16.27-.7,47,.06,67.44-.64-4.73.74,5.82.32,6.37.95-13.66,1.64-28.51.21-46.94,1.55.89.35-1.7,1.25,1.7,1.2,4.87-2.24,24.47-.95,37.49-1.77.72.38,5,.19,3.24,1,12.07-1.42,36.19-1.13,54.9-.37,4.56-1.06,15.38.13,23.49-.53-3.37.37-2.37,1.38-7.7,1.46-1.89-.63,4.74-1-1.66-1-1.89,1.77-22.35.63-26.56,1.26,4,.05-2.12.42.09,1,6.68-.68,12.81,0,18.75-.76,3.56.72,16.69,1.41,9.41,0,5.49,1.38,18,.24,23.71,1.38-17.1-.15-23.26,1-36,1,7.47.82,11.65.35,18.88.44.1.33-.69.53-1.49.72,22.74.08,37.87-.2,55.08,1.31.21-.28-.35-.68,1.49-.72,10.16,1,28.87.5,39.29.38-1.93,0-3.73-.06-3.19-.47,6.87,0,15-.26,15.76.68,3.61-.1,1.39-1.05,6.18-1,4.9.52,7.15,1.47,12.75,1.89-5-.93,21.13-1.47,14.15.21,9.81.13,15.08-.59,22,.67a83.91,83.91,0,0,1,9.29-1.22c-1.26-2.3,2-2.57,1.14-4.32-8.31.53-14.41.83-17.34-.68-1.68.64-14.29.64-17.26,0-10.56,1.54-25.44-.48-42.39-.14.78-1.16-5.26-.27-8-1.18,5.66-.11,10.49-.34,15.65-.52-2.18.75.35.93,3.28,1.43,2.11-.71,10.13-.55,12.56,0,1.76-1-6.65-.41-7.93-.94,6-.36,13.35-.54,18.72-1,3.14,1.33,14.74,1.23,22,.67,3.17.55,3.17.63.13,1.2a294.54,294.54,0,0,1,42.39.14c4-1.76,16.86.51,22-.05a18.22,18.22,0,0,1-4.78-.71c4.83.16,4.57-.42,9.39-.26-.27.94,5.93.85,9.54,1.17,1.46-.45-4.78-.79-.11-1,13.28.23,18.31.41,28.24-.31,1.44.78.19,1.47,9.57,1.42-.17-.42.27-.75,1.47-1-3.93-.3-6.45.72-7.84,0,9.12-.49,15.86,1.06,23.49-.54,2.31.2,6.09.17,4.8.95-3-.09-1.33-.92-6.35-.7,2,1.11-6,1.14-10.88,1.22,10.22.08,16.55,2.66,20.52.91,15.59.54,26.17,1.51,42.6,2.3-.33.34-2.53.41-3.05.73,8.31.48,13.13-1.26,14.15.21-7.66,0-16.86-.14-20.36.53a30.09,30.09,0,0,1,6.34.46c-7-.55-1.37.93-14.08.51,1.35.91-4.52.75-4.57,1.45,3.79.37,10.47.3,12.66.93-12.14.73-19.66.57-26.73-.42,2.27-.14,8.14.26,7.83-.26-8.66.15,5.43-.86-3.22-.71-4.57,1-10.14,1-15.54,1.48,3.08-1-7.08.66-9.49-.7-2.68.24-3.08.8-6.18,1-12.32-1.5-36.12-1.25-48.83-1.56,2.36.28,7,.19,6.38.94-1.57,0-1.85.2-3.11.25-4.94-1.06-15.33.16-17.39-1.16-8.07,0-7.74.26-12.57-.21-1.36.53.94,1.12-7.75,1,.41-.49,4.19-.48,4.61-1-12.38-.07-34.71.88-42.43-.38-20.08,3.74-52.64-1.35-68.92,1.37-.05-.32-2.77-.21-3.18-.47q6.13.2,4.64-.73c-8,.09-7.7,0-18.89-.44,2.47,1.32,14.62,1.11,19.06,2.12-3.32.45-11.48.19-17.24.28,2.1.69,16.2.68,20.48.67a4.93,4.93,0,0,1,3.07-.73c2.18,0,4.11.66,6.36.71,10.5.21,25.71-1,31.42.41-5.56-.12-8.07.22-9.34.74,26.2-.59,42.41.08,72.18-.17,0,.24-1.23.29-1.51.48,10.16-.56,21.48.31,32.88-.8-.34.35-2.55.41-3.07.73,6.55-.21,11.83-.61,17.17-1-3.26.58,5.31.78,6.41,1.42-.33-.52,1.21-.76,4.65-.73,3.5.34-1.93.59,1.63.72,8-.3,17.21-.45,23.45-1,.13.44-8,.83-3,1.21,9.75-1.27,36.29.41,45.59.61-4.66-.28,4.81-.78,6.25-.26,2-.6-6.27-.73-1.65-1,2.2.94,12.48.23,14.19.68,2.53.85-5.31.16-4.64.73,6.42.53,13.82.91,22.09,1.15-14.63,1.08-43.77-.74-64.24,1.11,1.38.56,6.86-.22,9.39-.26,1.19,1.58,5.45.12,9.49.7-3.77,1.95-16.86-.09-23.5.54,1.92,0,3.73.06,3.19.47-1.57,0-1.84.2-3.12.25-9.82-.13-27.27-1-28.22.31-7.69-.1-13.83-1.71-20.53-1.15,8.17.42,15.76.93,19.06,2.12-.1.33-11.28.17-6.23.49,11.34-.8,15.63-.68,26.61-.78-1.2-.38-7.68.07-6.35-.7,4.75.06,12.17-.29,12.61.45-4.52.4,2.48,1.25,3.19.71-4.27-.21,1.24-.88,3.05-1,.33.35,3.82.21,6.31.22-.08.42.42.75,1.66,1,4.87,0,7.47-.31,10.93-.5,20.22,1.28,48.22-1.37,67.44-.64-1,0-1.87,0-1.55.24,3.26-1.06,13-.26,12.45-1,1.8.22,10.41.6,11,.21-1-.41-7.45,0-7.89-.46a9.27,9.27,0,0,1,3.08-.49c4.18.64,4.85.31,9.43,0q2.34.36,4.77.71c9.75-.38,14-.31,23.5-.53.1.33-.68.53-1.48.72a53.18,53.18,0,0,1,11,.22,97.09,97.09,0,0,0-10.86,1.22c6.85-.4,17.95-.18,20.27-1.25-2.81-.13-6.44.72-7.84,0,4.8-.23,9-.56,12.47-1-.17.43,1.61.55,4.73.46-3.4.61,1.95,1.32,4.9,1.67.95-.88-3.5-.91-3.32-1.67,7.31.19,1.61-.38,4.68-.49,8-.12,9,.85,15.79.92-1.78.76-8.06.86-10.84,1.46,8.85.13,9.58-.94,17.16-1-.12.6-2.91.76,1.67,1,9.77-1.5,29.92-1.06,42.25-1.3-2.15-.58-4.69.44-6.3-.22.37-.34,3.41-.28,4.66-.49.92.58,6.12.5,4.85,1.43,8.74-.87,18.37-.17,29.76-.55,1.49.35,4,1.78,8,.94-1.93,0-3.73-.06-3.19-.48,6.59-.24,11.23-.26,21.95-.29,1.19,1.68,14.08,1.52,20.65,2.35,3.44-.35-2-.58,1.5-.72,16.18,1.14,26,1,47.25,1.57-10.23.41,9.86.3,3.23,1,6.88-.53,19.33-.93,23.49-.54-2.52.18-2.66-1.13-.09-1,3.23.42.52.89,6.31.47-.84.87.72,1.35,4.87,1.43,2.16-.15.14-.92,3-1,4.89.37,6.12.19,9.46.46a16.52,16.52,0,0,0-4.64.73c5.2-.18,2.58.49,1.64.72a125.35,125.35,0,0,1,12.66.93c-.15-1.18-4.15-1.76-.27-2.64-5-.11-4.45-1.09-6.43-1.67,23.14-.18,53.94.68,74,2.46-3,.78-2.86,1.49,1.79,2.16,9-4.56,39.55.6,59.52-1.34,2.06-1.34-1.47-1.47-1.87-2.88,12.36.18,15-1.08,20.21-2,9.27-.45,13.27-.23,23.49-.54.21.29.52.57,3.18.47,4.25-.23-4.22-.44-1.69-1.2,10.68-.18,13.08-2.47,23.34-2-3.23-1.3-.13-2.1,1.3-2.64.06.31,4.39.29,4.71,0-2.53-.07.08-.34,3.12-.25-3.32.39,8,1.8,9.49.7-5.62-.46-15.55-.84-11.2-2.13-5.54.14-8.1-.19-9.5-.7,1.82-.36,3.88-.69,6.19-1-1.46-.5-4.43-.76-6.4-1.19,7-.76,24.77-1.48,33,.16,6.25-.33,13-2.44,18.76-.77-2.16.08-7.2.5-9.3,1.22,6.24,0,14.15-1.53,18.81-.29-12.81,1.6-33.32,2.55-51.6,2,11.59,1.31,33,.19,48.58-.84a226.27,226.27,0,0,0,29.77-.55c3.65.16,4.27.79,7.94.94,11.84-.1,38.52-2.42,37.71.39,5.62.36.87-.82,4.64-.73,2.77.22,5.51.44,4.84,1.19-15.08,2.18-36.65,3.39-52.83,5.41,4.36.61,10.83.89,11.2,2.13,34.87,0,47-5.81,82.63-5.72-5.39-2.24,9.23-3.25,1-5.28a49.58,49.58,0,0,0,6.26-.26c-1.9-1.91-4.69-3.25,2.67-4.56-.06-.4-4.37-.12-4.76-.47,5.28,0,4.15-1,6.14-1.46-1-.33-6,0-6.34-.46-7-5.3-16.92-8-31.2-13.61-12.45-1.12-18.11-3.32-30.27-4.49,3.82-1-7.71-2-3.46-3.11-3.57.08-5.9,0-6.32-.46,3.58.06,5.89-.07,6.23-.5-7.64.23-3-1.1-3.27-1.19-4.6-1.85-17.63-3.33-20.95-5.47,16.73-.91,33.25,2.16,47.17.85,5.65.65,14.68.77,15.92,2.12-5,.05-9.35.19-9.31,1,10.83.89,22.29,1.68,37.84,1.83,2.46,2.13,22.89,1.43,34.75,2.08,0,.48-4.25.32-3,1,16.76-.39,37.89,0,55,.83,6.48,2.78,41.69,2.12,42.89,4.94,7.55.27,15.76.44,19,1.39-2,1.2-7.61,1.87-5.9,3.61,4.18,1.29,17.3,1.17,23.75,2.1.41-.89,9.85-1.68,15.61-1-1,.48-4.73.56-6.19,1,6.28,1.42,4.92,2.62,9.85,4.06,5.19-.09,13.09-.43,14.19.69-2.78.15-6.59-.69-7.86,0,5,0,4.75.88,9.53.94-.13-1.61,6.23-.08,9.41,0,4.47-.55-.87-1.18,2.94-1.93,19.62-.22,34,4.37,47.3,2-2-.33-6.85-.22-11-.21-10.4-2-24.24-3.49-38.17-5,.45-.33,2.18-.46,1.47-1-5.43.14-8.3.66-14.06.75-2.18-.47-4.45-.92-11.07-.69,6.32-1.12-4.9-1-4.89-1.91,5.05-.36,4.39-.47,3-1.44,3.12,0,1.92-.66,6.22-.5,14.1.54,30.37,1.31,48.79,1.32-6.9-1.59-22.3-1.84-33.25-2.8,2.08-2.14-3.79-2.78-13-4.29-5.11-.29-1.12.78-6.23.49-4.82-2.41-19.85-4.23-16.41-7.16,19.48.13,19-2.7,39-2.49.2-1.07,6.16-1.29,7.63-2.18-.52-.49-3.21-.63-4.8-.95,1-.65,4.63-.89,7.73-1.22,4.73-3.19-15.75-2.39-16.18-4.76,13.65-.65,33.88-.34,43.8-1.54-6.09-.19-8.71-1.79-3.39-2.39-8.69-.74-9.92-2.66-19.17-3.31-15.43,1.24-14.42,4-32.44,5.12-10.51-3.81-56.66-3.19-71.05-3.91,2,.1,3.25.3,3.22.71a147.18,147.18,0,0,1-15.74-.44c1.2,1-7.75.43-9.32,1,2.33.2,5,.35,4.81.95-24.52-.07-37.92,1.43-62.6,1.83-.22.28.33.68-1.51.72-33.36-.16-55.47,1.09-86.17,1.65-.21.28.34.68-1.49.72-6.49-.42-14.82-.38-18.87-.44,1.21,0,1.82.2,1.6.48-24.3-.33-56.25,1-61.46-2.49,2.28.27,3.86.25,4.69-.25-4.56-.36-12.67-1.11-8.07-2.14-8,.31-13.45-1.09-9.61-1.9-.54-.33-2.28-.45-1.67-1-5-.19-3.27-.2-6.25.26,0-.33-.8-.53-1.64-.72,2.45,0,5.44,0,4.64-.49-10.59.23-2.24-1.07-6.44-1.66-6,.14-3.7,1.5-12.43,1.23,3.58-.54-.63-.93-.17-1.68,1,.07,6.1.58,6.28,0-4,0-2.61-.89-4.83-1.19a50,50,0,0,0-6.26.26c5.63-.88-8.11,0-4.82-1.19,10.45.61,19.22.18,29.77-.31,4.23,1.61,22.72,1,27,2.57a39.12,39.12,0,0,0-4.65.49c3.47.18,4,.83,6.39,1.19,17.07-.36,19.64,3.52,38.06,3.75.24-1.3,8.16-1.36,15.6-1-.15-1.2,5-.91,10.91-.74-3.67-2.24,13.36-2.53,7.42-4.34,2.11.31,5.86.3,6.25-.25-1.21-.38-7.68.07-6.35-.71.24-.36,3.77-.23,6.24-.26-1.09-2.51-19.24-2.33-25.51-4,24.52-1.43,36.47,2,56.65,1.31,0,.32.06.64.09,1,19,.81,18.33-3.16,34.26-2.72,8-1.49,18.75-2.58,32.65-3.2-1.43-.3,9.78-.74,10.84-1.46,26.1-.07-.11-4.53,4.09-6-5.08-.9-11.93-1.53-14.42-2.85,5.8,0,4.51-.45,1.49-.72h6.28c-.55-1.51,5.08-1.58-1.81-2.4-15.38.74-29.58-.26-36.33-2.32,2.45,0,1.16-.62,4.65-.49,1.25-1.09-7.89-.54-8-1.42,10.82.32,12.22,2.13,22.23,2.59-1.35-.68,2.15-.63,1.46-1.2-3,0-3.44.28-6.25.25,3-.47-3.23-.73-3.29-1.43-6.77,0-5.82-.38-12.62-.69-.6.41-9.13.82-11,.27,9.85.07-2.64-.65,4.6-1-13.5-.35-17.45-1-25.22-.9,5.18-.34,9-.88,9.23-1.94-4.2.17-3.08-.49-4.78-.71-20-.44-28.32-2.85-52.13-3.24,6.13-1.33,20.51-.57,36-1,2.49-.73,6.79-1.2,6-2.42-16.9.24-38.4-1.62-56.53-.1-10.63-1.47-35.09.87-53.34.37-7.17-.2-24.26-.07-28.1,1.51-22.22-.08-45.52.73-73.69.89-1.9-.62,4.73-1-1.66-1-8,1.27-26.45.54-34.4,1.28,26.58.13,50.33.61,77,.54.4.34,2.62.4,3.19.71-17-.46-39.14,3.15-36,1.29-1.57.31-8.37-.62-14.18-.45-3.64,2.15-16.3,0-26.64.3.54.63-6.07.21-4.61,1,.55.72,6.13.66,6.42,1.43-9.45,1.69-19.9.58-34.45.8-.65-.34-1.94-.4-.08-.72-3.74.18-14.91.73-14.18-.45,7.74-.48,2.76.09,7.87.22,3.09-.88-.35-1.36-4.87-1.67,4.7-.48,4.28-1.73,10.79-1.94a29.8,29.8,0,0,1-6.34-.47c1.1-.54,5.93-.54,6.16-1.21a167.3,167.3,0,0,1-20.46-.43c.2,1.27-9.72.85-12.48.75,1.9-.68,6.36-.81,10.93-.51-3-1.08,6.22-.34,4.6-1.21-6.27-.34-23.18,2.68-31.33.55,14.1.36,16.66-1,25-1.5,4.67-3.2-14.11-2.21-23.89-3.3-13.42.36-33.66-1-44-.14,4.92.28,15.62-.17,17.38,1.16-3.19,1.2-9.33-.57-10.93.51,6.94.3,9.82-.26,12.63.69-2.07,0-1.38.42-3.08.49-6.37-.27-13.63-.95-12.73-1.65.56.75-4.59-.6-4.67.25,2.34.2,2.35.77,3.26,1.19,7.71-.08,12.75.27,14.25,1.17-11.37,1.28-20.81-.06-29.68,1.51-1.39-.53-11.37-1-14.17-.45,2.81,0,3.68.23,3.21.71-22.92-1-36.07-.81-56.62-1.07,5.62-.72,8.86-.36,15.63-.75-3.23-.39-8.19-.5-9.55-1.18,5.23-.51,9.54-.94,9.26-1.71,8.65-.2,14.13-1.08,23.49-.53-3.45-1-10.72-.46-15.72-.2,0-.24-1.29-.29-1.62-.48,7.41-1.31,4-2.35,1.14-4.32,32.19-1.32,59,1.49,91,0,11.59.21,23.77,1.51,40.93,1.1-.57.58,2.93.51,1.69,1.2a289.7,289.7,0,0,1,36.2.87c1.3-1.65,13.32.5,18.82-.29.64.34,1.92.4.06.72,11.86-1.54,20.16,1.49,34.61.64-6.73-.16,5.66-1.32-6.4-1.18-2.09.55,4.13.89.1,1,.28-1.46-12.68-1.13-17.51-2.36-8.63,1.36-17.55.09-29.83.07a13.41,13.41,0,0,0-8-1.18c6.37-.13-1.14.85-1.46,1.2-9,0-17.28-.7-25.2-.9,2.73-1.12,2.49-.75,9.36-.5-.23-.9-1.83-.68-.14-1.44-7.26-.29-7.57.46-10.91.75,2.07-1.6-18.09-.58-23.7-1.38.35.52-1.21.77-4.63.73.58-.34,1.85-.41-.08-.72-30,.11-57.41,1-84.71.44-9.07.82-35.79,1.57-34.63-.88-32.88-1.21-66.36-.09-102.11-.72-11.76,1.21-26.71,1-37.62.57,1.62.07-3.26.56-6.25.26-11.17-1.14,7.82-1.75,17.1-1.72-8.13.12-.2-1.58,1.35-2.17,17.51-.65,31.74-.63,47-1.31,4.08.09,4.8.7,9.49.7,6.53-1,13.92.43,22,.19,4.61-.14,7.84-1.19,12.43-1.23,5.11,0,9.83.95,14.23.93,2.63,0,7.14-.44,9.36-.5a10.63,10.63,0,0,1-1.52.48c4.7,0,6.91-.69,10.91-.75.72,0,1.25.69,1.65.72,5.73.39,12.56-.89,18.73-1,4.6.68-5.19,1.11,1.69,1.19.33-.82,7-.7,9.3-1.22,4.57,1.32,17.67-.16,15.81,1.16,10.61-.46,29.32-1.09,39.13-1.05-1.82,0-1.74-.37-1.65-.72,11.78,0,15.63,0,21.93-.53,0,.24-1.23.29-1.52.49,17.7-.18,32.84-.38,44-.11a37.73,37.73,0,0,1,4.61-1,16.34,16.34,0,0,0,7.82-.26c3.21.44,2,1.4,6.39.94-5.42-.66,6.11-.81,9.31-1,.08.48,4.3.29,3.25,1,.52.55-4.51.28-4.65.73,10.33-.09,10.21-.81,10.79-1.94-3.79-.38-10.09-.36-14.2-.69-2.8,1.37-19.75.58-23.53.06,2.07,0,1.38-.42,3.09-.48.27.28-.21.68,1.65.71,9-1.5,18.85-.69,31.32-.56-3.77-.94,2.89-.74,3-1.69-12.39,0-24.87.15-36.1.08,5,.45-4.53.72-6.18,1-3.05-.34-12-1-14.2-.69,1.85,0,1.75.37,1.65.72-6.68-1.05-16.2-.59-25.2-.9,9.86.11,5.26-.47,12.48-.75-6.91-.31-10.79-.61-15.67.28l-.08-.72c-14.66.83-37.73-.69-56.48.14-.27-.28.19-.68-1.65-.72-16.35.93-40.54-.63-48.63.36-.72-.9,7-1.26,10.92-.75-1.23-1.66-10.15-.36-14.15-.21.24,0-.31-.47-.05-.48-6.2.27-8.89,1.35-15.55,1.48-8.49.16-11-1.09-22-.67,3.41,1.12-11.56.1-15.62.76,16.93.09-18.8,1.18-18.89-.44,5.22.06,5.88-.55,9.36-.74-8.61.12-4.6-.24-6.41-1.19-6.92.28-7.84-.39-12.61-.45.82.76,7.11.67,9.54,1.18a39.48,39.48,0,0,0-4.67.25c-3.68-.29-6.21-1.48-9.48-.46.1-.42-.42-.75-1.66-1,25.22-.62,34.43-1,58.07-.14,14.06-.76,29.15.75,43.9-.58.2.45,5.2.15,4.76.71,19.45-.74,40.63,1.7,56.51-.13-4.45,0-10.74.23-11-.45,4.89.06,26.89-.83,22.07.91,3.74-.16,7.13-.36,12.52-.27,2.32-1-8.12,0-7.91-.7,7.09-.12,22.86-.63,28.32.65,28.63-.11,50.29-.5,69.14.8.84-1.24,3.18.55,6.34.46,4-.32-1.57-1.17,1.44-1.2,1.57,0,1.85-.2,3.13-.25,6-.22,5.63.57,9.48.7,1.85-.67,9.61-.47,15.65-.52,1.37,1.8,12.63.63,18.9.68,25.73.19,59.77.94,80.14.77-16-.65-21.33,0-34.65-1.12-18.61,1-42.33-.36-62.79-.09.18-.6-2.54-.74-3.26-1.19,1.81-.36,5.89-.39,7.77-.74-6.11-.5-22.71,1-33-.4-.82.8-5.9.36-9.4.26-4.93,1.65-28.56,1.61-37.54,1.29.31-.45,14.27-.06,9.38-.5-4.69,0-9.55,0-9.49-.7,2.75-.14,9.25.27,9.4-.26-5-.34-15.23.13-12.71-1.41-6.6-.16,2.22.91-4.61,1a9,9,0,0,0-3.17-.23c-2.11-1.1,2.75-1.17,4.55-1.69-7.09-.62-7.41.37-7.78.74-4.94-.63,4-.92-.15-1.44-6.74-.38-13.9-.48-17.31-.44a10.31,10.31,0,0,1,3.19.47c-2.8-.14-6.44.72-7.85,0,1.85,0,4.47,0,4.69-.25-8.82-.64-23,0-28.37-1.13-3.81.33,2.9.72-1.47,1-9,.36-8.21-.82-14.23-.92-.82.35,2,1.24-1.44,1.2-5.56-.1-15.09.43-14.2-.69,1.65-.18,11.94-.24,7.8-.5-8.79.49-15,0-18.74,1-6.34-.28,1-1.3-4.85-1.43-2.16.15-.14.92-3,1-2.13-.43-18.78-1.41-11-.45-6.65-.21-7.94-.16-17.29-.2-.23.36.65.88-1.47,1-26.35-.82-49,.33-72.25-.31-.57.42,2.39.61.07.72-8.85-.36-16.07-.68-22,.29-.09-.33.68-.53,1.51-.72-6.4.45-14.7-.06-20.46-.43,4.24-1,12.38-.16,14-1.71-10.86.16-15.44,2.16-28.08,1.75-2.1.55,4.13.89.11,1a38.14,38.14,0,0,0-9.41.26c0-.82-4.69-.88-8-1.18-12.43.92-24.58-.68-36,.8-25-.6-61.59-.3-81.56.68-1.46-.58-8.79-.24-8-1.18-8.88.9-14-.57-20.35.52,1.93,0,3.73.07,3.19.47-3.74.21-4.14.16-11,.27-.2-.38.13-.83-3.22-.71-4.9,1.56-17.61.05-25.12-.18-.42.47,2.17.47,3.22.71-6.09.14-17.45.33-18.94-.91,4-.27,5.59,1,7.87.22-2.22-.06-1.85-.52-3.21-.71-17,1.41-40.64,1-51.72.84-4.07-.07-6,.76-7.78.74-4.9,0-8.88-1.1-17.32-.68,1.56-.08-2.21,0-6.28,0-1.56,0-17.95.55-22-.43-.73-.6,12.22-.37,7.77-.74-5.63.1-7.52.38-12.56,0,1.34,1.24-8.12,1-10.93.51,5-.37,12-.43,14-1.23-9.69.41-27.81,1.49-26.75-.66,0,.24-2.72.31-3.14,0,6.34-.61,3.74-1.12,9.25-1.7-20,2.12-36.75-1.24-54.75,1.81-.41-.45,1.71-.53,1.47-1-4.88,0-4.41.77-10.95.51.31-.45-1.82-.53-1.67-1-4.08.1-8.6.14-10.93.51,6.95-.12,10,.38,11.11,1.17-10.5-.34-15.51.76-25.16-.42,6.3.22,4.65-.73,10.95-.51-1.58-.56-.66-1.52-6.42-1.42-.23.36.65.88-1.48,1,.94-1.09-19.61-1.37-28.4-1.37-1.59.9,4,.67,3.3,1.43a81.46,81.46,0,0,0-9.44-.22c3.22-.59,2.18-.52,1.42-1.44-5.06-.2-2.07.8-6.21.73.11-.91-8.3-.48-9.53-1.18-6.8.82-8.85.16-7.91-.46-5.92.67-8.28.45-12.43,1.23-2.65-.47.12-.31-.1-1a60.3,60.3,0,0,1-11-.21c-2.39.28-3.78.7-6.17,1-2.85-.48-6.4-.15-1.65-.72-17.32-.44-22.85,2.3-31.22,1.75-.85,1.77-8.12,1.09-14.07.51-2.09.55,4.14.89.09,1A84.54,84.54,0,0,0,827,11.57c-1.42-.76,2.4-.75,3-1.21-3.45.4-8.51,0-9.39.26a18.29,18.29,0,0,1,4.79.71c-3.7,0-4.59.42-9.4.26l-.08-.72c-13.15,1.35-31.8.19-37.54,1.29-5,.22-3.32-.62-6.35-.71,0,.33.79.53,1.63.72-3.83.56-22.47-1.24-12.56,0-7.43-.08-9.73-1-14.17-.45,3.66.06,3.73.64.08.72,2.21-.36,1.12-.76-3.22-.71a57.19,57.19,0,0,1-7.78.74c4.16-.66-7.27-.42-9.44-.22,1.23,0,3.09,0,3.16.23-3.12.11-11.58.62-14.12,0,.93-.34,6-.05,6.23-.49-5.34-.41-7,.34-12.52.51-2.55-1.43-15.53,1.11-17.32-.68,12.66.89,20.54-2.2,28.23-.31.15-1.36,5.51-.55,12.45-1-1.88-.75,2.4-.59,3-1-7.26-.17-4.45.28-6.22.49-1.49-.25-5.79-.06-4.78-.71,1.84,0,4.46,0,4.69-.25-6.46.21-9.78-.08-11.06-.69-8.17.57-14-.09-31.37.31-2.9.43,2.22.74-3,1-20.51-1-39,1.11-54.87.61-3.14.73,3,1.38-4.56,1.45-3.92-.33-2.86-.82-1.72-1.44-14.31,1-23.73-.45-39.25-.15-6.3,2.05-28,.12-37.5,1.77,7.24-.35,16.62-.39,20.45.43-5.81.89-24.2,1.2-22-.43-8.51.88-16-.95-18.78.52-1.91-1.52-19.73-1.42-29.9-.89,1.51-.08-2.34-.27-6.31-.23-20.76.23-46.36-.07-65.81,1.12-.2-.38.13-.84-3.22-.72-.12.61-.17,1.24-4.59,1.21-1.06-.52,4.36-.77-1.64-.72a22,22,0,0,1-7.82.26c-3.44.35,2,.58-1.49.72a29.64,29.64,0,0,1-6.32-.47c.1-.38,4-.2,3.07-.73-5.71.53-7.09.33-14.05.75-.21.82,5.29,0,6.36.94-33.47,3.11-74.24,2.35-109.58,2.9-1.78-.61,9.68-.41,4.64-.73-15.1.68-18.34,1.43-29.79.31-5.77,0-5.94.86-9.31,1.23-5.61-.59-21.78,1.12-28.28-.41-.82.88-7.73-.07-10.92.75-.26-.88-3-.69-4.73-.23-.84-1.38-8.67-.31-11.11-1.17-2.46.82-6.94.65-12.53.27-3.44.35,2,.58-1.5.72-7.75-.55-19.11.72-23.63-.91-4.24,1.13-25.21.81-29.85-.17-1,1.36-18.76,1.13-18.79.52-5.7.65-11.84,1.24-18.65,1.72.78-.36,2.26-.61,3-1-28.93-.19-51.81,1.22-87.88.21.13.41-1.15.62-3.08.73-10.84-1.8-35.66,1.55-36.24-1.35-8,0-.59.84-6.14,1.21-18-.21-30.87.62-40.85-.38-9.78.69-14.36.44-26.59,1-.54-.55,4.51-.28,4.64-.73-15.07.16-22.86.8-34.58-.4.7,1.13-8.23.83-9.24,1.7,8.57.06,19.34.08,23.68,1.38-6.76.48-9.81-.86-12.58-.21,15.47,1.58,24.17-.27,42.38-.1.09.33-.69.53-1.51.72,6.17.42,13.13-.18,18.77-.52,30,1.49,65.79-1.36,94.25.5,9.15-1.11,26.07-1,40.68-1.3-2.4,1.14-18,.32-20.24,1.49,7.75,0,38.91-.8,34.61.88,0-.64-1-1.41,3-1.45,4.25-.18,3.21.47,6.32.47,2.76-1.35,28.73-.66,37.6-.57-1.21-.05-1.83-.2-1.61-.48,2.94.45,13.26-.92,18.83,0-3.58-.06-5.89.07-6.22.49,6.53.85,5.28-1,12.48-.75.54.55-4.5.28-4.64.73,13.22-.35,36.93.14,48.63-.36,1.87-.78-5.1-.17-3.23-1,2.29.13,8.08-.3,7.87.22-.33.34-2.54.41-3.07.72,24.14.08,47.56-.45,76.9-.18,4,1.1,22.88-.28,31.4-.08,11.23.28,29.65-.34,45.46-.59,25.19-.4,51,.37,72.12-.89.19.38-.13.83,3.22.71.23-.36-.65-.88,1.47-1,7.24.15,12.61.61,15.83,1.4a49.1,49.1,0,0,1,6.17-1.21c-2.77-.06-7.77.7-9.41,0,3-.11,2.76-.69,7.79-.5,6.57,1.52,2.86.52,12.66.93-2.7,0-4,.19-4.67.49,7.1-.77,18.24.51,25.09-.3-8.21-.37-10.75-.12-17.32-.68,8.14-.19,10.05,0,17.21-.52,1.54.44-4.62.81.09,1,7.31-1,19.72,1.58,29.88.41-3.17.21-8.69-.36-4.75-.47s4.89.37,7.89.46c5.86-1.66,17.45-.18,25-1,3.95.32,3.79.67,4.82.94,2.55-.8,17.07-1.08,20.3-1,.84.75-7.18.2-7.77.74,15.74-.2,20.94-1,28.1-1.51,3.6-.08,1.79.69,4.78.71-2.66-1,9.2-1.29,17.11-1.48-.45.85,0,1.24-1.43,1.44a49.52,49.52,0,0,0-9.4.26c4.54.46-4.57.88-4.55,1.45-3.27-.13-3.36-.37-1.65-.72-11.56.58-26.07,0-37.62.57.2-.28,2.75-.55-.06-.72,2.52.84-5.31.16-4.65.73,4.55.46-3.53,1-6.14,1.22,1.71-.35,1.62-.59-1.65-.72-3.44,1.48-11.82-.14-15.63.76-3.67-.34,3-.77-3.21-.71,0,.32.08.64.1,1-5.65.13-22,.26-26.64.3-4-.11,4.5,1.18-3,1,1-1.09-17.33.5-19-1.16-14.48.82-20.49-.31-32.87.8-.69-.4-9.3-.78-11-.21,2.53-.18,6.86.46,3.17.47-23.18-1-54.07-.3-78.55-.77a10.12,10.12,0,0,1,3.17.47h-6.27c-.1-.33.68-.53,1.49-.72-5.4.61-13.64-.87-17.31-.44,4.51.27-2.52.28-3.14,0-1,.66-.23.55-4.61,1,2.35,0,5.79-.1,6.31.22-13.33,1-33,0-47.12-.13-4.88.45,5.38.8.13,1.2-5-.87-12,1.18-14.11,0,1.26-.61,16.11-.43,9.26-1.46-7.42.64-12.45,2.2-21.85,1.25,1.58,2.36-19.72,1.34-26.43,2.47-3.79-.47-14.25-1.16-20.45-.43,11.34.24,21,.75,25.33,2.1-1.84,0-4.47,0-4.68.25,8.88.37,5.49-1.08,14-.75.1-.91-9.21-.33-9.54-1.18,12.54-.16,23.91-.31,33,.16-5.07-.2-2.08.8-6.21.73-1.44-.21-8.93-.67-9.44-.22-2.08,1.27-19.72,2.19-29.72,1-4.55,1.38-13.82,0-15.7,0,4.27.21-1.23.89-3,1,0-1.1-16.08-.76-7.83.26-6.48,0-7.81-.58-7.94-.94-4.93.53-10.24,1-13.95,1.71.13-.6,2.91-.76-1.68-1-3.76.34-.93.48-3.06.73-1.24-.05-1.86-.2-1.62-.48-5.52,1.73-19-.77-22,0,1.92,0,3.72.07,3.19.47-7.15-.09-14.85-.09-17.36-.92-2.27,1.08-5.42-.38-11-.21-2.06,1.6-28.64,1.82-26.63.54-5.26.61-8.45,1.37-15.65.52-1.87,1.27,10.63.27,12.65.93-4.42.6-17.16,0-21.92.53-4-.66-6.87-1.11-6.48-1.91-4.18.17-4.62.89-7.72,1.22,1.85,0,4.45-.05,4.73.23-5.59.9-17.78.54-17.36-.92,3.86.22,5.08-1.09,3-1-2.12,1-12.45.83-15.52,1.72,7.05.34,4.74-.71,10.93-.5,2.07.75-1.46,1,3.28,1.43-9.53-.11-13.91,0-20.39.29,0-.48,4.27-.31,3.05-1-5.86-.24-3,.82-6.18,1-2.91-.27-7.16-.33-7.95-.94-13,1.32-22.57.65-40.73.82-2.11,1.06,9.4,0,9.5.7C-42.22,33.18-60.52,33-78,34.12c.33-.34,2.54-.41,3.05-.73-9.38,1.1-16.36-.1-18.73,1-23.06-1.11-73.6-.11-94.32-1.46-12,.06-27.55,1.57-36.12-.16-6.11,1-21.42,0-26.61.78,2.41.05.27.4-1.53.49-25-1-37.05,1.34-65.86.64,1,1.23,20-.4,17.42,1.4,15.57.13,20.26.93,34.62.88-1.85,0-4.46,0-4.69.25,1.23.05,3.11,0,3.17.23-7.23-.12-12,.11-14.05.76,11.24-.22,25.93-.48,36.14.39-2.85,1.07-23.35-.08-25.06.54,9.73.42,18.51,1,29.94,1.13-5,.77,4.7.08,3.24,1-6.92.63-10.82.07-15.67.28,1.88-.08,5.49.68,1.65.72-5-.32-5.26,0-11,0-.28-.32,6.3-.74,1.47-1-6.05.62-17.42,1.71-21.93.53-.29.46,1.83.52,1.67,1a79.27,79.27,0,0,0-9.39.26l-.08-.72A156.77,156.77,0,0,0-309.33,44c-5.26-.21-24.12-.64-26.66.31,8.2.34,19.48-.88,25.18.66,21.2-.14,46.28.29,59.64-.14,8.56-.28,20.78.36,28.27.17s19-.82,23.59.42c-4.81-.49-10.6.43-15.72-.2-3.44.36,2,.58-1.5.72-77.48-1.36-162.13,3.72-247.72,3,.83,2.17-23.45,1.36-31.31.79-3.88,1.34-14.11-.09-15.6,1,3.88.53,14.89-.07,15.8.92-.86.42,2,1.4-1.42,1.44-19,.48-30.13-1.48-39.28-.39,9.9-.05,17.87,1.75,33.12,1.6-2.23,0-2,2,.12,1.2-1.81-1.65,7.28-.3,10.87-1.23,5.4,0,6.91.7,8,1.42-4.61,1.05-17.64.85-23.37,1.73.36,1,5.68,1.38,11.08.93,24.09,1.83,64.65-.5,91,0,3.12,0,2.06.65,6.32.47,13.89-.28,36.53-1.63,50.24.12,9.73-.42,17.86-.14,28.25-.07.51-.64,3.7-.87,9.36-.74-2.57.48.18.3.1,1-4.09.1-8.61.15-10.95.51,2,.33,8.29,0,6.37.94-10.54,0-14,1.08-23.41,1.26,3,.09,2.91.68,7.9.46,6.57-1.39,23.13-1.3,26.36-3.18,3.56.2,5.9,1.23,3.31,1.67,12.12,1.23,30.26,0,42.47.86.13.89-5.73.88-7.7,1.46,11.37.11-1.61.64-1.46,1.2,8.32-.82,23-.68,34.44-1,78.88,2.7,169.65-.44,245,.86,22.32-.66,46-.78,61.09-1.11,9-1.1,27.63-1.72,36-1,5-.64,28.39-.69,36-.8-9.74,0,.54.33,1.65.72-13.18.09-22.39-.26-25,1a42,42,0,0,1-4.76-.47c1.21-.06,3.09,0,3.12-.25-10.35-.32,2.35,1.55-6.11,1.7-1.28-1.27-10.93.26-9.57-1.42,4.92-.13,6.48.55,7.82-.26-14.08-.08-27.19.29-34.48.56,5.47.84,16.36-.31,23.54-.06,1.65.31,1.63.88,3.27,1.2,8.32.57,15.9-.25,20.49.91-21.47.86-17.1-.75-31.45-.64.87,0,1.79.19,0,.24-10,.22-14.61-.16-23.51.3-3.59-.34-14.46-1.85-14.13,0,6.11-.22,13.67-.32,15.76.68,13.53.42,21.1-1.45,29.76-.55-6.74.1-11.69.47-14,1.23,6.78.14,5-1,12.48-.75-.33.34-2.54.41-3.05.73,7.29-.47,20.77-.91,23.55.19-13,.46-24.74.6-34.44,1,.1-.34-.43-.92-1.6-.48l0,.48c14.17,1,20.21-1,29.89.65-7.06-.14-13.33.68-18.83,0-2.58,1.31-18,1.57-26.56,1.26C90.23,71,106.92,68,126.32,67.72c1.44.86-10.93.88-4.53,1.69,21.45-1.44,51,.7,70.69.55-18.59.89-34.9,1.3-50.15.84-4.9-.06,4.07.68-1.49.72-12.76-.84-38.46,0-58,.62.58-.34,1.83-.41-.08-.72-9.36,1.77-27.4.45-37.57,1,1.21,0,3.09,0,3.15.23-23.35-.5-54.75-.45-76.83.9,0-.32-.06-.64-.09-1-24.14,1-60,2.09-87.82.93q.5.79-4.64.73c-68.27-.49-146.65,2.17-210.21,1.46,2.48,0,5.44,0,4.76.47-29.4-1.28-54.82-.65-81.69-.53-3.39-.35-4.9-1-8-1.42.09,1,2.35.55,3.31,1.67-12.24-1-29.24-.92-42.42-.37l-.08-.72a195.43,195.43,0,0,1-31.35.56c1.84,0,1.75.37,1.65.71-8.12.22-14.93.35-15.76-.44-4.21.23-9.78.11-12.61-.69-6,.23.31,1.17-3,1.45-59.66-1-141.34-.45-207.18.25,53.74.18,107.61.58,163.23-.39-.22.68,10.23-.31,7.91.7,30.31-.89,70.06,1,98.88-.23.28.28-.21.68,1.63.72-1.37-.92,3.26-.94,6.16-1.22,3.35,1.06,14.62,0,22.1,1.15,2.06-1.06,21.29,0,25.12.18,1.56-.32,1.4-.9,4.62-1,1,.88,7.69-.11,11,.69,4.51-1.09,12.86-.45,20.33-.77,1.46,1.45,10.87.68,18.9.68,3.44-.35-2-.58,1.49-.72,40.08.54,78.7-.16,122.52.67-1.23.05-3.1,0-3.12.24,4.84.17,2.94-.66,7.79-.49-.08.65,2.67.48.09,1,7.43-.5,17.26,0,25.14.18,1.73-.76-2.5-.58-3.22-1,3.78.09,3.35-.45,7.82-.26,0,.48-4.25.32-3.05,1,7.34.3,5.19-.81,12.51-.51-.82,1.14,7.94.24,12.66.93,3-.89,3.68-.91,3-1.45,4.29.21,7.43.36,9.39-.26l.08.72c3.05-.22,15.44-1.17,17.27,0-6.86-.28-13.44,1-22,.05.85,1.94,30.93-.45,36.24,1.36-34.78.38-61.33,0-97.32,0-.59.41,2.39.61.08.72-2.78-.13-9.2.31-9.45-.22,1.77-.6,6.59.57,6.23-.49-7.88-.09-22.63.12-26.66.3,3.12,0,10.17.64,4.83,1.19-27.85-1.07-61.55-.2-86.36-.27-36-.11-72.22-.62-111.55-.94,0-.16,0-.32,0-.48-14.56,1.15-27.55-.46-39.17.82-4.36-.21-8.68-.42-9.55-1.18-2.75.15-9.25-.27-9.39.26,6.89-.11,10.65.27,11.11,1.17-8.75.12-31.93,0-42.43-.38-14.57.93-37.26.2-50.12,1.08,9.13.69,29.86-1,31.54,1.36-9.95-.54-17.44,1.11-28.22.31.46.83-3.08.82-9.36.5-7.14,1.94-31.17,0-43.84,1.31-3.67-.56-8.9-.87-14.24-1.17-.89.77,5.68.32,1.67,1,2.77.13,9.18-.31,9.43.22-33.86.51-58.28,1.16-87.75,1.41.42,2.25-16.9.47-21.87,1,7.15,1.09-13,.24-18.82.28-14.24.11-29.8.85-37.55,1.29,7.24,1.13,15.76-.49,25.13.18-.46.56-1.5,1-4.59,1.21-1.29-.4-10.53,0-9.34.74a183,183,0,0,1,20.45.43c-9.09.72-20.95,2.22-31.32.79-6.69,1.08-18,.62-31.29,1,2.85,1.3-11.92.94-21.87,1-7.64,1.1-.19,1.63-12.36,1.95,4.06.47,7.19-.27,9.44.22-3,1.13-5.75,2.3-17,2.2.33-.34,2.53-.41,3-.73-8.13.15-17.33.8-18.71,1.25-7.22-.58-5.71.11-11,.27-8.33.26-21.22-.59-25,.78,5.85.53,13.59-.41,15.79.92-5.91.67-10.39-.63-11,.26,4.56.66,19.89-.37,20.5.91l-9.43,0c-.09.73,8.24.66,3.29,1.43,2.27-.14,8.14.26,7.83-.26-3.44.05-5-.19-4.79-.71,4,0,12.54.11,18.85.19-11,1.48-37.07,1.48-50.1,1.32a12.52,12.52,0,0,1-4.59,1.21c7.28,0,14.52,0,6.23-.5a30.86,30.86,0,0,1,9.5.94c-11.25,1.17-8.85-.27-18.83,0C-933.27,105-931,105.38-935.65,106ZM-129.7,19.84c1.16-.85,5.47-.29,7.86,0C-122.19,20.38-128.73,20-129.7,19.84Zm246.27-2c2.13-.1,8.8-.45,14.05-.75-.82.19-1.61.39-1.51.72-4.51,0-8,.08-9.38.5C118,18.23,118.64,17.81,116.57,17.82ZM720,9.18c0,.41,1.23.62,3.19.71-.16.53-3.88.53-7.79.5,2.68-.5-1.21-.47,1.48-1-3-.1-9.44.35-7.91-.46A106.82,106.82,0,0,0,720,9.18Zm935.69,32.35c.33-.62,2.75.32,6.29,0l.08.72a59,59,0,0,1-6.31-.22C1656.74,41.79,1657.66,41.57,1655.74,41.53Zm153.77,92c7.42.43,16.95-.94,18.85.2C1824.33,134.16,1810.71,134.83,1809.51,133.57ZM304.51,122c7.81-.26,15.22-.38,25.1-.06A222.1,222.1,0,0,1,304.51,122Zm-1223.05-17.5c0-.48,4.27-.32,3.05-1,4.94-.13,5.58.42,11,.22-.22.28-2.84.21-4.67.25-.22.28.4.43,1.61.48C-908.48,105-917.19,104.74-918.54,104.52Zm66.66-8.32c1.47-.49,6-.53,10.93-.51-.69.69-5.9.7-9.31,1C-850,96.4-850.66,96.25-851.88,96.2ZM-771,88.81c1.65-.53,15-1.23,14.13,0C-763.31,88.55-763.22,88.82-771,88.81Zm181.34,23.57c-6.09-.37,12.66-1,11,0C-581.15,112.3-587.45,112.1-589.66,112.38Zm40.93,1.1c-1.42-.49,7.93-.5,3.07-.73,1.15-.32,15.28-.64,14.15.21C-539.6,112.79-543.41,113.25-548.74,113.48ZM-241.27,34c.05-.73,10.19-.59,12.53-.27C-231,34.64-238.88,34.07-241.27,34Zm68.75,43.28c-.68-1,6.79-.23,9.39-.26C-163.1,77.7-170.47,77.63-172.53,77.31ZM11,76.15c1.53.94-8.26.2-9.34.74,1.11.32,4.18-.13,7.86.22,15.79-2.49,46-.86,69-1.12,18.84-.21,34.89-1.34,48.54-1.08,1.05.24,3.65.24,3.23.71,5.36-.67,11.79.12,18.84,0,2.21.78-1.75.61,6.31.47-2.89.47-.1.6.13,1.2-4.2.17-3.08-.49-4.78-.71-2.24.38-5.16.66-6.16,1.21-3.13-.16-3.67-.72-6.39-.94-3.18.08-3,.66-6.19.74,3.22.79,14.71,0,19,1.15-7.73.16-9.58-.6-17.31-.44,3.77.38,9.54.44,14.19.68,13.41-.89,11.43-3.17,26.34-3.42-1-.58-6-.52-9.49-.7,11.55-1.2,23.23.19,31.29-1,2.11.23,5.86.21,6.35.7,4.41-.17,14-1.16,15.66-.28,3,0,1-.8,4.65-.73,10.56,1.53,31.6-.72,42.42.38,7.65-1.1,26.39-.91,32.9-.56,8.19-1.85,37.21-1.16,48.65-.12,12.08-.13,10.78-.75,21.91-.77-3.37-.06-9.81-.87-11-.45.17-.89,7.65-.77,18.75-.77a22.59,22.59,0,0,1-3.12.25c15.9.38,47.7-2.4,66,.56a148.12,148.12,0,0,0-15.64.52c3.62-.4,21.47.7,23.46-.77,4.92-.13,6.44.28,7.92.7-.49.56-.89,1.13-6.18,1-.56.57,7.13-.15,4.77.71-10.16.06-16.2-.53-26.73-.42,3.58.49,10.22.68,20.49.67-22.75,1.33-37.45,1.55-62.68,1.11.25,1.1,9.58.76,11.14,1.65-16.69-.47-27.84,1-39.17.57,0-.16,0-.32-.06-.48-.78-.51,2.18-.46,4.66-.49-2.85-.71-8.34.16-6.17,1-5.17,0-7.78.42-14.1.27.17-.52,3.9-.52,7.79-.5-4.78-1-15.72.27-23.46.77-5.54.38-1-.81-4.78-.71-6.11.49-39.84.71-47.11-.13-4,.32-4.88.51-3,1.21-5.63.16-8.85-.07-9.49-.7-6,1.22-15.67.26-23.55-.18-5.56,0,3.41.79-1.51.72-4,0-1.93-.17-1.61-.47-5.88,0-4.64,1-12.48.75,1.25-.6,1.92-1.29,1.34-2.16-3.44,0-.56,1-1.41,1.44-6.71.24-6.12-.66-11.06-.69,2.39,1-7.83,2.71-12.45,1a54.06,54.06,0,0,1,9.47.45c-.23-.59-3-.74-.13-1.2-7.5.68-8.11.11-15.72-.2-.57.56-4.33,1.29.22,2.16-5-.35-11.07-.53-15.79-.92.11-.61,5.21-.49,9.37-.5,2.75-.06-2.44-.89-3.26-1.19-3.52.14,1.94.37-1.51.72-3.68-.07-5.93-.37-11-.21-2.67-.47.1-.31-.1-1-9.85.73-5.1,2.37-15.48,2.2a13.73,13.73,0,0,0,4.76.47c-17.19,2.06-42.82-.75-56.43.86-5-.51-2.09-.75-7.87-.22-3.15-1.24,3.51-1.64,9.2-2.18.72.5-1,.64-1.47,1,7.6.17,19.71,1.19,29.83-.07-14,.09-23-.85-34.63-.88,1.66-.76.66-.64-1.69-1.19-5.35.25,4.33,1.37-1.4,1.68C92,77.45,81.31,78.6,74,77.68c-2.2.09-.09.42,1.61.47-2.5.61-5.75-.7-11-.45a43.07,43.07,0,0,0,4.75.47c-1,.72-3.37-.22-6.28,0,.08.23,2,.18,3.17.23-.5.63-8,.23-9.34.74-2.49-.47-8.2-1.17-11-.22-20.63-1-43.19-1.06-64.47-1,0-.24,0-.48-.06-.72-15,.94-28.84.43-43.89.58,11-1.81,30.14-.52,47-.83C-6.3,76.76,1.23,75.78,11,76.15Zm-120.71,1.72c10.4-1.83,31.47-.29,47-.83C-72.67,78.54-97.28,77.77-109.68,77.88ZM-20.94,117c5-1,11.17-.42,20.32-.77A111.25,111.25,0,0,1-20.94,117ZM145.92,75.11c-.54-.63,2.08-.79,6.19-.74,0,.24.06.48.08.72Zm16,49.41c3.4-.67,11.2,0,15.7,0C174.82,125.06,165.33,124.65,161.9,124.52Zm1.59-46.33c4.56,0,3.85,1.35,1.74,1.67C159.25,79.66,164,78.91,163.49,78.19Zm4.73.23c.22-.28,2.85-.21,4.69-.25-1.23.68,2.27.62,1.7,1.2C170.43,79.37,170.53,78.71,168.22,78.42ZM174,120.17c1.2-.54,10.43-.82,9.44.22C178.69,120.57,177.73,120.16,174,120.17Zm48.9,2.52c3.6.11,8.08.46,11,0C237.81,122.93,222,124.18,222.94,122.7Zm-2.16-52.32c.75-.82,7.53-.39,11-.27C230.4,71,225.45,70.3,220.78,70.37Zm8.67,54.47c-.28-1,12.28-.07,14.06-.75,5.51.05-2.73,1.07,1.66,1C241.33,125.2,234.82,124.93,229.44,124.84Zm18.15-99.65c.41-.49,4.2-.48,4.61-1,2.46.1,1.42.75,6.32.47C258.38,25.37,252,25.13,247.59,25.19Zm15.75.44c6.83-.1,12.62-.59,20.37-.29C281.36,26.32,268.68,25.69,263.34,25.63Zm4.09-6c4.07.5,8.89-.24,11,.21C279.49,20.71,265,20.5,267.43,19.62Zm2.11,5.27c.81-.57,6-1,9.36-.5C276.58,24.74,272.22,25.29,269.54,24.89Zm25.14.18a53.56,53.56,0,0,1,12.51-.51c.32.52-5.56.12-7.82.26-.22.52,5.58.1,7.87.22C303,25.78,300.14,25.24,294.67,25.07Zm51.64-1.56c1.37-1.19,12.68,0,15.64-.52C358.48,23.94,353,23.13,346.32,23.51Zm6.39.95c1.7-.49,12.1-.31,14.11,0,.68.58-7.16-.12-4.63.73C359.7,24.81,356,24.66,352.7,24.46Zm9.39,46.3c12.63-1,18.92-1.08,32.81-1.52-.59.47-7.18,0-4.62,1C378.89,70.1,372.13,70.67,362.09,70.76Zm1.49-47.29c3.15-.33,16.56-1.45,20.4,0C378.42,22.83,370.08,23.46,363.58,23.47Zm8,1.9c.58-.6,5.26-1.12,7.78-.74C378,25.06,376.56,25.47,371.62,25.37Zm7.75-1c5.38-.39,15.33-.15,23.52-.29-3.05,1.24-15.76-.21-15.57,1.24a58.9,58.9,0,0,1-6.3-.23C383.61,24.88,386.42,24.21,379.37,24.39Zm44.51,98.31c-1.69-.8,4.84-.39,7.79-.5C432.87,123,426.26,123.07,423.88,122.7Zm-5.24-98.16c12.06-.48,28.24-.17,47-.83-1.33-1-7.57.24-11-.45.47-.8,9-.4,14.08-.51,3.22.87-2.15,1.19.22,2.16C449.68,24.82,436.47,25.52,418.64,24.54ZM455,73.9c.12-1.16,9.44-1,17.17-1C471.17,74.12,461,73.94,455,73.9Zm20.22-2c0-1.2,24.66-.09,6.25-.25A49.74,49.74,0,0,1,475.25,71.93Zm13.88-48.76c-1.35-.91,7.38-.32,10.93-.51C497.83,23.36,495.94,22.95,489.13,23.17Zm12.62.69c.49-.64,4-.82,7.75-1-1.2.22-1.62.54-1.47,1Zm37.4-2.73c.41-.22,5.76-.82,6.26-.26,1.52,0,1.19-.3,1.52-.48,4.58.2,1.8.36,1.67,1C543.82,21.54,543.94,20.95,539.15,21.13Zm15.72.2c1-.22,1.86-.43,0-.48-.31-.52,5.56-.12,7.83-.26C561.25,21,559.81,21.44,554.87,21.34Zm37.44-2.25c1.3-.83,6.32,0,10.95-.51C604.62,19.49,595.88,18.9,592.32,19.09Zm3.88-8.17c6.12.25,12.2.52,11.18,1.89C604.13,12.11,597.3,12,596.2,10.92Zm3.86,7c2.26-.38,10.49-.81,1.47-1,2.06-1,10-.13,15.66-.28C612,17.45,609,17.41,600.06,17.87ZM618.6,123.44c2.7-.5-1.21-.47,1.48-1,10.08.49,12.68.49,22,.43C638.82,123.75,626.6,123.28,618.6,123.44ZM610.5,12.56c-2-1,12.71-1.06,11,0C615.83,12.35,614,13.1,610.5,12.56Zm3.72,5.75c0-.73,10.21-.59,12.53-.27C622.87,18.49,620.71,18,614.22,18.32Zm31,104.82c-1.53-.88,8.22-.46,9.39-.26C653.37,123.34,647.83,123.54,645.26,123.13ZM639.09,15.86c-.41-.71,5.51-.86,7.79-.5A34.59,34.59,0,0,1,639.09,15.86Zm31.18-2c10.49.13,18.87-.9,26.63-.54,1.21.73-2.63.71-1.42,1.45-2.43-.43-10.75.07-9.51-.94C683.81,14.69,675.82,13.9,670.27,13.86Zm3.17.23c2.7.4,1.39,1.41-4.57,1.21,4.6-1.45-7,.15-8-1.18C667.31,14.31,666.3,14.15,673.44,14.09Zm16.81-4.6c4.14-.71,6.07-.22,11,0C697.07,10.18,695.15,9.69,690.25,9.49ZM799.37,125.89c-.47-.39,1.46-.41,1.49-.72,5.06-.07,6.69.41,12.58.21C812.82,126.13,802.71,126.27,799.37,125.89ZM803.72,14c3.64-.84,9.91.1,12.45-1,8.06.15,11.14.67,17.27,0,0,.4.08.8.13,1.2C824.94,13.9,813.76,14.51,803.72,14ZM826,125.58c5.7.38,7.6-.06,12.58.21C838.11,126.59,825.22,126.47,826,125.58Zm9-112.12c5-1.22,17.63-1.14,23.51-.29,5.9-1.14,11.64-2,23.44-1-4,.7-15-.16-17.09,1.72C851.8,13.52,841.24,13.94,835.07,13.47Zm3.46,3.11c-.05-.7,8.8-.59,11-.26-.91.65-4.23,1-9.34,1C840.27,17,840.36,16.62,838.53,16.58Zm14.15.45c1-.88,6.27,0,12.54-.27-.15.43,2,.5,1.66,1C861.82,17.54,856.45,17.41,852.68,17Zm25.69,114a64.47,64.47,0,0,1,11-.26C887.85,131.65,884,130.77,878.37,131ZM867.7,10.27c.16-.53,6.66-.12,9.41-.26-3.33.53.45.51,4.75.47C880.06,11.45,872.21,10.36,867.7,10.27Zm8.22,3.58c0-.24-.06-.48-.07-.72l7.84,0C884.33,13.84,878.62,13.63,875.92,13.86Zm16.63,117.57c1.4-.42,4.85-.54,9.38-.5C901.12,131.5,896,131.94,892.55,131.43Zm4.34-3.61c.12-.46,5.88.18,7.86.22C903.12,129,898.58,128.21,896.89,127.82Zm12.47-1c.12-.61,5.21-.49,9.36-.5C919.24,127.1,911.94,127.21,909.36,126.83Zm15.76.68c-1.79,0-.89-.24,0-.24.4-.63-6.11-.18-4.8-.95,3.78.09,3.36-.45,7.83-.26a10.25,10.25,0,0,0,3.18.47C931.2,127.15,925.21,126.89,925.12,127.51ZM922.58,9.66c.29.28,2.88.19,4.74.23,1.54.44-4.62.81.1,1-1.51.38-6.42-.76-8-1.18,5.56-.09,3.79-.67,9.41-.26C928.39,9.74,924.92,9.62,922.58,9.66Zm15.63,123.1c-.45-.79,8.53-1.1,7.84,0A33.49,33.49,0,0,1,938.21,132.76Zm1.06-5c-.82-.75,4.14-.64,4.57-1.21,2.13.16,3,.51,3.24,1A59.2,59.2,0,0,1,939.27,127.72Zm10.17-116.2c.82-.2,1.6-.4,1.51-.72,1.8.08,4,.42,1.62.48,1,.24,3.62.24,3.21.72-1.42-.15-2.84-.29-3.14,0C950.93,11.94,951.52,11.52,949.45,11.52Zm10.9-1c1.07.93,1.41,1-1.4,1.69C956.52,11.73,953.83,10.58,960.34,10.53Zm20,119.73c.22-.28-.4-.43-1.62-.48,3.48-.51,3,.5,9.41,0-.53.41,1.27.45,3.19.47C988.24,130.84,985.45,129.54,980.35,130.26Zm7.5-111.63c11.78-1.18,40.55-.8,51.67-1.32C1035,18.82,1004,18.38,987.85,18.63Zm17.1-1.72-.08-.72a81.11,81.11,0,0,1,9.43.22C1014.2,17,1009.12,16.89,1005,16.91Zm10.91-.75-.08-.72c3,.09,6.77.07,6.36.7Zm7.45-3.86a2.07,2.07,0,0,1,1.57,0c5.33-1.11,1.28.64,6.33.46-.45.33-3.91.21-6.26.25C1025.06,12.68,1025.16,12.34,1023.31,12.3Zm30.34,5c.23-.83,8.62-.46,12.48-.75C1064.15,17.63,1058.59,16.79,1053.64,17.27Zm72,121.28a48.64,48.64,0,0,1,11-.27C1135.94,138.83,1128.84,138.41,1125.61,138.56ZM1269.07,20.84c13,1.63,4.34,2.7-13.89,2.43,1.37.35,5.08.33,7.89.46.84.76-7.17.2-7.77.74-2.13-.07-1.37-.6-1.66-1-15.23.28-16.35.4-32.92.56-2.18-.91-8,0-11.09-.93-4.25.23,4.83.53.1,1-11-.17-10-.83-22-.43-.19.68,10.24-.32,7.92.7a145.9,145.9,0,0,0-18.8.29c-.55-.56.17-.92,1.44-1.2-4.14-.06-5.12.34-4.61,1-7.94.28-9.69-.42-12.65-.93,8.16-1.8,36.56,0,47-1.31,18.75.56,35.59.36,55,.59-.28-.44-5.33-.13-6.32-.47.16-.75,9.54-.48,9.43.22C1270.48,22,1270.77,21.83,1269.07,20.84Zm-86.4,123.34c1.07-.54,7.3-.82,9.38-.5C1190.65,144.1,1187.18,144.22,1182.67,144.18Zm4.89,1.67c-1.33-.92,7.42-.94,6.27,0Zm-1.8-17.76c2.89-.44,17.13-.6,14.2.69A134.17,134.17,0,0,0,1185.76,128.09Zm7.86,15.58c8.68-1.13,23,.07,31.37-.31-2.66.31-4.18.8-4.57,1.45-7.93,0-13.87-.91-20.44-.43C1198.57,144,1198.62,143.45,1193.61,143.68Zm-2.45-117.13c1.11-.55,8.79-.11,12.53-.27C1201,27.46,1197.62,26.61,1191.16,26.55Zm14.08,107.74c1.19-.22,1.62-.55,1.46-1,4.83-.19,3.09.65,7.91.46C1214.48,134.4,1209.38,134.27,1205.23,134.29Zm4.47-2.17c0-.24,0-.48-.06-.72,7.61-.58,11.69.15,20.44.43C1223.77,132.44,1217.29,131.62,1209.7,132.12Zm20.36-.53c13.14-.75,23.71.63,39.24-.09-1.51.59-.47.51-1.43,1.44-7.36-.76-22.5-1.2-25.12-.18-2.78-.05-3.62-.41-3.25-1-4.55.22-1.72.36-1.47,1C1233.49,132.67,1234.23,131.75,1230.07,131.59Zm-5.74-103c-.26-1.08,4.75.09,9.4-.26C1231.58,29,1228.35,28.8,1224.33,28.63Zm16.37,6.68c17.49-1.09,45.17-.44,62.76-.39,3.92-.25-1.37-1.06-4.8-.95,1.52-.68,6.66.05,9.41,0,.23.43-1.86.51-1.47,1,.73.54,7.74.08,11,.22-21.14,2.38-43,.63-75.25.89C1242.44,35.69,1242.53,35.35,1240.7,35.31Zm1.74-13.92c1.53-.4,6.63-.28,9.36-.5-.17.43,2,.5,1.66,1C1247.23,22.09,1248.67,21.13,1242.44,21.39Zm30.12,111.3c.06-.94,6.73-.89,12.45-1,.24.43-1.86.51-1.47,1C1280,132.12,1277.43,132.76,1272.56,132.69Zm4.66-108.74c.45-.56,2.39-.91,1.41-1.68,8.7.16,12.49.68,22.08,1.15C1295.57,24.47,1286.76,23.53,1277.22,23.94Zm48.21-4.43-7.84,0c25.47-.81,60-1.24,91-.22,1.7-.06,1-.48,3.09-.49,3.66.07,6.51.28,9.46.46-.28.75-7.77.42-12.52.51-.09.34-.18.68,1.65.72-15.33.52-42.78-.05-65.79,1.36a89.34,89.34,0,0,1-12.67-1.17c-4.57.21,1,.77.12,1.2-4,.2-7.31-.92-9.43-.22-4.6-.2-1.81-.35-1.67-1-7.9.38-13.68.69-18.8.53-1.53.81,4.92.36,7.91.46-4.84.85-16,.55-20.41,0-1.26-.91,7.19-1.59-1.74-1.67,6.83-.85,24.95.74,28.22-.31-11.94-.55-33,.34-39.35-1.11,16.65-1.09,30.77.27,48.65-.12C1325.37,18.87,1325.4,19.19,1325.43,19.51Zm-43,9.22c0-.65,3.47-1.16,6.19-.74C1289.18,28.63,1285.41,28.62,1282.42,28.73ZM1298,27.26c-.3.19-1.56.24-1.52.48,20,0,22.1-.36,39.15-.81,6.54,2.47-29.94,2-39,2.25C1289.95,28.56,1288.63,27.58,1298,27.26Zm9-3.62c1-.56,5.15-.65,6.14-1.21,2.18.72,13.46,0,14.23.93C1320.46,22.66,1315.12,24.14,1307,23.63Zm60.67,10.18c.08.23,2,.18,3.17.23-.32.35-4.67.1-4.66.49,1.72.54,9.89.07,14.15.21-6.53,1.13-22.58.83-28.09,1.51-2.46-.51-1.23-1.3-.15-1.44-1.49-.8-3.51,0-6.34-.47-4.36.32,5,.48,3.27,1.19-12.1,0-14.8-.26-20.36.53-5-.34.22-.4-9.44-.22-1-1.66,10-.37,14-1-5.35-1-20.33.94-20.46-.67,19.59.21,44.09-1.62,65.92.08C1375.44,34.75,1373.55,33.65,1367.69,33.81ZM1327.56,25c-5.51-.05,3.86-.9-1.66-1,1.47-.74,5.3.09,6.3.22C1332.75,24.85,1327.7,24.57,1327.56,25Zm6.19-1c11.53-.61,37.95-.28,31.47.89C1357.28,23.94,1346.63,25,1333.76,24Zm28.63,19.14c-2.48-.08,1.32-.43-1.62-.48,3-1.09,13.33-.08,18.83,0C1377.78,43.92,1365.45,42.42,1362.38,43.19Zm15.7,0,7.84,0c-1,.22-1.85.43,0,.48-.31.35-4.67.09-4.66.49C1378.54,44,1377.68,43.7,1378.08,43.15ZM1369.84,24c10.32-.64,33.45,0,51.74-.6-10.72,1.89-28.83.59-45.41,1.07C1377.67,23.7,1372.64,24,1369.84,24Zm55.47,20.75c3.64.43,13.32-.41,15.78.68a88.25,88.25,0,0,1,10.93-.5c.93.5,4.56.76,1.7,1.2-3.62.08-1.83-.69-4.79-.71-3.64.08-3.59.66.08.72-16,.47-23.71.55-37.67.09,3.48-.22,7.15-1,10.93-.51,0-1.49-7.36-.62-11-.21-.43-.29-6.07-.94-3.23-1-.29-.76,7.79,0,12.51-.51-4.34-.69-18,.18-20.43-.19,1.08.58,3.3,1.23-3,1.21.77-1.67-7.15-2-15.92-2.12,1.2-.22,1.64-.55,1.47-1,17.07.79,52.19-.92,75.31-.42.24.43-1.88.51-1.47,1,5-.13,5.44-.93,10.88-1,0,.32.06.64.1,1,2.81,0,3.28-.3,6.24-.25,3.54-.15-1.94-.37,1.5-.72l7.86,0c-.23.28.4.43,1.61.48-2.93.51-4.14,1.28-10.86,1.23,1.24.21,1.74.54,1.66,1-3.72-.47-8.79.47-12.58-.21-2.08.16-2.87.52-3,1C1446.91,44.62,1439.42,44.5,1425.31,44.72Zm3.93-23.3c1.41.76-2.41.75-3,1.21-8.89-.27-11-.08-20.44-.19,9,1.13-19.63.83-22,.05C1398.62,21.45,1419,22.66,1429.25,21.42Zm-6.39-.94c.36-.56,6.89-.15,7.84,0C1429.55,21.3,1425.25,20.75,1422.86,20.48Zm9.63,2.14c-1.17-.88,2.39-1.07,7.75-1,1.21.65-3.07.49-3,1,12.59.67,25.34-.09,30,1.61-11-.35-15.16.23-23.48.78a46,46,0,0,0-6.34-.71c2.3-.56,3.79-.38,7.82-.26C1443.75,23.12,1439.47,22.66,1432.49,22.61Zm50.2-.36c1.18-.55,9.69-.26,7.89.46a49.79,49.79,0,0,1-6.25.26C1484.44,22.63,1484.53,22.29,1482.69,22.26ZM1530,147.68c3.77-1,8.05.19,14.15.21.77.67-8.58-.17-7.8.5C1532.17,148.46,1535,147.46,1530,147.68Zm49.93-3c9-.37,17.81.54,26.63-.54,5.54-.07,3.22,1.12,9.5.93,1.55.44-4.61.81.1,1-7.87.64-13.11.63-21.89.77-2.06-.31-2.11-.88-.13-1.2C1589.14,145.33,1583.18,145.22,1579.88,144.68Zm16.39-116.94c.14-.53,6.64-.12,9.39-.26C1605.71,28.14,1598.31,28.07,1596.27,27.75Zm5.81-4.57c.63-.54,7.73-.12,11-.27C1612.53,24.27,1608.06,23,1602.08,23.17ZM1662,25.91c-4.66-.41,3.46-.88,7.78-.74C1671.43,26.35,1662.12,25.54,1662,25.91Zm59.36,105.47c5-.34,12.19-.33,9.3-1.22,11.75-.31,16.32,2.62,6.64,3.58C1731,133.12,1721.55,133,1721.37,131.38Zm49.91-80.53c-.79-.75,3.27-.77,7.79-.74-.17.43,2,.5,1.66,1A80.72,80.72,0,0,1,1771.28,50.86Zm111.53,78c-1.38-1.15,5.94-1,9.26-1.46.55-1.9-5.62-2.4,1.21-3.6,5.91-.12,7.41.46,11,.69,1.69,2.06.91,2.07-2.75,3.85-4.18.25-12.3-.09-10.9,1C1888.62,129.06,1884.89,129.08,1882.81,128.84ZM1889,81.3c.62-.54,8.32-.21,9.42,0a28,28,0,0,1-6.22.5C1892.7,81.36,1890.9,81.32,1889,81.3Zm23.38,44.59c2.79,0,3.33.29,6.28.23,1.38.67-2.15.63-1.44,1.2C1915.16,126.91,1911.82,126.7,1912.34,125.89Zm-1.7-78.49c-1.18-.9,11.83-.61,9.43.22C1916.93,48.14,1913.87,47.57,1910.64,47.4Zm64.73,3.69h3.14c-.2.78,3.81,1.15-3,1.21C1976.36,51.52,1972.49,51.56,1975.38,51.09Z"/><path class="cls-2" d="M365.53,11.7c3.12,0,1.93-.66,6.23-.49,6.8.41,15.42.44,20.37-.53,3.27.13,3.35.37,1.62.72,18.32-.81,32.07-.24,48.51-1.56-3.95.91,15.55.55,11-.26,21.38.66,54.58.29,73.64-1.38-7.7.37-21.79-.47-28.2.55,3.5-1.06-6.92-.15-7.82.26l-.08-.72c-67.49.31-142.18.95-200.86.71-6.39.86-27.91-.28-34.37,1.52a137.92,137.92,0,0,0-20.43-.19c3.44-1.35-9.63-.11-8-1.18-7.2.53-15.65-.6-18.8.29,9.7.23,15.92-.47,18.89.68-9.19-.26-19,.41-25.18-.66-7.2.33-20.78,1.22-26.66.3-.7,1.11-8.47-.2-12.51.51-.57.41,2.39.61.08.72-6.12.52-13.77-.5-18.83,0,1.9,0,3.72.06,3.18.47-4.79.19-4.65-.4-9.44-.22-.5.81,6.83.38,9.49.7,3.21-.76,21.17-.86,23.5-.3-5.33.43-7.06,1-12.53.27-1.06.66,3.18.48,3.24,1,5.23,0,5.29-.79,10.91-.75-1,.65-4.41.92-6.12,1.46,5.66.05,4.15-1,9.31-1,1.56.44-4.62.81.1,1,3.12-.71,8.24.3,11,.45-1.24-1.4,7.84.11,10.91-.75-4.8.33-9-.66-4.79-.95,3.69.81,6.58.25,12.63.69,0,.24,1.29.28,1.6.48-7.31,0-6.07,1.32-1.54.24,9.81.2,20.39.47,26.76.65a43.45,43.45,0,0,1-4.76-.47c9.51-.1,7.91.87,9.39-.26,6.62-.07,5.63,1.06,9.57,1.42-1.61-.87,7-.22,6.18-1-3-.1-9.43.35-7.89-.46,10.26.13,11.5.13,20.37-.29-.31.46,1.83.53,1.66,1-4.74-.32-11.42-.32-12.51.51a93.1,93.1,0,0,0,18.73-1c4,.79,9.77.2,9.41-.26,4.57.37,2,.89.14,1.44,9.12-.25,12.2-.28,18.89.44-2.21.07-1.76.53-3.08.73,6.24-.61,7.14-.33,12.58.21,5.42-.81,25.7-1.52,36-.56,6.1-1,12-.69,26.58-1,2.11-1.06-9.39,0-9.49-.7,1.9-.79,12.73-1.51,17.22-.52.67.57-7.15-.12-4.64.73C394.66,13.56,373.47,12,365.53,11.7Zm-164.73.87-.08-.72c4.92-.29,3.86.37,6.34.46C206.59,12.65,203.13,12.53,200.79,12.57Zm12.65.93c5.15-.8,12-2,20.31-1,0,.32.08.64.1,1-2.78.15-6.58-.69-7.85,0-5.23-.22,1.71-.48,1.5-.72C223.49,12.17,221.42,13.89,213.44,13.5Zm75.31-.42c3.47-.64,16.92-.75,18.85.2C301.38,13.21,292.58,13.54,288.75,13.09Zm9.59,1.66c1.67-.62,8.38-.49,14.08-.51C310.14,15.11,304.34,14.93,298.34,14.74Zm12.4-1.47a67.12,67.12,0,0,1,9.36-.5C321.55,13.68,313.17,13.64,310.74,13.27Zm6.48,1.91c-.54-.63,2.08-.79,6.21-.74C324,15.08,321.33,15.24,317.22,15.18Zm4.51-1.93c2.9-1.58,20.28.15,17.37.92A118.24,118.24,0,0,0,321.73,13.25Zm14-1c-2.32-.25,6.64-.1,12.53-.27C346.48,13,339.41,12.66,335.76,12.25Zm6.53,2.63c-1.74-.61,4.67-1.16-.13-1.44,7.34.05,9,.22,20.46.43C359.7,14.78,352,15,342.29,14.88Z"/><path class="cls-2" d="M-30.08,26.8c-6.22-.34.26-.28-.1-1l7.84,0c-3.09.5.75.47,1.66,1,4.95,0,.54-1.34,7.77-1,.91.53-3,.35-3.07.73a87.38,87.38,0,0,1,17.26,0c-2.44.7-5.84.3-9.43,0-1.29.43-4,.67-4.57,1.21A51.46,51.46,0,0,0-19,27.5c.24-.28,2.85-.21,4.69-.25C-17.14,27.2-28.42,26-30.08,26.8Z"/><path class="cls-2" d="M7.52,26.24c3.58-.08,5.91,0,6.34.46,4.53-.22,1.72-.36,1.45-1H21.6c-7.9.77,2.86.4,3.27,1.19C18.23,26.51,11.11,27.35,7.52,26.24Z"/><path class="cls-2" d="M46.76,26.14c-6-.2-10,.42-12.56,0,.52-.32,2.72-.38,3.06-.73,4,.31,14.29.49,9.57,1.42C44.5,26.76,47.43,26.55,46.76,26.14Z"/><path class="cls-2" d="M92.55,28.67c-1.24-.37-5-.35-4.82-.95,11.18-.13,15.14.05,23.51-.3-3.42.57-1.31.64-3,1.21h-4.7c.23-.28,2.85-.21,4.67-.25C106.78,27.55,93.06,27.93,92.55,28.67Z"/><path class="cls-2" d="M116.95,21.65c5.21-.32,10.49.33,18.82,0C130.78,22.27,123.11,22,116.95,21.65Z"/><path class="cls-2" d="M133.21,11.78c-4.82.19-2-.82-7.89-.46,1.4-.66,7.45-.63,7.7-1.46C137.48,10.65,125.48,10.91,133.21,11.78Z"/><path class="cls-2" d="M134.4,23.53c3.17.48,9.87.4,14.2.69,0-.16,0-.32-.05-.48C155.58,24.59,133.3,24.63,134.4,23.53Z"/><path class="cls-2" d="M158.65,15.08c-.71-.5,1-.64,1.49-1,3.62.13,3,1.66,9.52.94,4.87.23-3.38.4-3.06.73C164.11,15.51,163.24,15,158.65,15.08Z"/><path class="cls-2" d="M162.73,24.19c2-1,10.19,0,14.14.2-.8.2-1.58.4-1.5.72,6.19-.59,4.3.53,9.5.7,1.69-.06,1-.48,3.08-.49q7.36-.19,6.37.94a114.19,114.19,0,0,0-15.69,0l-.08-.72a61.09,61.09,0,0,1-7.87-.22c.88.61,2.17.83-1.44,1.2-.58.58,7.13-.15,4.76.71-3.23-.22-6.26-.48-9.48-.7,6.9-.33,2.89-.81,1.39-1.68,3,.44,3.95,0,7.84,0C174.72,23.92,167.75,24.21,162.73,24.19Z"/><path class="cls-2" d="M168,14.09a49.17,49.17,0,0,0,9.44.22c0,.41,1.23.62,3.22.71C180.29,15.06,168.13,14.89,168,14.09Z"/><path class="cls-2" d="M192.64,25.08a17.29,17.29,0,0,1,9.52.94c1.57-.16,1.56-.56,4.66-.49C203.42,27.17,198.14,25.22,192.64,25.08Z"/><path class="cls-2" d="M743.73,10.57c-4,.13-9-.83-4.84-1.19C738.86,9,740.64,10.15,743.73,10.57Z"/><path class="cls-2" d="M826.75,8.93c-2.32-.58,10.54.59,14.13,0-4.15.69,3.28.92,6.4,1.19-3,.85-7.87.2-14.1.27C840.33,9.75,830.49,9.25,826.75,8.93Z"/><path class="cls-2" d="M1036.92,7.23c-.64.36-2-.09-4.7,0,2.17-.36,5-.53-1.62-.48-1.25-.4,9-.54,12.53-.27C1042.89,6.88,1031.48,6.78,1036.92,7.23Z"/><path class="cls-2" d="M1212.87,8.49c-4.46.08,10.67-.69,12.43-1.23,1.51.43,8.39,1.25,11.06.69,2.91,1.28-8.24-.07-15.7,0,.5.49,4.25.47,6.36.7C1224.28,9.27,1220.09,8,1212.87,8.49Z"/><path class="cls-2" d="M1263.33,10.78c-3-.1-9.41.35-7.88-.46,9.22.24,10.76-1.11,6.09-1.69,1-.25,3.59-.26,3.08-.73C1270.54,8.68,1264,9.66,1263.33,10.78Z"/><path class="cls-2" d="M1289.74,8.07c-1.32.72,5,1.45,1.75,1.68-5.4-.19-.47-1-4.89-1.67,2.68.08,3-.2,3.09-.49,9.72.52,13.18-.36,25.11-.06a24.52,24.52,0,0,1-7.82.26c3.5.95-5.68.71-10.83,1.47,0-.4-.1-.8-.13-1.2Z"/><path class="cls-2" d="M1425.06,11.11c-3.48.1-22.16,0-4.77-.47A44.19,44.19,0,0,0,1425.06,11.11Z"/><path class="cls-2" d="M1443.78,10.11c-5.39.31-10.33.68-18.78.53,3.66-.58-2.06-.91-3.3-1.43,4-.18,11.15,0,12.63.69,2.34-.21-.47-.36,1.47-1a45.15,45.15,0,0,0,9.41,0C1448.19,9.2,1439,9.3,1443.78,10.11Z"/><path class="cls-2" d="M1442.4,12c6.11-1.16,32.18-2.48,48.42-2.51,1.83,0,1.26-.44,1.49-.72,4.09.3,5,.48,3.24,1.19,6.83,0,7.18-.38,11,.21,1.92-.11,3.19-.31,3.05-.73,33.76.43,60.43-.37,83.11-.92-4.8.75,5.35.39,3.28,1.43a39.2,39.2,0,0,1,4.67-.25c-.67-.46-6.09-.17-4.78-.95,7.64.41,11,.15,14.27,1.41-2.45.7-8.6-1.1-7.8.5-47.82,0-74.25-.15-128.74-.17-4.23-.16-3,.5-4.64.73-1-.41-7.43,0-7.89-.46-2.27.21-4.93.37-4.61,1C1452.27,11.92,1444,11.48,1442.4,12Z"/><path class="cls-2" d="M1570,31.89c-.05-.71,7.38-.33,9.34-.74a42.41,42.41,0,0,0-4.75-.47c9.45-1.63,26-.42,40.72-.82-4.45,1.39,31.45,1.82,34.59.4,5-.22,3.32.61,6.35.7,4-.35,5.75-1,10.86-1.22-1.19.21-1.64.55-1.46,1,6.76-.4,10,1.16,15.85,1.64,1.7-.68,6.86-.49,11-.27-6.73.55,1.37.87,7.91.7-9,.64-11.73,1.48-21.82,1.49.51-.32,2.72-.39,3.05-.73a148.27,148.27,0,0,0-20.46-.67c-2.06-.31-2.11-.88-.13-1.2-4.78.78-18.95-.23-21.84,1.25-3.51-.18-6.18-.49-11-.45,1.6-1,4.78,0,9.43,0a12.08,12.08,0,0,0,3.07-.73C1621.89,31.79,1592.32,31.52,1570,31.89Z"/><path class="cls-2" d="M1586.6,40.73c-3.08-.65-12-.39-14.25-1.17,6.55,0,15.26.7,18.89.43C1595,40.13,1587.5,40.51,1586.6,40.73Z"/><path class="cls-2" d="M1633.26,20.94c-9.13.4-14,.2-23.49.54.64-.3,2-.5,4.65-.49-.86-.19-1.67-.38-1.63-.71a140.35,140.35,0,0,0,23.52-.3C1634.16,20.19,1623,21,1633.26,20.94Z"/><path class="cls-2" d="M1655.17,20.41c-3-.61,6.44.24,4.81.95a51.49,51.49,0,0,0-6.31-.22C1652.82,20.79,1659.74,20.53,1655.17,20.41Z"/><path class="cls-2" d="M1662.47,14.87c-.32-.2.59-.23,1.55-.24,0-.16,0-.32-.05-.48,2.32,1.09,18.8,0,17.42,1.64-3.34.12-3-.34-3.19-.71C1671.44,14.89,1666.27,15,1662.47,14.87Z"/><path class="cls-2" d="M1720.35-2.55c4.58-.07,4.88.53,9.47.46-3.56.24-7,1.08-12.49.75-.15.43,2,.5,1.67,1-5.73,0-6-.31-11,0a13.87,13.87,0,0,0,4.76.47c-2.17.7-5,.15-7.75,1-3.35-.07.14-1,1.44-1.2a51.46,51.46,0,0,0-7.91-.7c1-.25,3.58-.26,3.07-.73C1711.64-1.85,1716.13-1.58,1720.35-2.55Z"/><path class="cls-2" d="M1709.81,48.36c-1.78,0-.89-.24,0-.24-1-.24-3.63-.24-3.21-.71,4.89.12,6.9.7,11.09.94C1722.09,49,1709.14,47.81,1709.81,48.36Z"/><path class="cls-2" d="M1723.35,42.57a29.14,29.14,0,0,1,9.34-1c-5.93,1.23,9.06-.4,14.13.21,1.43-.07,4.07-1.07,1.48-1,6.85.38,31,.26,40.94,1.35,3.24-1.56,11.35.5,14-1,2.89,0,1,.81,3.24,1,7.51-.85,15.76.44,22,.19,2.35.08-1.85,1.93,4.82.95,2.67,1-8.51.55-9.47-.46-6.85.16-11.1-.06-17.31-.44-2.76.07-3.54.42-3.05,1-9.07-.15-9.64-.63-17.27,0,2.94-2.55-21.69,0-30-1.85C1748.3,42.46,1736.19,42,1723.35,42.57Z"/><path class="cls-2" d="M1754.57,25.21c1.39-.42,4.84-.54,9.36-.51,1.23-.68-2.27-.61-1.7-1.19,8.63,0,13.05-.59,18.74-1-3.86,1.44,32.27.83,34.82,2.8a50.44,50.44,0,0,1,6.26-.25c2.8.69,7.47,1.1,14.26,1.16,7.69,1.69,25.25,2.07,30.17,3.53-4.48-.41-13.78.25-11,.27-27.28.74-74.71-2.46-95.7.71,5.19.34,9.51-1.19,20.35-.77-8.09.71-9.21,1.79-20.17,2.45-.2.69,10.23-.31,7.92.7-2.58.43-5.28-.2-11,0,6.76-1.61-15.45-1.37-20.55-1.15,0-.48,4.26-.32,3.06-1,5.82-.16,10,.59,14.13,0-7-1.62-18-.59-29.93-.89,11.63-.25,22.54-2.64,35.75-3.45,6.36.21,14.79.22,15.6-1,3.72.06,3,.83,7.93.7,4.92-.49-.6-1.29,10.88-1,2.1-.16,2.88-.52,3-1-4.3-1-20.49.4-17.36-.92-3.5-.12-2.18.47-4.66.49-.56.58,7.14-.15,4.79.71-2.91.48-7.55.16-6.36-.7C1765.29,24.12,1764.16,25.29,1754.57,25.21Z"/><path class="cls-2" d="M1742.38,44.44c.19-.54,4,.3,7.85,0,1.83.75.8.63-1.44,1.2C1747.08,45.14,1749.43,44.52,1742.38,44.44Z"/><path class="cls-2" d="M1808.25,43.81c6,.08,13.14,0,20.44.43C1827.11,44.23,1809.47,44.68,1808.25,43.81Z"/><path class="cls-2" d="M1833.92,33.67c-1.05,2.08-18.44-.06-26.73-.42C1817.13,33.22,1827.71,33.1,1833.92,33.67Z"/><path class="cls-2" d="M139,22.08c2.44-.19,2.27-.77,6.21-.73-.78,1.1,6.82.87,12.65.93.7,1-9.75.29-14.08.51C142.06,22.57,143.16,21.91,139,22.08Z"/><path class="cls-2" d="M1653.54,4.33c1,.53-5.23.18-4.57,1.21-2.07-.81-11.53-.45-11.16-1.65-8.3.42-14,1.23-12.25,3.15-16.22,1.64-37.86.26-47.23-1.33-5.41-3,1-5.1,13.57-5.55,18.71-.67,39.41,2.65,53.5,1.31,5.26.35,21,.39,28.38,1.13-1.69.76-.08.54.15,1.44-5.94.22-16.17-.19-15.6,1A18.46,18.46,0,0,1,1653.54,4.33Z"/></svg>