<svg xmlns="http://www.w3.org/2000/svg" viewBox="0 0 360 288"><defs><style>.cls-1{font-size:58.73px;}.cls-1,.cls-5,.cls-9{fill:#727270;}.cls-1,.cls-5{font-family:EccentricStd, Eccentric Std;}.cls-2{letter-spacing:-0.04em;}.cls-3{letter-spacing:0em;}.cls-4{letter-spacing:-0.03em;}.cls-5{font-size:59.72px;}.cls-6{letter-spacing:-0.01em;}.cls-7{fill:none;stroke:#727270;stroke-miterlimit:10;stroke-width:3px;}.cls-8{fill:#f6c120;}.cls-8,.cls-9{fill-rule:evenodd;}</style></defs><title>Industry_fullLogo</title><g id="Layer_4" data-name="Layer 4"><text class="cls-1" transform="translate(13.32 123.09) scale(1.48 1)">INDU<tspan class="cls-2" x="83.75" y="0">S</tspan><tspan class="cls-3" x="100.95" y="0">T</tspan><tspan class="cls-4" x="120.51" y="0">R</tspan><tspan x="142.36" y="0">Y</tspan></text><text class="cls-5" transform="translate(16.32 189.07) scale(0.94 1)">PUBLIC HOU<tspan class="cls-6" x="211.18" y="0">S</tspan><tspan x="230.47" y="0">E</tspan></text><line class="cls-7" x1="45" y1="135.84" x2="226.5" y2="135.84"/></g><g id="Layer_5" data-name="Layer 5"><g id="Shape_3" data-name="Shape 3"><path class="cls-8" d="M340.87,116.41a9.34,9.34,0,0,1-3.26.28c-4.7-.43-8.2-4.21-7.82-8.46a7.84,7.84,0,0,1,6.44-6.75,39.67,39.67,0,0,0-2.87-4.39,8.37,8.37,0,0,1-2.52,1.6,9.07,9.07,0,0,1-11.38-3.87,7.13,7.13,0,0,1,1.65-8.7,45.65,45.65,0,0,0-4.8-2.51A7.25,7.25,0,0,1,315.08,86a9.08,9.08,0,0,1-11.89,1.76,7.49,7.49,0,0,1-3.44-8.21,48.34,48.34,0,0,0-5.42,0,7,7,0,0,1,.23,2.51c-.39,4.25-4.52,7.34-9.22,6.92a8.58,8.58,0,0,1-7.47-5.56,44,44,0,0,0-4.64,2.39,7.92,7.92,0,0,1,1.53,2c2,3.89.19,8.47-4.08,10.22a9.31,9.31,0,0,1-9.48-1.49,37.54,37.54,0,0,0-2.69,4.19,9.12,9.12,0,0,1,2.48,1.11c3.88,2.49,4.85,7.32,2.16,10.78a8.9,8.9,0,0,1-9,3,35.77,35.77,0,0,0,0,4.92,9.38,9.38,0,0,1,2.85-.18c4.7.43,8.2,4.21,7.82,8.46a7.82,7.82,0,0,1-6.27,6.72,39.47,39.47,0,0,0,2.76,4.37,8.39,8.39,0,0,1,2.47-1.55,9.07,9.07,0,0,1,11.38,3.87A7.14,7.14,0,0,1,273.3,151a45.48,45.48,0,0,0,4.87,2.64,7.22,7.22,0,0,1,1.3-2.64,9.08,9.08,0,0,1,11.89-1.76,7.45,7.45,0,0,1,3.3,8.67,48.46,48.46,0,0,0,5.72.09,7,7,0,0,1-.39-3c.39-4.25,4.52-7.34,9.22-6.92a8.49,8.49,0,0,1,7.65,6.18,44,44,0,0,0,5-2.55,8,8,0,0,1-2.05-2.51c-2-3.89-.19-8.47,4.08-10.22a9.27,9.27,0,0,1,10,1.95,37.47,37.47,0,0,0,2.84-4.49,9.16,9.16,0,0,1-3.13-1.27c-3.88-2.49-4.85-7.32-2.16-10.78a8.94,8.94,0,0,1,9.52-2.84A35.73,35.73,0,0,0,340.87,116.41Zm-36.1,3c-.33,3.62-3.85,6.26-7.87,5.9s-7-3.59-6.67-7.21,3.85-6.26,7.87-5.9S305.1,115.79,304.77,119.41Z"/></g><g id="Shape_2" data-name="Shape 2"><path class="cls-9" d="M297.48,185.68a11.4,11.4,0,0,0,8.69-3.79H288.79A11.41,11.41,0,0,0,297.48,185.68Zm13.62-16.32a2.58,2.58,0,0,0-2.77-2.32h-21.7a2.36,2.36,0,1,0,0,4.65,2.36,2.36,0,1,0,0,4.65,2.36,2.36,0,1,0,0,4.65h21.7a2.36,2.36,0,1,0,0-4.65,2.36,2.36,0,1,0,0-4.65A2.58,2.58,0,0,0,311.1,169.35Zm-9.6,8.59H289.57a1.33,1.33,0,1,1,0-2.63H301.5a1.33,1.33,0,1,1,0,2.63Zm4.16-5.26H289.29a1.33,1.33,0,1,1,0-2.62h16.37a1.33,1.33,0,1,1,0,2.62Zm14.08-74.33a33,33,0,0,0-13.38-6.84,36.27,36.27,0,0,0-8.89-1.09,34,34,0,0,0-22.26,7.94A25.15,25.15,0,0,0,266,117.51c0,.06.13,2.43.13,2.43a24.25,24.25,0,0,0,3.76,10.61l-.18-.48.49,1c7,11.49,10.79,21.17,10.79,27.25,0,.13.39,3.35.39,3.35,1.08,3.85,3.77,4.4,5.29,4.4h21.64c1.51,0,4.21-.55,5.25-4.23,0-.18.42-3.39.42-3.39,0-10.57,11.08-27.73,11.19-27.9A25.31,25.31,0,0,0,328.82,120c0-.06.13-2.43.13-2.43A25.18,25.18,0,0,0,319.74,98.36Zm6.06,21.46a22.9,22.9,0,0,1-3.31,9.5c-.09.14-11.55,17.77-11.55,29,0-.13-.38,3.08-.38,3.08-.6,2.06-1.77,2.06-2.28,2.06H299.1l-.05-5.26c0-4.74-.08-10.36-.52-15.6l.16-.7c0-.19.08-.33.13-.51a34.25,34.25,0,0,0,4.42-2.35c2-1.21,10.44-8.19,10.44-13.3,0-.11,0-.23,0-.34a4.24,4.24,0,0,0-2.79-3.59,6.36,6.36,0,0,0-5.14-.15c-4,1.65-6.59,7.48-8.36,13.38a25.38,25.38,0,0,0-1.29-4.47c-2.72-6.11-5.78-7.28-7.87-7.19a5.08,5.08,0,0,0-4.54,3.85,7.92,7.92,0,0,0-.35,2.35c0,3.32,1.94,7.18,6.75,9.86l.79.44a15.6,15.6,0,0,0,4.52,1.9c.53,5.41.62,11.4.64,16.42l.05,5.25h-9.42c-.5,0-1.67,0-2.31-2.24,0-.11-.35-3-.35-3v0c0-6.37-4-16.47-11.12-28.31l-.29-.48a22.11,22.11,0,0,1-3.45-9.64s-.12-2.31-.12-2.31a22.72,22.72,0,0,1,8.33-17.25A30.75,30.75,0,0,1,297.48,93a32.85,32.85,0,0,1,8,1,29.8,29.8,0,0,1,12.09,6.19,22.74,22.74,0,0,1,8.33,17.31ZM299.68,138c2.7-10,5.45-13.13,7.37-13.92a2.9,2.9,0,0,1,2.43.11,1.64,1.64,0,0,1,1.17,1.45c0,.06,0,.12,0,.19,0,3.53-7,9.86-8.91,11C300.85,137.31,300.31,137.6,299.68,138ZM295,139a18.69,18.69,0,0,1-2.53-1.24l-.79-.44c-3.82-2.12-5.36-5.2-5.36-7.72a5.52,5.52,0,0,1,.24-1.63c.35-1.14,1-1.89,1.78-1.92,1.1,0,3,1.37,4.88,5.52A29.67,29.67,0,0,1,295,139Z"/></g></g></svg>