<?xml version="1.0" encoding="utf-8"?>
<!-- Generator: Adobe Illustrator 22.1.0, SVG Export Plug-In . SVG Version: 6.00 Build 0)  -->
<svg version="1.1" id="Layer_1" xmlns="http://www.w3.org/2000/svg" xmlns:xlink="http://www.w3.org/1999/xlink" x="0px" y="0px"
	 viewBox="0 0 327.7 133.9" enable-background="new 0 0 327.7 133.9" xml:space="preserve">
<g id="Layer_4">
	<g enable-background="new    ">
		<path fill="#727270" d="M3.1,48.7v-2.2c3.6-0.3,3.6-0.6,3.6-2.3V11.7c0-1.7,0-2.1-3.6-2.3V7.2h11.5v2.2C11,9.6,11,10,11,11.7v32.5
			c0,1.6,0,2,3.6,2.3v2.2H3.1z"/>
		<path fill="#727270" d="M20.5,46.5c3.6-0.3,3.6-0.6,3.6-2.3V11.7c0-1.7,0-2.1-3.6-2.3V7.2h7.9v0.6c0,1,0.2,1.1,1.5,1.6l14.2,5.3
			v-3c0-1.7,0-2.1-3.6-2.3V7.2H52v2.2c-3.6,0.2-3.6,0.6-3.6,2.3v32.5c0,1.6,0,2,3.6,2.3v2.2H40.5v-2.2c3.6-0.3,3.6-0.6,3.6-2.3V17.7
			l-15.6-6v32.5c0,1.6,0,2,3.6,2.3v2.2H20.5V46.5z"/>
		<path fill="#727270" d="M56.7,7.2c8.3,0,14.5,1.8,20.5,6c5,3.6,9.2,9.5,9.2,17.8c0,10.8-6.9,17.8-22.6,17.8h-7.1v-2.2
			c3.3-0.3,3.3-0.6,3.3-2.3V11.7c0-1.7,0-2.1-3.3-2.3V7.2z M64.3,46.2h1.3c7.8,0,16.2-4,16.2-15.2c0-14-13-20.1-17.5-20.6V46.2z"/>
		<path fill="#727270" d="M118.6,38.4c0,6.9-2.3,11-12.5,11c-9.8,0-12-4.1-12-11V11.7c0-1.7,0-2.1-3.3-2.3V7.2h11v2.2
			c-3.4,0.2-3.4,0.6-3.4,2.3v27c0,5.3,1.6,8,7.8,8c6.4,0,8-2.7,8-8v-27c0-1.7,0-2.1-3.4-2.3V7.2h11v2.2c-3.3,0.2-3.3,0.6-3.3,2.3
			V38.4z"/>
	</g>
	<g enable-background="new    ">
		<path fill="#727270" d="M139.9,11.9c-2.9-1.7-4-2.6-5.6-2.6s-2.5,0.8-2.5,1.7c0,2.1,3.7,5,9,11.7c4.2,5.1,9.3,11.9,9.3,17.6
			c0,5.9-5.8,9.2-12.4,9.2c-2.3,0-5-0.6-6.7-1.4l-1.6,0.6h-2.3l-1.2-6.5l2.8-0.7c1.6,2.3,3.5,5.1,9,5.1c4.6,0,8.1-2.6,8.1-5.9
			c0-5.1-4.3-11.1-8.4-16.1c-6-7.6-9.9-11-9.9-14c0-2.6,2.3-4.2,6.1-4.2c0.7,0,1.3,0.1,2,0.1l1.6-0.8h2.6l3.1,5.3L139.9,11.9z"/>
	</g>
	<g enable-background="new    ">
		<path fill="#727270" d="M158.2,48.7v-2.2c3.6-0.2,3.6-0.6,3.6-2.3V9.7c-3.5,0-5.7,0-7.6,2.8l-2.8-0.6l2.9-5.1
			c3.2,0.2,6.5,0.4,9.7,0.4c3.3,0,6.5-0.2,9.7-0.4l2.9,5.1l-2.8,0.6c-1.9-2.8-4.2-2.8-7.6-2.8v34.5c0,1.7,0,2.1,3.6,2.3v2.2H158.2z"
			/>
	</g>
	<g enable-background="new    ">
		<path fill="#727270" d="M181.4,48.7v-2.2c3.6-0.3,3.6-0.6,3.6-2.3V11.7c0-1.7,0-2.1-3.6-2.3V7.2h15.8c7.6,0,9.8,2.1,9.8,4.8
			c0,1.8-1,3.8-5,4.6c0,5.8,1,18.9,3.2,24.3c1.6,4.1,3,5.3,6,5.6v2.2h-6.6c-1.1-1.7-2.3-3.6-3.4-6.5c-2.8-7-3.6-19.7-3.6-25.5h-8.3
			v27.5c0,1.6,0,2,3.6,2.3v2.2H181.4z M197.2,14.1c3.5,0,5.2-0.5,5.2-2.2c0-1.5-2.3-2.2-5.2-2.2h-7.9v4.4H197.2z"/>
	</g>
	<g enable-background="new    ">
		<path fill="#727270" d="M220.3,48.7v-2.2c3.6-0.2,3.6-0.6,3.6-2.3V15.9l-7-5c-1-0.7-1.9-1.4-4-1.5V7.2h10.3v2.2
			c-1.2,0.1-2.4,0.1-2.4,0.5c0,0.3,1,0.9,1.5,1.2l3.8,2.6l4.2-2.5c1-0.6,1.8-1,1.8-1.4c0-0.4-1.9-0.4-2.9-0.5V7.2h9.9v2.2
			c-1.7,0.2-2.2,0.9-3.5,1.6l-7.5,4.9v28.3c0,1.7,0,2.1,3.6,2.3v2.2H220.3z"/>
	</g>
	<g enable-background="new    ">
		<path fill="#727270" d="M10.1,110.1c0,1.6,0,2,2.3,2.3v2.3H5v-2.3c2.3-0.3,2.3-0.6,2.3-2.3V77c0-1.7,0-2.1-2.3-2.3v-2.3h10.2
			c4.9,0,6.3,2.1,6.3,4.9c0,3.2-2,4.8-6.5,4.8h-5V110.1z M15.2,79.5c2.2,0,3.4-0.5,3.4-2.3c0-1.6-1.5-2.2-3.4-2.2h-5.1v4.5H15.2z"/>
		<path fill="#727270" d="M42.1,104.2c0,7-1.5,11.2-8.1,11.2c-6.3,0-7.7-4.2-7.7-11.2V77c0-1.7,0-2.1-2.1-2.3v-2.3h7.1v2.3
			c-2.2,0.2-2.2,0.6-2.2,2.3v27.4c0,5.4,1,8.1,5.1,8.1c4.2,0,5.2-2.7,5.2-8.1V77c0-1.7,0-2.1-2.2-2.3v-2.3h7.1v2.3
			c-2.1,0.2-2.1,0.6-2.1,2.3V104.2z"/>
		<path fill="#727270" d="M47.4,114.7v-2.3c2.3-0.3,2.3-0.6,2.3-2.3V77c0-1.7,0-2.1-2.3-2.3v-2.3h9.5c4.3,0,7,1.1,7,4.5
			c0,2-1,3.2-2.1,3.6c2,1.4,6,4.8,6,14.6c0,16.4-9.2,19.6-17,19.6H47.4z M57.5,79.5c2.3,0,3.5-0.7,3.5-2.4c0-1.7-1.1-2.1-3.5-2.1
			h-4.9v4.5H57.5z M52.5,112.1c6.7-0.8,12.3-4.9,12.3-17c0-4.7-0.9-8.2-2.6-10.4c-2.1-2.6-3.8-2.6-9.7-2.6V112.1z"/>
		<path fill="#727270" d="M71.5,114.7v-2.3c2.5-0.3,2.5-0.6,2.5-2.3V77c0-1.7,0-2.1-2.5-2.3v-2.3h7.6v2.3c-2.3,0.2-2.3,0.6-2.3,2.3
			v35.1h5.8c2.4,0,3-1.3,3.9-2.6l1.8,1.2l-2.1,4.8c-0.8-0.3-1.9-0.5-3-0.5c-1.1-0.1-2.3-0.2-3.4-0.2H71.5z"/>
		<path fill="#727270" d="M91.3,114.7v-2.3c2.3-0.3,2.3-0.6,2.3-2.3V77c0-1.7,0-2.1-2.3-2.3v-2.3h7.4v2.3c-2.3,0.2-2.3,0.6-2.3,2.3
			v33.1c0,1.6,0,2,2.3,2.3v2.3H91.3z"/>
		<path fill="#727270" d="M120.4,109.9c-0.8,1.8-2.8,5.6-7.5,5.6c-7.6,0-10.3-9.6-10.3-22.6c0-10.2,2.6-21.1,10.6-21.1
			c1.6,0,1.9-0.1,1.9-0.9l1.6-0.7l2.4,6l-1.8,0.8c-1.2-1.4-2.5-2.3-4.1-2.3c-4.2,0-7.6,6.6-7.6,18.8c0,11,2.1,19.2,7.4,19.2
			c2.8,0,4.7-2.5,5.5-4.4L120.4,109.9z"/>
		<path fill="#727270" d="M134.6,114.7v-2.3c2.3-0.3,2.3-0.7,2.3-2.3V77c0-1.7,0-2.1-2.3-2.3v-2.3h7.2v2.3c-2.1,0.2-2.1,0.6-2.1,2.3
			v2.4h9.3V77c0-1.7,0-2.1-2.1-2.3v-2.3h7.2v2.3c-2.3,0.2-2.3,0.6-2.3,2.3v33.1c0,1.6,0,2,2.3,2.3v2.3h-7.2v-2.3
			c2.1-0.3,2.1-0.6,2.1-2.3V82.1h-9.3v28.1c0,1.7,0,2,2.1,2.3v2.3H134.6z"/>
		<path fill="#727270" d="M157.8,96.2c0-14.6,2.6-24.5,9-24.5c6.3,0,9.8,9.9,9.8,24.5c0,11-2.9,19.2-9.1,19.2
			C160.9,115.4,157.8,107.2,157.8,96.2z M167.5,112.6c4,0,6.1-7,6.1-16.4c0-11.9-2.5-21.6-6.9-21.6c-4.1,0-6,9.7-6,21.6
			C160.8,105.5,163,112.6,167.5,112.6z"/>
		<path fill="#727270" d="M198,104.2c0,7-1.5,11.2-8.1,11.2c-6.3,0-7.7-4.2-7.7-11.2V77c0-1.7,0-2.1-2.1-2.3v-2.3h7.1v2.3
			c-2.2,0.2-2.2,0.6-2.2,2.3v27.4c0,5.4,1,8.1,5.1,8.1c4.2,0,5.2-2.7,5.2-8.1V77c0-1.7,0-2.1-2.2-2.3v-2.3h7.1v2.3
			c-2.1,0.2-2.1,0.6-2.1,2.3V104.2z"/>
	</g>
	<g enable-background="new    ">
		<path fill="#727270" d="M211.8,77.2c-1.9-1.7-2.6-2.6-3.6-2.6s-1.6,0.8-1.6,1.7c0,2.1,2.4,5.1,5.8,11.9c2.7,5.2,6,12.1,6,17.9
			c0,6-3.8,9.4-8,9.4c-1.5,0-3.3-0.7-4.3-1.4l-1,0.7h-1.5l-0.8-6.6l1.8-0.7c1,2.4,2.2,5.1,5.8,5.1c3,0,5.2-2.7,5.2-6
			c0-5.2-2.8-11.3-5.4-16.4c-3.9-7.8-6.4-11.2-6.4-14.2c0-2.7,1.5-4.2,3.9-4.2c0.4,0,0.8,0.1,1.3,0.1l1-0.8h1.7l2,5.4L211.8,77.2z"
			/>
	</g>
	<g enable-background="new    ">
		<path fill="#727270" d="M222,114.7v-2.3c2.5-0.3,2.5-0.6,2.5-2.3V77c0-1.7,0-2.1-2.5-2.3v-2.3h6.8c1.3,0,3.5,0,5.6-0.9l2,4.1
			l-1.7,1c-0.9-0.8-1.3-1.6-3.2-1.6h-4.2v5.1h5.3c1.9,0,2-0.7,2.1-1.7h1.7v6h-1.7c-0.2-0.9-0.4-1.7-2-1.7h-5.4v29.3h5.8
			c2.6,0,3-1.3,3.9-2.5l1.7,1.2l-2,4.7c-1.1-0.3-2.4-0.5-3.8-0.6c-1.3-0.1-2.7-0.1-3.7-0.1H222z"/>
	</g>
	<line fill="none" stroke="#727270" stroke-width="3" stroke-miterlimit="10" x1="31.7" y1="61.5" x2="213.2" y2="61.5"/>
</g>
<g id="Layer_5">
	<g id="Shape_3">
		<path fill="#F6C120" d="M327.5,42.1c-1.1,0.3-2.2,0.4-3.3,0.3c-4.7-0.4-8.2-4.2-7.8-8.5c0.4-3.4,3-6.2,6.4-6.8
			c-0.9-1.5-1.8-3-2.9-4.4c-0.7,0.7-1.6,1.2-2.5,1.6c-4.2,1.8-9.1,0.1-11.4-3.9c-1.5-2.9-0.9-6.5,1.6-8.7c-1.5-0.9-3.1-1.8-4.8-2.5
			c-0.3,0.9-0.7,1.7-1.2,2.4c-3,3.5-8,4.3-11.9,1.8c-2.8-1.7-4.2-5-3.4-8.2c-1.8-0.1-3.6-0.1-5.4,0c0.2,0.8,0.3,1.7,0.2,2.5
			c-0.4,4.3-4.5,7.3-9.2,6.9c-3.4-0.2-6.3-2.4-7.5-5.6c-1.6,0.7-3.1,1.5-4.6,2.4c0.6,0.6,1.1,1.3,1.5,2c2,3.9,0.2,8.5-4.1,10.2
			c-3.2,1.3-6.8,0.7-9.5-1.5c-1,1.3-1.9,2.7-2.7,4.2c0.9,0.2,1.7,0.6,2.5,1.1c3.9,2.5,4.9,7.3,2.2,10.8c-2.2,2.6-5.7,3.8-9,3
			c-0.1,1.6-0.1,3.3,0,4.9c0.9-0.2,1.9-0.3,2.9-0.2c4.7,0.4,8.2,4.2,7.8,8.5c-0.4,3.4-2.9,6.1-6.3,6.7c0.8,1.5,1.7,3,2.8,4.4
			c0.7-0.7,1.6-1.2,2.5-1.6c4.2-1.8,9.1-0.1,11.4,3.9c1.5,3,0.8,6.7-1.8,8.8c1.6,1,3.2,1.9,4.9,2.6c0.2-1,0.7-1.9,1.3-2.6
			c2.9-3.5,8-4.2,11.8-1.8c3,1.8,4.4,5.4,3.3,8.7c1.9,0.1,3.8,0.2,5.7,0.1c-0.3-1-0.5-2-0.4-3c0.4-4.3,4.5-7.3,9.2-6.9
			c3.6,0.2,6.7,2.7,7.6,6.2c1.7-0.7,3.4-1.6,5-2.6c-0.8-0.7-1.5-1.5-2-2.5c-2-3.9-0.2-8.5,4.1-10.2c3.4-1.4,7.4-0.6,10,1.9
			c1.1-1.4,2-2.9,2.9-4.5c-1.1-0.2-2.2-0.7-3.1-1.3c-3.9-2.5-4.9-7.3-2.2-10.8c2.3-2.8,6.1-3.9,9.5-2.8
			C327.7,45.5,327.7,43.8,327.5,42.1z M291.4,45.1c-0.3,3.6-3.9,6.3-7.9,5.9s-7-3.6-6.7-7.2s3.9-6.3,7.9-5.9S291.8,41.4,291.4,45.1
			L291.4,45.1z"/>
	</g>
	<g id="Shape_2">
		<path fill="#727270" d="M284.2,111.3c3.3,0.1,6.5-1.3,8.7-3.8h-17.4C277.7,110,280.9,111.4,284.2,111.3z M297.8,95
			c-0.1-1.4-1.4-2.4-2.8-2.3h-21.7c-1.3-0.2-2.5,0.6-2.7,1.9c-0.2,1.3,0.6,2.5,1.9,2.7c0.3,0,0.5,0,0.8,0c-1.3-0.2-2.5,0.6-2.7,1.9
			c-0.2,1.3,0.6,2.5,1.9,2.7c0.3,0,0.5,0,0.8,0c-1.3-0.2-2.5,0.6-2.7,1.9c-0.2,1.3,0.6,2.5,1.9,2.7c0.3,0,0.5,0,0.8,0H295
			c1.3,0.2,2.5-0.6,2.7-1.9c0.2-1.3-0.6-2.5-1.9-2.7c-0.3,0-0.5,0-0.8,0c1.3,0.2,2.5-0.6,2.7-1.9c0.2-1.3-0.6-2.5-1.9-2.7
			c-0.3,0-0.5,0-0.8,0C296.4,97.4,297.6,96.4,297.8,95L297.8,95z M288.2,103.6h-11.9c-0.7,0.1-1.4-0.4-1.5-1.1s0.4-1.4,1.1-1.5
			c0.1,0,0.3,0,0.4,0h11.9c0.7-0.1,1.4,0.4,1.5,1.1s-0.4,1.4-1.1,1.5C288.4,103.6,288.3,103.6,288.2,103.6z M292.3,98.3H276
			c-0.7,0.1-1.4-0.4-1.5-1.1c-0.1-0.7,0.4-1.4,1.1-1.5c0.2,0,0.3,0,0.5,0h16.4c0.7-0.1,1.4,0.4,1.5,1.1c0.1,0.7-0.4,1.4-1.1,1.5
			C292.7,98.4,292.5,98.4,292.3,98.3L292.3,98.3z M306.4,24c-3.9-3.3-8.5-5.6-13.4-6.8c-2.9-0.7-5.9-1.1-8.8-1.1
			c-8.1-0.1-16,2.7-22.3,7.9c-5.8,4.7-9.1,11.7-9.2,19.1c0,0.1,0.1,2.4,0.1,2.4c0.4,3.8,1.7,7.4,3.8,10.6l-0.2-0.5l0.5,1
			c7,11.5,10.8,21.2,10.8,27.3c0,0.1,0.4,3.3,0.4,3.3c1.1,3.9,3.8,4.4,5.3,4.4H295c1.5,0,4.2-0.6,5.3-4.2c0-0.2,0.4-3.4,0.4-3.4
			c0-10.6,11.1-27.7,11.2-27.9c2-3.2,3.2-6.8,3.7-10.6c0-0.1,0.1-2.4,0.1-2.4C315.6,35.8,312.2,28.7,306.4,24L306.4,24z M312.5,45.5
			c-0.4,3.4-1.5,6.6-3.3,9.5c-0.1,0.1-11.5,17.8-11.5,29c0-0.1-0.4,3.1-0.4,3.1c-0.6,2-1.8,2-2.2,2h-9.2l0-5.3
			c0-4.7-0.1-10.4-0.5-15.6l0.2-0.7c0-0.2,0.1-0.3,0.1-0.5c1.5-0.7,3-1.5,4.4-2.4c2-1.2,10.4-8.2,10.4-13.3c0-0.1,0-0.2,0-0.3
			c-0.2-1.6-1.2-3-2.8-3.6c-1.6-0.8-3.5-0.8-5.1-0.2c-4,1.7-6.6,7.5-8.4,13.4c-0.3-1.5-0.7-3-1.3-4.5c-2.8-6.1-5.8-7.2-7.9-7.1
			c-2.2,0.2-4,1.7-4.5,3.8c-0.2,0.8-0.4,1.6-0.4,2.3c0,3.3,1.9,7.2,6.8,9.9l0.8,0.4c1.4,0.9,2.9,1.5,4.5,1.9
			c0.5,5.4,0.6,11.4,0.6,16.4l0,5.3h-9.4c-0.5,0-1.7,0-2.3-2.2c0-0.1-0.4-3-0.4-3l0,0c0-6.4-4-16.5-11.1-28.3l-0.3-0.5
			c-1.9-2.9-3.1-6.2-3.4-9.6l-0.1-2.3c0.1-6.7,3.1-13.1,8.3-17.3c5.6-4.7,12.8-7.3,20.1-7.2c2.7,0,5.4,0.3,8,1
			c4.5,1.1,8.6,3.2,12.1,6.2c5.2,4.3,8.2,10.6,8.3,17.3L312.5,45.5z M286.4,63.6c2.7-10,5.5-13.1,7.4-13.9c0.8-0.3,1.7-0.3,2.4,0.1
			c0.7,0.2,1.1,0.8,1.2,1.5c0,0.1,0,0.1,0,0.2c0,3.5-7,9.9-8.9,11C287.5,63,287,63.3,286.4,63.6z M281.7,64.6
			c-0.9-0.3-1.7-0.8-2.5-1.2l-0.8-0.4c-3.8-2.1-5.4-5.2-5.4-7.7c0-0.6,0.1-1.1,0.2-1.6c0.4-1.1,1-1.9,1.8-1.9c1.1,0,3,1.4,4.9,5.5
			C280.9,59.6,281.5,62.1,281.7,64.6L281.7,64.6z"/>
	</g>
</g>
</svg>
