<svg id="Layer_1" data-name="Layer 1" xmlns="http://www.w3.org/2000/svg" viewBox="0 0 612 770.13"><defs><style>.cls-1{fill:#f6c120;}.cls-2{fill:#372b07;}</style></defs><title>lightbulb_large</title><g id="gear"><g id="Shape_3-2" data-name="Shape 3-2"><path class="cls-1" d="M610.17,268.55a63.62,63.62,0,0,1-22.91,2c-33-3.09-57.59-30.5-54.85-61.25,2.16-24.5,21-43.64,45.17-48.9a288.36,288.36,0,0,0-20.13-31.78,58.53,58.53,0,0,1-17.69,11.58c-29.94,12.7-65.73.16-79.87-28a52.77,52.77,0,0,1,11.56-63A317.13,317.13,0,0,0,437.79,31a53.08,53.08,0,0,1-8.64,17.26C410.27,73.37,372.89,79.07,345.66,61,324.71,47.15,315.87,23.27,321.5,1.57a329,329,0,0,0-38.11-.29A52.42,52.42,0,0,1,285,19.48c-2.72,30.75-31.7,53.16-64.72,50.09C195,67.2,174.84,50.68,167.82,29.32a305.48,305.48,0,0,0-32.58,17.33A57.17,57.17,0,0,1,146,61.47c14.16,28.16,1.36,61.25-28.58,74a63.78,63.78,0,0,1-66.56-10.78A273,273,0,0,0,32,155a63,63,0,0,1,17.44,8c27.22,18,34,53,15.15,78.09-14.52,19.3-40,27.06-63.44,21.45a267.15,267.15,0,0,0,0,35.62,63.86,63.86,0,0,1,20-1.27c33,3.09,57.59,30.5,54.87,61.25-2.14,24.06-20.42,43-44,48.66a287.32,287.32,0,0,0,19.34,31.67,58.63,58.63,0,0,1,17.31-11.22c29.94-12.7,65.73-.16,79.87,28,11.28,22.44,5.44,48-12.59,64a316.24,316.24,0,0,0,34.2,19.06,52.93,52.93,0,0,1,9.15-19.14c18.86-25.08,56.25-30.79,83.49-12.75,22,14.59,30.67,40.22,23.14,62.77a329.77,329.77,0,0,0,40.14.68A52.52,52.52,0,0,1,323.27,548C326,517.24,355,494.83,388,497.9c26.94,2.52,48.25,21.23,53.69,44.74a305.45,305.45,0,0,0,35-18.48A57.61,57.61,0,0,1,462.23,506c-14.16-28.17-1.36-61.25,28.58-74a63.64,63.64,0,0,1,70,14.09,272.62,272.62,0,0,0,19.94-32.48,63.22,63.22,0,0,1-22-9.16c-27.22-18-34-53-15.15-78.09,15.24-20.25,42.55-27.87,66.84-20.55A266.87,266.87,0,0,0,610.17,268.55ZM356.79,290.32c-2.33,26.23-27,45.35-55.21,42.72s-49.12-26-46.79-52.24,27-45.35,55.21-42.72,49.09,26,46.77,52.21Z"/></g></g><g id="frame"><g id="Shape_2-2" data-name="Shape 2-2"><path class="cls-2" d="M305.56,770.13c25,0,47.19-10.81,61-27.44h-122C258.37,759.33,280.51,770.13,305.56,770.13ZM461.81,137.87A229,229,0,0,0,367.9,88.3a247.23,247.23,0,0,0-62.34-7.95c-59,0-114.52,20.42-156.27,57.49S84.6,224.11,84.6,276.51c0,.44.9,17.61.9,17.61a179.19,179.19,0,0,0,26.36,76.82l-1.25-3.51,3.44,7.36c48.82,83.18,75.7,153.26,75.7,197.36,0,1,2.72,24.23,2.72,24.23,7.59,27.9,26.5,31.88,37.1,31.88H381.51c10.62,0,29.54-4,36.87-30.6.24-1.28,2.94-24.5,2.94-24.5,0-76.53,77.76-200.81,78.55-202a187.11,187.11,0,0,0,25.75-76.49c0-.41.94-17.59.94-17.59C526.5,224.15,503.54,174.9,461.81,137.87Zm42.55,155.39A169.29,169.29,0,0,1,481.22,362c-.64,1-81.08,128.69-81.08,210.12,0-1-2.64,22.31-2.64,22.31-4.21,15-12.45,15-16,15H317l-.38-38.11c-.14-34.3-.54-75-3.69-113l1.14-5.08c.29-1.36.59-2.37.9-3.69,8.17-3.5,17.63-8.7,31-17,14.13-8.75,73.28-59.29,73.28-96.28a24.15,24.15,0,0,0-.08-2.44c-.84-11.49-7.61-20.5-19.59-26s-24.59-6-36.08-1c-28,12-46.28,54.16-58.68,96.88-2.56-11.68-5.16-23.32-9.05-32.37-19.06-44.26-40.55-52.73-55.21-52s-26.94,11.38-31.92,27.86a59,59,0,0,0-2.44,17c0,24,13.61,52,47.37,71.36l5.53,3.17c13.94,8,23.14,12,31.73,13.75,3.7,39.17,4.33,82.56,4.48,118.9l.45,38.07H229.61c-3.51,0-11.71,0-16.2-16.18,0-.78-2.45-22-2.45-22v-.14c0-46.11-27.74-119.24-78.06-205l-2-3.46a163.33,163.33,0,0,1-24.2-69.78c0-.2-.86-16.75-.86-16.75,0-46.93,20.78-91.44,58.53-124.91s87.83-52,141.19-52a223.93,223.93,0,0,1,56.38,7.16,206.88,206.88,0,0,1,84.9,44.81c37.7,33.48,58.46,78,58.46,125.33,0,0-.93,16.74-.93,16.74ZM321,424.61c19-72.14,38.23-95.07,51.72-100.83,5.44-2.33,10.89-2.07,17.07.8,5.44,2.48,7.84,5.62,8.17,10.49v1.36c0,25.57-49.22,71.38-62.53,79.61-6.19,3.89-10,5.93-14.41,8.56Zm-32.53,7.28a129.52,129.52,0,0,1-17.78-9l-5.55-3.2c-26.8-15.37-37.61-37.67-37.61-55.89A41.16,41.16,0,0,1,229.19,352c2.46-8.17,7.36-13.68,12.48-13.92,7.7-.35,21.3,9.9,34.26,40,6,14,9.7,33.18,12.55,53.86ZM401.13,652c0-9.28-8.72-16.81-19.44-16.81H229.39C218.67,635.2,210,642.72,210,652s8.71,16.86,19.44,16.86c-10.73,0-19.44,7.55-19.44,16.85s8.71,16.84,19.44,16.84c-10.73,0-19.44,7.55-19.44,16.84s8.71,16.86,19.44,16.86H381.7c10.71,0,19.44-7.54,19.44-16.86s-8.72-16.84-19.44-16.84c10.71,0,19.44-7.54,19.44-16.84s-8.72-16.85-19.44-16.85C392.39,668.8,401.13,661.26,401.13,652Zm-67.35,62.23H250c-5.88,0-10.68-4.26-10.68-9.53s4.8-9.53,10.68-9.53h83.76c5.92,0,10.68,4.26,10.68,9.53s-4.76,9.46-10.68,9.46ZM363,676.12H248.12c-5.93,0-10.74-4.26-10.74-9.53s4.8-9.53,10.74-9.53H363c5.93,0,10.74,4.26,10.74,9.53S368.92,676.12,363,676.12Z"/></g></g></svg>