<?xml version="1.0" standalone="no"?>
<!DOCTYPE svg PUBLIC "-//W3C//DTD SVG 20010904//EN"
 "http://www.w3.org/TR/2001/REC-SVG-20010904/DTD/svg10.dtd">
<svg version="1.0" xmlns="http://www.w3.org/2000/svg"
 width="700.000000pt" height="700.000000pt" viewBox="0 0 700.000000 700.000000"
 preserveAspectRatio="xMidYMid meet">
<metadata>
Created by potrace 1.11, written by Peter Selinger 2001-2013
</metadata>
<g transform="translate(0.000000,700.000000) scale(0.100000,-0.100000)"
fill="#000000" stroke="none">
<path d="M3306 6963 c22 -85 1 -230 -45 -320 -41 -81 -197 -223 -244 -223 -7
0 -17 -4 -22 -9 -19 -19 -131 -42 -205 -42 -214 -2 -420 117 -508 295 -18 36
-36 66 -39 66 -10 0 -238 -121 -263 -140 l-24 -18 37 -42 c64 -75 105 -184
109 -288 3 -83 -12 -145 -53 -229 -141 -287 -529 -375 -809 -183 l-56 37 -24
-36 c-49 -73 -140 -225 -140 -233 0 -5 8 -11 17 -14 170 -57 309 -201 353
-364 14 -50 17 -157 8 -216 -24 -144 -155 -297 -306 -359 -85 -35 -120 -40
-249 -39 l-112 1 0 -157 0 -158 37 5 c62 8 174 5 227 -7 176 -39 343 -189 399
-357 50 -152 11 -334 -101 -462 -55 -62 -148 -125 -220 -148 -29 -9 -53 -19
-53 -22 0 -3 15 -32 33 -63 76 -134 123 -208 134 -212 7 -3 25 5 41 18 42 36
141 84 208 100 115 29 277 12 383 -39 323 -157 406 -534 173 -789 l-32 -35 83
-49 c122 -74 218 -122 228 -116 5 3 9 11 9 17 1 20 65 142 76 142 10 0 48
-127 57 -190 3 -22 8 -47 11 -55 8 -24 16 -98 21 -185 3 -44 11 -129 19 -189
21 -160 74 -257 173 -319 77 -48 80 -48 888 -45 l760 3 47 23 c118 58 186 170
203 332 4 36 9 73 10 82 2 9 6 61 10 115 3 54 8 105 10 113 2 8 7 35 10 60 4
25 11 63 16 85 6 22 14 58 19 80 5 22 13 51 18 65 9 24 9 24 36 -17 15 -23 38
-68 51 -100 13 -32 28 -58 32 -58 19 2 235 114 282 147 l24 17 -37 38 c-253
259 -152 678 194 805 188 69 399 34 558 -92 30 -23 55 -40 56 -38 19 23 111
169 140 221 26 48 33 68 24 71 -7 3 -31 10 -53 16 -64 20 -143 68 -210 131
-205 192 -207 515 -5 703 71 65 131 100 223 128 79 24 216 28 281 10 22 -6 42
-9 44 -7 5 4 7 197 3 294 -1 37 -3 42 -18 36 -10 -4 -61 -9 -114 -11 -169 -6
-314 50 -430 167 -57 58 -122 171 -134 234 -39 205 38 399 206 511 49 34 123
70 163 80 14 3 26 8 26 11 0 10 -147 245 -176 281 -1 2 -22 -12 -46 -30 -299
-228 -751 -98 -868 250 -56 169 -17 344 107 481 l22 25 -32 20 c-61 37 -251
136 -262 136 -7 0 -28 -33 -49 -74 -57 -117 -144 -194 -273 -245 -71 -28 -95
-32 -188 -36 -320 -12 -584 235 -570 533 2 39 6 76 9 81 11 17 -25 21 -185 21
l-159 0 6 -27z m292 -2137 c18 -4 52 -14 75 -23 297 -117 387 -462 179 -685
-198 -212 -558 -186 -733 52 -55 75 -73 137 -74 245 0 93 3 105 33 168 91 186
303 285 520 243z m-603 -2371 c93 -37 138 -67 205 -134 99 -101 148 -222 144
-356 -1 -44 -7 -92 -13 -107 -8 -23 -8 -28 4 -29 8 -1 20 -3 25 -4 6 -1 19 -3
30 -4 19 -1 20 -8 20 -181 l0 -180 -317 0 c-302 0 -320 1 -351 20 -43 27 -79
105 -86 190 -3 36 -8 88 -11 115 -2 28 -7 82 -10 120 -3 39 -7 81 -10 95 -2
14 -10 54 -16 90 -6 36 -28 125 -49 198 l-37 133 31 17 c110 58 318 66 441 17z
m1315 10 c69 -13 160 -54 160 -71 0 -7 -5 -25 -11 -41 -37 -98 -87 -352 -94
-481 -2 -37 -7 -87 -10 -112 -3 -25 -8 -67 -11 -95 -13 -119 -46 -176 -112
-195 -24 -7 -144 -10 -332 -8 l-294 3 -3 178 -2 177 38 0 c46 0 54 6 39 33
-17 32 -18 167 -3 235 8 34 27 85 42 113 27 50 116 150 158 177 53 33 156 77
210 88 54 11 167 10 225 -1z"/>
<path d="M2761 1219 c-99 -21 -155 -127 -109 -209 21 -38 74 -80 101 -80 27 0
20 -17 -10 -23 -32 -7 -74 -41 -93 -76 -42 -79 1 -172 95 -204 l39 -14 -29 -7
c-37 -9 -91 -49 -106 -78 -36 -67 -4 -156 70 -195 l44 -23 739 0 c716 0 740 1
778 20 73 37 108 126 74 191 -19 37 -68 76 -106 84 l-32 7 38 13 c67 23 116
85 116 145 0 45 -42 105 -89 126 -46 22 -50 29 -18 38 52 13 107 87 107 143 0
41 -39 99 -84 124 l-41 24 -725 1 c-399 0 -740 -3 -759 -7z m1271 -195 c65
-10 101 -65 77 -117 -24 -52 -20 -52 -615 -52 l-554 0 -25 25 c-30 31 -38 62
-23 95 23 52 29 52 586 53 285 1 534 -1 554 -4z m-254 -349 c34 -6 67 -35 75
-65 7 -26 -20 -76 -49 -89 -17 -8 -151 -11 -435 -11 l-411 0 -29 29 c-36 36
-37 70 -5 108 23 27 29 28 133 33 139 6 678 3 721 -5z"/>
<path d="M2981 214 c126 -132 302 -206 499 -208 96 -1 124 2 214 19 94 19 216
86 299 166 l62 58 -554 1 -555 0 35 -36z"/>
</g>
</svg>
