<svg xmlns="http://www.w3.org/2000/svg" viewBox="0 0 44.91 43"><title>burger_icon</title><g id="Layer_2" data-name="Layer 2"><g id="Layer_1-2" data-name="Layer 1"><g id="i-like-food"><path id="path6_fill-copy" data-name="path6 fill-copy" d="M44.37,16c.2.65.39,1.32.54,2H41.17l1.17,2.34.45.9-.24.11V28a5,5,0,0,1-2.23,8.94l0,.06a8,8,0,0,1-7.75,6h-20a8,8,0,0,1-7.74-6l0-.06A5,5,0,0,1,2.55,28V21.24l-.79-1.58-.44-.9.9-.44L2.85,18H0a23,23,0,0,1,44.37-2ZM7.55,18a1,1,0,0,0-.44.1L4,19.66l.89,1.79,1.31-.66a3,3,0,0,1,2.69,0l2.2,1.1a1,1,0,0,0,.9,0l2.21-1.1a3,3,0,0,1,2.69,0l2.2,1.1a1,1,0,0,0,.9,0l2.21-1.1a3,3,0,0,1,2.69,0l2.2,1.1a1,1,0,0,0,.86,0l2.88-1.27a3,3,0,0,1,2.43,0l2.88,1.27a1,1,0,0,0,.85,0l3.1-1.55-.89-1.79-1.42.71a3,3,0,0,1-2.56.06l-2.77-1.23a1,1,0,0,0-.4-.09h0a1,1,0,0,0-.4.09l-2.78,1.23a3,3,0,0,1-2.56-.06L24,18.11a1,1,0,0,0-.45-.11h0a1,1,0,0,0-.44.1L20.9,19.21a3,3,0,0,1-2.69,0L16,18.11a1,1,0,0,0-.45-.11h0a1,1,0,0,0-.44.1L12.9,19.21a3,3,0,0,1-2.69,0L8,18.11A1,1,0,0,0,7.56,18h0Zm0-2H2.65a21,21,0,0,1,39.61,0H40.17l-.06-.13-.26.13H7.55ZM37.9,23.68,39.26,23h1.3v2h-36V23.85l.34-.17L6.26,23H8.85l1.36.68a3,3,0,0,0,2.69,0L14.26,23h2.59l1.36.68a3,3,0,0,0,2.69,0L22.26,23h2.59l1.36.68a3,3,0,0,0,2.56.06L30.44,23h3.23l1.67.74a3,3,0,0,0,2.56-.06ZM6.18,27l16.37,4.91L38.93,27Zm-.63,2h.34l16.66,5,16.67-5h.33a3,3,0,0,1,0,6h-34a3,3,0,0,1,0-6ZM6.9,37a6,6,0,0,0,5.65,4h20a6,6,0,0,0,5.66-4Z"/></g></g></g></svg>