<svg id="Icon" xmlns="http://www.w3.org/2000/svg" viewBox="0 0 24 24"><defs><style>.cls-1{fill:#f6c120;}.cls-1,.cls-2{fill-rule:evenodd;}.cls-2{fill:#727270;}</style></defs><title>lightbulb_24</title><g id="Shape_3" data-name="Shape 3"><path class="cls-1" d="M18,10.67a5.9,5.9,0,0,0,0-.73,1.33,1.33,0,0,1-.45,0,1.15,1.15,0,0,1-1.08-1.21,1.11,1.11,0,0,1,.89-1c-.12-.21-.25-.42-.39-.62a1.15,1.15,0,0,1-.35.22A1.23,1.23,0,0,1,15,6.86a1,1,0,0,1,.23-1.23,6.19,6.19,0,0,0-.67-.36,1,1,0,0,1-.17.34,1.23,1.23,0,0,1-1.64.25,1.08,1.08,0,0,1-.47-1.17,6.26,6.26,0,0,0-.75,0,1.1,1.1,0,0,1,0,.36,1.13,1.13,0,0,1-1.27,1,1.2,1.2,0,0,1-1-.79,4.89,4.89,0,0,0-.64.34,1,1,0,0,1,.21.29A1,1,0,0,1,8.3,7.32,1.26,1.26,0,0,1,7,7.11a4.6,4.6,0,0,0-.37.6A1.14,1.14,0,0,1,7,7.86a1.06,1.06,0,0,1,.3,1.54A1.21,1.21,0,0,1,6,9.82c0,.23,0,.47,0,.7a1.29,1.29,0,0,1,.39,0A1.15,1.15,0,0,1,7.48,11.7a1.09,1.09,0,0,1-.86,1,5,5,0,0,0,.38.63,1,1,0,0,1,.34-.22,1.23,1.23,0,0,1,1.57.55,1,1,0,0,1-.25,1.25,5.51,5.51,0,0,0,.67.38,1.2,1.2,0,0,1,.18-.38,1.23,1.23,0,0,1,1.64-.25,1.07,1.07,0,0,1,.46,1.24,6.94,6.94,0,0,0,.79,0,1,1,0,0,1-.06-.43,1.15,1.15,0,0,1,1.28-1,1.18,1.18,0,0,1,1.05.88,4.52,4.52,0,0,0,.69-.36,1.09,1.09,0,0,1-.28-.36,1,1,0,0,1,.56-1.45,1.24,1.24,0,0,1,1.37.28,6.18,6.18,0,0,0,.4-.64,1.28,1.28,0,0,1-.44-.18,1.07,1.07,0,0,1-.29-1.54A1.21,1.21,0,0,1,18,10.67Zm-6.07.53A.94.94,0,1,1,13,10.36,1,1,0,0,1,11.92,11.2Z"/></g><g id="Shape_2" data-name="Shape 2"><path class="cls-2" d="M12,19.79a1.55,1.55,0,0,0,1.2-.54H10.8A1.55,1.55,0,0,0,12,19.79Zm1.88-2.32a.36.36,0,0,0-.38-.33h-3a.33.33,0,1,0,0,.66.36.36,0,0,0-.38.33.35.35,0,0,0,.38.33.34.34,0,1,0,0,.67h3a.34.34,0,1,0,0-.67.35.35,0,0,0,.38-.33.36.36,0,0,0-.38-.33A.36.36,0,0,0,13.88,17.47Zm-1.32,1.22H10.91a.19.19,0,1,1,0-.37h1.65a.19.19,0,1,1,0,.37Zm.57-.74H10.87a.19.19,0,1,1,0-.38h2.26a.19.19,0,1,1,0,.38ZM15.07,7.37a4.55,4.55,0,0,0-1.84-1A5.05,5.05,0,0,0,12,6.24,4.59,4.59,0,0,0,8.93,7.37a3.61,3.61,0,0,0-1.27,2.72l0,.35A3.44,3.44,0,0,0,8.19,12l0-.07.07.14A9.06,9.06,0,0,1,9.72,15.9s.06.48.06.48a.73.73,0,0,0,.73.63h3a.73.73,0,0,0,.73-.61s0-.48,0-.48c0-1.5,1.53-3.94,1.55-4a3.65,3.65,0,0,0,.5-1.5l0-.35A3.62,3.62,0,0,0,15.07,7.37Zm.84,3.05a3.24,3.24,0,0,1-.46,1.35s-1.59,2.53-1.59,4.13c0,0,0,.44,0,.44-.09.3-.25.3-.32.3H12.22v-.75c0-.68,0-1.48-.08-2.22l0-.1s0-.05,0-.08a3.49,3.49,0,0,0,.61-.33c.28-.17,1.44-1.17,1.44-1.89v0a.59.59,0,0,0-.38-.51.84.84,0,0,0-.71,0c-.55.23-.91,1.06-1.15,1.9a4,4,0,0,0-.18-.63c-.38-.87-.8-1-1.09-1a.71.71,0,0,0-.62.55,1,1,0,0,0,0,.34,1.66,1.66,0,0,0,.93,1.4l.11.06a1.89,1.89,0,0,0,.62.27c.07.77.09,1.62.09,2.34v.75h-1.3c-.07,0-.23,0-.32-.32,0,0,0-.44,0-.44h0a9.39,9.39,0,0,0-1.53-4l0-.06a3.26,3.26,0,0,1-.48-1.38v-.32A3.27,3.27,0,0,1,9.22,7.63a4.18,4.18,0,0,1,2.78-1,4.56,4.56,0,0,1,1.11.14,4.13,4.13,0,0,1,1.67.88,3.27,3.27,0,0,1,1.14,2.46ZM12.3,13c.38-1.41.76-1.86,1-2a.41.41,0,0,1,.34,0,.25.25,0,0,1,.16.2v0c0,.5-1,1.4-1.23,1.57Zm-.64.15a3,3,0,0,1-.34-.18l-.11-.06a1.31,1.31,0,0,1-.74-1.1.85.85,0,0,1,0-.23c.05-.16.14-.27.24-.28s.42.2.68.79A4,4,0,0,1,11.66,13.15Z"/></g></svg>