<svg xmlns="http://www.w3.org/2000/svg" viewBox="0 0 612 792"><defs><style>.cls-1{isolation:isolate;}.cls-2{fill:#f6c120;}.cls-2,.cls-3{fill-rule:evenodd;}.cls-3{fill:#372b07;}</style></defs><title>lightbulb_solo</title><g id="Shape_3" data-name="Shape 3" class="cls-1"><g id="Shape_3-2" data-name="Shape 3"><path class="cls-2" d="M542,308.27a46.74,46.74,0,0,1-16.83,1.47c-24.26-2.27-42.31-22.41-40.3-45,1.59-18,15.4-32.06,33.19-35.93a211.86,211.86,0,0,0-14.79-23.35,43,43,0,0,1-13,8.51c-22,9.33-48.29.12-58.68-20.57a38.77,38.77,0,0,1,8.49-46.31,233,233,0,0,0-24.73-13.33A39,39,0,0,1,409,146.44c-13.87,18.43-41.33,22.62-61.34,9.37-15.39-10.2-21.88-27.75-17.75-43.69a241.73,241.73,0,0,0-28-.21,38.51,38.51,0,0,1,1.17,13.37c-2,22.59-23.29,39.06-47.55,36.8C237,160.34,222.16,148.2,217,132.51a224.44,224.44,0,0,0-23.94,12.73,42,42,0,0,1,7.9,10.89c10.4,20.69,1,45-21,54.37a46.86,46.86,0,0,1-48.9-7.92,200.57,200.57,0,0,0-13.87,22.27,46.32,46.32,0,0,1,12.81,5.9c20,13.26,25,38.94,11.13,57.37C130.46,302.3,111.72,308,94.52,303.88a196.28,196.28,0,0,0,0,26.17,46.92,46.92,0,0,1,14.68-.93c24.26,2.27,42.31,22.41,40.31,45-1.57,17.68-15,31.62-32.34,35.75a211.1,211.1,0,0,0,14.21,23.27,43.08,43.08,0,0,1,12.72-8.24c22-9.33,48.29-.12,58.68,20.57,8.29,16.49,4,35.29-9.25,47a232.34,232.34,0,0,0,25.13,14,38.89,38.89,0,0,1,6.72-14.06c13.86-18.43,41.33-22.62,61.34-9.37,16.18,10.72,22.53,29.55,17,46.12a242.29,242.29,0,0,0,29.49.5,38.59,38.59,0,0,1-2-16.08c2-22.59,23.29-39.06,47.55-36.8,19.79,1.85,35.45,15.6,39.45,32.87a224.42,224.42,0,0,0,25.68-13.58,42.33,42.33,0,0,1-10.58-13.35c-10.4-20.7-1-45,21-54.37a46.76,46.76,0,0,1,51.44,10.35,200.3,200.3,0,0,0,14.65-23.86,46.45,46.45,0,0,1-16.13-6.73c-20-13.26-25-38.94-11.13-57.37,11.2-14.88,31.26-20.48,49.11-15.1A196.07,196.07,0,0,0,542,308.27Zm-186.16,16c-1.71,19.27-19.87,33.32-40.56,31.39s-36.09-19.12-34.38-38.38,19.87-33.32,40.56-31.39S357.53,305,355.82,324.25Z"/></g></g><g id="Shape_2" data-name="Shape 2" class="cls-1"><g id="Shape_2-2" data-name="Shape 2"><path class="cls-3" d="M318.2,676.79c18.38,0,34.67-7.94,44.79-20.16h-89.6C283.53,668.85,299.8,676.79,318.2,676.79ZM433,212.26a168.24,168.24,0,0,0-69-36.42A181.64,181.64,0,0,0,318.2,170c-43.36,0-84.14,15-114.81,42.24s-47.53,63.38-47.53,101.88c0,.32.66,12.94.66,12.94a131.65,131.65,0,0,0,19.37,56.44l-.92-2.58,2.53,5.41c35.87,61.11,55.62,112.6,55.62,145,0,.7,2,17.8,2,17.8,5.58,20.5,19.47,23.42,27.26,23.42H374c7.8,0,21.7-2.92,27.09-22.48.18-.94,2.16-18,2.16-18,0-56.23,57.13-147.54,57.71-148.44a137.47,137.47,0,0,0,18.92-56.2c0-.3.69-12.92.69-12.92C480.53,275.65,463.66,239.47,433,212.26Zm31.26,114.17a124.38,124.38,0,0,1-17,50.52c-.47.72-59.57,94.55-59.57,154.38,0-.7-1.94,16.39-1.94,16.39-3.09,11-9.15,11-11.74,11H326.57l-.28-28c-.1-25.2-.4-55.12-2.71-83l.84-3.73c.21-1,.43-1.74.66-2.71,6-2.57,12.95-6.39,22.81-12.5,10.38-6.43,53.84-43.56,53.84-70.74,0-.6,0-1.2-.06-1.79-.62-8.44-5.59-15.06-14.39-19.11s-18.07-4.38-26.51-.77c-20.56,8.78-34,39.79-43.11,71.18-1.88-8.58-3.79-17.13-6.65-23.78-14-32.52-29.79-38.74-40.56-38.24S250.66,353.89,247,366a43.37,43.37,0,0,0-1.79,12.51c0,17.66,10,38.22,34.8,52.43l4.06,2.33c10.24,5.91,17,8.82,23.31,10.1,2.72,28.78,3.18,60.66,3.29,87.36L311,558.7H262.4c-2.58,0-8.6,0-11.9-11.89,0-.57-1.8-16.18-1.8-16.18v-.1c0-33.88-20.38-87.61-57.35-150.59l-1.47-2.54a120,120,0,0,1-17.78-51.27c0-.15-.63-12.31-.63-12.31,0-34.48,15.27-67.18,43-91.77S279,183.87,318.2,183.87a164.52,164.52,0,0,1,41.42,5.26A152,152,0,0,1,422,222.05c27.7,24.6,42.95,57.3,42.95,92.08C464.92,314.15,464.27,326.43,464.27,326.43Zm-134.72,96.5c13.93-53,28.09-69.85,38-74.08,4-1.71,8-1.52,12.54.59,4,1.82,5.76,4.13,6,7.71,0,.33,0,.66,0,1,0,18.79-36.16,52.44-45.94,58.49C335.59,419.5,332.82,421,329.55,422.93Zm-23.9,5.35a95.16,95.16,0,0,1-13.06-6.6l-4.08-2.35c-19.69-11.29-27.63-27.68-27.63-41.06a30.24,30.24,0,0,1,1.22-8.68c1.81-6,5.41-10.05,9.17-10.23,5.66-.26,15.65,7.27,25.17,29.36C300.86,399,303.56,413.1,305.65,428.29ZM388.42,590c0-6.82-6.41-12.35-14.28-12.35H262.24c-7.88,0-14.28,5.53-14.28,12.35s6.4,12.39,14.28,12.39c-7.88,0-14.28,5.55-14.28,12.38s6.4,12.37,14.28,12.37c-7.88,0-14.28,5.55-14.28,12.37s6.4,12.39,14.28,12.39h111.9c7.87,0,14.28-5.54,14.28-12.39s-6.41-12.37-14.28-12.37c7.87,0,14.28-5.54,14.28-12.37s-6.41-12.38-14.28-12.38C382,602.34,388.42,596.8,388.42,590Zm-49.48,45.72H277.4c-4.32,0-7.85-3.13-7.85-7s3.53-7,7.85-7h61.54c4.35,0,7.85,3.13,7.85,7S343.29,635.67,338.94,635.67Zm21.45-28H276c-4.36,0-7.89-3.13-7.89-7s3.53-7,7.89-7h84.4c4.36,0,7.89,3.13,7.89,7S364.75,607.72,360.39,607.72Z"/></g></g></svg>