<svg id="Icon" xmlns="http://www.w3.org/2000/svg" viewBox="0 0 24 24"><title>tripadvisor_24</title><path d="M6.93,13.18a1,1,0,1,1-1-1A1,1,0,0,1,6.93,13.18Zm11-1a1,1,0,1,0,1,1A1,1,0,0,0,18,12.18ZM21.7,18a6,6,0,0,1-8.43-1L12,18.9,10.7,17a6,6,0,0,1-9.52-7.3A7.78,7.78,0,0,0,0,7.3H3.76A14.94,14.94,0,0,1,12,5a14.6,14.6,0,0,1,8,2.22h4a7.74,7.74,0,0,0-1.18,2.4A6,6,0,0,1,21.7,18ZM10.81,13.23A4.79,4.79,0,1,0,6,18a4.79,4.79,0,0,0,4.79-4.8ZM12,12.8a6,6,0,0,1,5.8-5.54A14.13,14.13,0,0,0,12,6.1,14.85,14.85,0,0,0,6.13,7.23,6,6,0,0,1,12,12.8Zm10.49-1.2a4.8,4.8,0,1,0-9,3.32h0a4.8,4.8,0,0,0,9-3.32ZM8.9,13.18h0a3,3,0,1,1-3-3,3,3,0,0,1,3,3Zm-1,0h0a1.95,1.95,0,1,0-1.94,1.95A1.95,1.95,0,0,0,7.88,13.18Zm13.06,0h0a3,3,0,1,1-3-3A3,3,0,0,1,20.94,13.18Zm-1,0A1.95,1.95,0,1,0,18,15.13a1.95,1.95,0,0,0,1.94-1.95h0Z"/></svg>